G75*
%MOIN*%
%OFA0B0*%
%FSLAX25Y25*%
%IPPOS*%
%LPD*%
%AMOC8*
5,1,8,0,0,1.08239X$1,22.5*
%
%ADD10C,0.00000*%
%ADD11C,0.01301*%
%ADD12C,0.07800*%
%ADD13R,0.04337X0.04731*%
%ADD14C,0.05600*%
%ADD15C,0.04762*%
%ADD16C,0.08000*%
%ADD17C,0.05550*%
%ADD18C,0.06337*%
%ADD19C,0.15400*%
%ADD20C,0.05156*%
%ADD21R,0.04731X0.04337*%
%ADD22C,0.04369*%
%ADD23OC8,0.05600*%
D10*
X0005060Y0003591D02*
X0005060Y0200441D01*
X0201910Y0200441D01*
X0201910Y0003591D01*
X0005060Y0003591D01*
D11*
X0013542Y0178620D02*
X0016578Y0178620D01*
X0013542Y0178620D02*
X0013542Y0181656D01*
X0016578Y0181656D01*
X0016578Y0178620D01*
X0016578Y0179920D02*
X0013542Y0179920D01*
X0013542Y0181220D02*
X0016578Y0181220D01*
X0016578Y0185525D02*
X0013542Y0185525D01*
X0013542Y0188561D01*
X0016578Y0188561D01*
X0016578Y0185525D01*
X0016578Y0186825D02*
X0013542Y0186825D01*
X0013542Y0188125D02*
X0016578Y0188125D01*
X0028542Y0188561D02*
X0031578Y0188561D01*
X0031578Y0185525D01*
X0028542Y0185525D01*
X0028542Y0188561D01*
X0028542Y0186825D02*
X0031578Y0186825D01*
X0031578Y0188125D02*
X0028542Y0188125D01*
X0028542Y0181656D02*
X0031578Y0181656D01*
X0031578Y0178620D01*
X0028542Y0178620D01*
X0028542Y0181656D01*
X0028542Y0179920D02*
X0031578Y0179920D01*
X0031578Y0181220D02*
X0028542Y0181220D01*
D12*
X0010060Y0138591D03*
X0010060Y0128591D03*
X0010060Y0118591D03*
X0010060Y0108591D03*
X0010060Y0098591D03*
X0010060Y0088591D03*
X0010060Y0078591D03*
X0010060Y0068591D03*
X0010060Y0058591D03*
X0010060Y0048591D03*
X0010060Y0038591D03*
X0010060Y0028591D03*
X0010060Y0018591D03*
X0010060Y0008591D03*
X0197060Y0068591D03*
X0197060Y0078591D03*
X0197060Y0088591D03*
X0197060Y0098591D03*
X0197060Y0108591D03*
X0197060Y0118591D03*
X0197060Y0128591D03*
X0197060Y0138591D03*
D13*
X0145060Y0165244D03*
X0145060Y0171937D03*
X0130060Y0171937D03*
X0130060Y0165244D03*
X0030060Y0165244D03*
X0030060Y0171937D03*
X0015060Y0171937D03*
X0015060Y0165244D03*
X0045060Y0056937D03*
X0045060Y0050244D03*
X0065060Y0050244D03*
X0065060Y0056937D03*
D14*
X0087460Y0058591D02*
X0092660Y0058591D01*
X0092660Y0048591D02*
X0087460Y0048591D01*
X0087460Y0038591D02*
X0092660Y0038591D01*
X0092660Y0028591D02*
X0087460Y0028591D01*
X0117460Y0028591D02*
X0122660Y0028591D01*
X0122660Y0038591D02*
X0117460Y0038591D01*
X0117460Y0048591D02*
X0122660Y0048591D01*
X0122660Y0058591D02*
X0117460Y0058591D01*
X0117460Y0068591D02*
X0122660Y0068591D01*
X0122660Y0078591D02*
X0117460Y0078591D01*
X0117460Y0088591D02*
X0122660Y0088591D01*
X0122660Y0098591D02*
X0117460Y0098591D01*
X0117460Y0108591D02*
X0122660Y0108591D01*
X0122660Y0118591D02*
X0117460Y0118591D01*
X0117460Y0128591D02*
X0122660Y0128591D01*
X0122660Y0138591D02*
X0117460Y0138591D01*
X0117460Y0148591D02*
X0122660Y0148591D01*
X0122660Y0158591D02*
X0117460Y0158591D01*
X0092660Y0158591D02*
X0087460Y0158591D01*
X0087460Y0148591D02*
X0092660Y0148591D01*
X0092660Y0138591D02*
X0087460Y0138591D01*
X0087460Y0128591D02*
X0092660Y0128591D01*
X0092660Y0118591D02*
X0087460Y0118591D01*
X0087460Y0108591D02*
X0092660Y0108591D01*
X0092660Y0098591D02*
X0087460Y0098591D01*
X0087460Y0088591D02*
X0092660Y0088591D01*
X0092660Y0078591D02*
X0087460Y0078591D01*
X0087460Y0068591D02*
X0092660Y0068591D01*
D15*
X0155060Y0078748D03*
X0155060Y0098433D03*
X0050060Y0173748D03*
X0050060Y0193433D03*
D16*
X0065060Y0033433D03*
X0065060Y0013748D03*
X0035060Y0013748D03*
X0035060Y0033433D03*
D17*
X0122186Y0188591D03*
X0130060Y0188591D03*
X0137934Y0188591D03*
D18*
X0145808Y0188591D03*
X0114312Y0188591D03*
D19*
X0181950Y0187016D03*
X0181950Y0158276D03*
D20*
X0171548Y0169496D02*
X0166792Y0169496D01*
X0161674Y0166346D02*
X0156918Y0166346D01*
X0156918Y0172646D02*
X0161674Y0172646D01*
X0166792Y0175795D02*
X0171548Y0175795D01*
X0161674Y0178945D02*
X0156918Y0178945D01*
D21*
X0078406Y0183591D03*
X0071714Y0183591D03*
X0071714Y0193591D03*
X0078406Y0193591D03*
X0073406Y0158591D03*
X0066714Y0158591D03*
X0106714Y0018591D03*
X0113406Y0018591D03*
D22*
X0075060Y0068748D03*
X0075060Y0078591D03*
X0075060Y0088433D03*
D23*
X0090060Y0183591D03*
X0095060Y0191091D03*
X0100060Y0183591D03*
M02*
