G75*
%MOIN*%
%OFA0B0*%
%FSLAX25Y25*%
%IPPOS*%
%LPD*%
%AMOC8*
5,1,8,0,0,1.08239X$1,22.5*
%
%ADD10C,0.00000*%
%ADD11C,0.01181*%
%ADD12R,0.03937X0.04331*%
%ADD13R,0.04331X0.03937*%
D10*
X0005060Y0003591D02*
X0005060Y0200441D01*
X0201910Y0200441D01*
X0201910Y0003591D01*
X0005060Y0003591D01*
D11*
X0013682Y0178760D02*
X0016438Y0178760D01*
X0013682Y0178760D02*
X0013682Y0181516D01*
X0016438Y0181516D01*
X0016438Y0178760D01*
X0016438Y0179940D02*
X0013682Y0179940D01*
X0013682Y0181120D02*
X0016438Y0181120D01*
X0016438Y0185665D02*
X0013682Y0185665D01*
X0013682Y0188421D01*
X0016438Y0188421D01*
X0016438Y0185665D01*
X0016438Y0186845D02*
X0013682Y0186845D01*
X0013682Y0188025D02*
X0016438Y0188025D01*
X0028682Y0188421D02*
X0031438Y0188421D01*
X0031438Y0185665D01*
X0028682Y0185665D01*
X0028682Y0188421D01*
X0028682Y0186845D02*
X0031438Y0186845D01*
X0031438Y0188025D02*
X0028682Y0188025D01*
X0028682Y0181516D02*
X0031438Y0181516D01*
X0031438Y0178760D01*
X0028682Y0178760D01*
X0028682Y0181516D01*
X0028682Y0179940D02*
X0031438Y0179940D01*
X0031438Y0181120D02*
X0028682Y0181120D01*
D12*
X0030060Y0171937D03*
X0030060Y0165244D03*
X0015060Y0165244D03*
X0015060Y0171937D03*
X0045060Y0056937D03*
X0045060Y0050244D03*
X0065060Y0050244D03*
X0065060Y0056937D03*
X0130060Y0165244D03*
X0130060Y0171937D03*
X0145060Y0171937D03*
X0145060Y0165244D03*
D13*
X0078406Y0183591D03*
X0071714Y0183591D03*
X0071714Y0193591D03*
X0078406Y0193591D03*
X0073406Y0158591D03*
X0066714Y0158591D03*
X0106714Y0018591D03*
X0113406Y0018591D03*
M02*
