G75*
%MOIN*%
%OFA0B0*%
%FSLAX25Y25*%
%IPPOS*%
%LPD*%
%AMOC8*
5,1,8,0,0,1.08239X$1,22.5*
%
%ADD10C,0.00000*%
%ADD11C,0.07400*%
%ADD12C,0.05200*%
%ADD13C,0.04362*%
%ADD14C,0.07600*%
%ADD15C,0.05150*%
%ADD16C,0.05937*%
%ADD17C,0.15000*%
%ADD18C,0.04756*%
%ADD19C,0.03969*%
%ADD20OC8,0.05200*%
%ADD21C,0.03562*%
%ADD22C,0.01200*%
%ADD23C,0.01600*%
D10*
X0005060Y0003591D02*
X0005060Y0200441D01*
X0201910Y0200441D01*
X0201910Y0003591D01*
X0005060Y0003591D01*
D11*
X0010060Y0008591D03*
X0010060Y0018591D03*
X0010060Y0028591D03*
X0010060Y0038591D03*
X0010060Y0048591D03*
X0010060Y0058591D03*
X0010060Y0068591D03*
X0010060Y0078591D03*
X0010060Y0088591D03*
X0010060Y0098591D03*
X0010060Y0108591D03*
X0010060Y0118591D03*
X0010060Y0128591D03*
X0010060Y0138591D03*
X0197060Y0138591D03*
X0197060Y0128591D03*
X0197060Y0118591D03*
X0197060Y0108591D03*
X0197060Y0098591D03*
X0197060Y0088591D03*
X0197060Y0078591D03*
X0197060Y0068591D03*
D12*
X0122660Y0068591D02*
X0117460Y0068591D01*
X0117460Y0078591D02*
X0122660Y0078591D01*
X0122660Y0088591D02*
X0117460Y0088591D01*
X0117460Y0098591D02*
X0122660Y0098591D01*
X0122660Y0108591D02*
X0117460Y0108591D01*
X0117460Y0118591D02*
X0122660Y0118591D01*
X0122660Y0128591D02*
X0117460Y0128591D01*
X0117460Y0138591D02*
X0122660Y0138591D01*
X0122660Y0148591D02*
X0117460Y0148591D01*
X0117460Y0158591D02*
X0122660Y0158591D01*
X0092660Y0158591D02*
X0087460Y0158591D01*
X0087460Y0148591D02*
X0092660Y0148591D01*
X0092660Y0138591D02*
X0087460Y0138591D01*
X0087460Y0128591D02*
X0092660Y0128591D01*
X0092660Y0118591D02*
X0087460Y0118591D01*
X0087460Y0108591D02*
X0092660Y0108591D01*
X0092660Y0098591D02*
X0087460Y0098591D01*
X0087460Y0088591D02*
X0092660Y0088591D01*
X0092660Y0078591D02*
X0087460Y0078591D01*
X0087460Y0068591D02*
X0092660Y0068591D01*
X0092660Y0058591D02*
X0087460Y0058591D01*
X0087460Y0048591D02*
X0092660Y0048591D01*
X0092660Y0038591D02*
X0087460Y0038591D01*
X0087460Y0028591D02*
X0092660Y0028591D01*
X0117460Y0028591D02*
X0122660Y0028591D01*
X0122660Y0038591D02*
X0117460Y0038591D01*
X0117460Y0048591D02*
X0122660Y0048591D01*
X0122660Y0058591D02*
X0117460Y0058591D01*
D13*
X0155060Y0078748D03*
X0155060Y0098433D03*
X0050060Y0173748D03*
X0050060Y0193433D03*
D14*
X0065060Y0033433D03*
X0065060Y0013748D03*
X0035060Y0013748D03*
X0035060Y0033433D03*
D15*
X0122186Y0188591D03*
X0130060Y0188591D03*
X0137934Y0188591D03*
D16*
X0145808Y0188591D03*
X0114312Y0188591D03*
D17*
X0181950Y0187016D03*
X0181950Y0158276D03*
D18*
X0171548Y0169496D02*
X0166792Y0169496D01*
X0161674Y0166346D02*
X0156918Y0166346D01*
X0156918Y0172646D02*
X0161674Y0172646D01*
X0166792Y0175795D02*
X0171548Y0175795D01*
X0161674Y0178945D02*
X0156918Y0178945D01*
D19*
X0075060Y0088433D03*
X0075060Y0078591D03*
X0075060Y0068748D03*
D20*
X0090060Y0183591D03*
X0095060Y0191091D03*
X0100060Y0183591D03*
D21*
X0070060Y0118591D03*
X0035060Y0118591D03*
X0035060Y0108591D03*
X0025060Y0083591D03*
X0025060Y0053591D03*
X0055060Y0058591D03*
X0150060Y0103591D03*
X0160060Y0108591D03*
X0160060Y0028591D03*
D22*
X0147060Y0038591D02*
X0197060Y0088591D01*
X0197060Y0098591D02*
X0147060Y0048591D01*
X0120060Y0048591D01*
X0120060Y0058591D02*
X0147060Y0058591D01*
X0197060Y0108591D01*
X0197060Y0118591D02*
X0120060Y0118591D01*
X0120060Y0128591D02*
X0197060Y0128591D01*
X0197060Y0138591D02*
X0120060Y0138591D01*
X0120060Y0148591D02*
X0105060Y0133591D01*
X0105060Y0178591D01*
X0100060Y0183591D01*
X0090060Y0148591D02*
X0080060Y0138591D01*
X0010060Y0138591D01*
X0010060Y0128591D02*
X0080060Y0128591D01*
X0090060Y0138591D01*
X0090060Y0128591D02*
X0035060Y0073591D01*
X0035060Y0053591D01*
X0010060Y0028591D01*
X0010060Y0018591D02*
X0045060Y0053591D01*
X0045060Y0073591D01*
X0090060Y0118591D01*
X0105060Y0133591D02*
X0105060Y0098591D01*
X0095060Y0088591D01*
X0090060Y0088591D01*
X0080060Y0078591D01*
X0075060Y0078591D01*
X0095060Y0088591D02*
X0115060Y0068591D01*
X0120060Y0068591D01*
X0120060Y0078591D02*
X0135217Y0078591D01*
X0155060Y0098433D01*
X0150060Y0103591D02*
X0135060Y0088591D01*
X0120060Y0088591D01*
X0120060Y0098591D02*
X0130060Y0108591D01*
X0160060Y0108591D01*
X0181950Y0158276D02*
X0181950Y0187016D01*
X0070060Y0118591D02*
X0010060Y0058591D01*
X0015060Y0053591D02*
X0010060Y0048591D01*
X0015060Y0053591D02*
X0025060Y0053591D01*
X0025060Y0083591D02*
X0010060Y0098591D01*
X0010060Y0108591D02*
X0035060Y0108591D01*
X0035060Y0118591D02*
X0010060Y0118591D01*
X0055060Y0058591D02*
X0055060Y0043591D01*
X0065060Y0033591D01*
X0065060Y0033433D01*
X0090060Y0058433D01*
X0090060Y0058591D01*
X0120060Y0038591D02*
X0147060Y0038591D01*
D23*
X0148457Y0037159D02*
X0152517Y0037159D01*
X0150919Y0035561D02*
X0125287Y0035561D01*
X0124926Y0035200D02*
X0126051Y0036325D01*
X0126161Y0036591D01*
X0147888Y0036591D01*
X0192708Y0081410D01*
X0191960Y0079605D01*
X0191960Y0077576D01*
X0192245Y0076887D01*
X0146149Y0030791D01*
X0126078Y0030791D01*
X0126051Y0030856D01*
X0124926Y0031982D01*
X0123456Y0032591D01*
X0116664Y0032591D01*
X0115194Y0031982D01*
X0114069Y0030856D01*
X0113460Y0029386D01*
X0113460Y0027795D01*
X0114069Y0026325D01*
X0115194Y0025200D01*
X0116664Y0024591D01*
X0123456Y0024591D01*
X0124926Y0025200D01*
X0126051Y0026325D01*
X0126078Y0026391D01*
X0157761Y0026391D01*
X0158258Y0025894D01*
X0159427Y0025409D01*
X0160693Y0025409D01*
X0161862Y0025894D01*
X0162757Y0026789D01*
X0163241Y0027958D01*
X0163241Y0029223D01*
X0162757Y0030392D01*
X0161862Y0031287D01*
X0160693Y0031772D01*
X0159427Y0031772D01*
X0158258Y0031287D01*
X0157761Y0030791D01*
X0152371Y0030791D01*
X0191809Y0070228D01*
X0191695Y0069878D01*
X0191560Y0069023D01*
X0191560Y0068791D01*
X0196860Y0068791D01*
X0196860Y0068391D01*
X0191560Y0068391D01*
X0191560Y0068158D01*
X0191695Y0067303D01*
X0191963Y0066479D01*
X0192356Y0065708D01*
X0192865Y0065008D01*
X0193477Y0064395D01*
X0194177Y0063887D01*
X0194949Y0063494D01*
X0195772Y0063226D01*
X0196627Y0063091D01*
X0196860Y0063091D01*
X0196860Y0068390D01*
X0197260Y0068390D01*
X0197260Y0063091D01*
X0197493Y0063091D01*
X0198348Y0063226D01*
X0199171Y0063494D01*
X0199943Y0063887D01*
X0200110Y0064008D01*
X0200110Y0005391D01*
X0014072Y0005391D01*
X0014384Y0005702D01*
X0015160Y0007576D01*
X0015160Y0009605D01*
X0014384Y0011479D01*
X0012949Y0012914D01*
X0011316Y0013591D01*
X0012949Y0014267D01*
X0014384Y0015702D01*
X0015160Y0017576D01*
X0015160Y0019605D01*
X0014792Y0020494D01*
X0030634Y0036336D01*
X0029860Y0034467D01*
X0029860Y0032399D01*
X0030652Y0030487D01*
X0032114Y0029025D01*
X0034026Y0028233D01*
X0036094Y0028233D01*
X0038006Y0029025D01*
X0039468Y0030487D01*
X0040260Y0032399D01*
X0040260Y0034467D01*
X0039468Y0036379D01*
X0038006Y0037841D01*
X0036094Y0038633D01*
X0034026Y0038633D01*
X0032157Y0037859D01*
X0045888Y0051591D01*
X0047060Y0052762D01*
X0047060Y0072762D01*
X0083460Y0109162D01*
X0083460Y0107795D01*
X0084069Y0106325D01*
X0085194Y0105200D01*
X0086664Y0104591D01*
X0093456Y0104591D01*
X0094926Y0105200D01*
X0096051Y0106325D01*
X0096660Y0107795D01*
X0096660Y0109386D01*
X0096051Y0110856D01*
X0094926Y0111982D01*
X0093456Y0112591D01*
X0086888Y0112591D01*
X0088888Y0114591D01*
X0093456Y0114591D01*
X0094926Y0115200D01*
X0096051Y0116325D01*
X0096660Y0117795D01*
X0096660Y0119386D01*
X0096051Y0120856D01*
X0094926Y0121982D01*
X0093456Y0122591D01*
X0086888Y0122591D01*
X0088888Y0124591D01*
X0093456Y0124591D01*
X0094926Y0125200D01*
X0096051Y0126325D01*
X0096660Y0127795D01*
X0096660Y0129386D01*
X0096051Y0130856D01*
X0094926Y0131982D01*
X0093456Y0132591D01*
X0086888Y0132591D01*
X0088888Y0134591D01*
X0093456Y0134591D01*
X0094926Y0135200D01*
X0096051Y0136325D01*
X0096660Y0137795D01*
X0096660Y0139386D01*
X0096051Y0140856D01*
X0094926Y0141982D01*
X0093456Y0142591D01*
X0086888Y0142591D01*
X0088888Y0144591D01*
X0093456Y0144591D01*
X0094926Y0145200D01*
X0096051Y0146325D01*
X0096660Y0147795D01*
X0096660Y0149386D01*
X0096051Y0150856D01*
X0094926Y0151982D01*
X0093456Y0152591D01*
X0086664Y0152591D01*
X0085194Y0151982D01*
X0084069Y0150856D01*
X0083460Y0149386D01*
X0083460Y0147795D01*
X0084069Y0146325D01*
X0084517Y0145876D01*
X0079232Y0140591D01*
X0014752Y0140591D01*
X0014384Y0141479D01*
X0012949Y0142914D01*
X0011074Y0143691D01*
X0009046Y0143691D01*
X0007171Y0142914D01*
X0006860Y0142603D01*
X0006860Y0198641D01*
X0200110Y0198641D01*
X0200110Y0142753D01*
X0199949Y0142914D01*
X0198074Y0143691D01*
X0196046Y0143691D01*
X0194171Y0142914D01*
X0192736Y0141479D01*
X0192368Y0140591D01*
X0126161Y0140591D01*
X0126051Y0140856D01*
X0124926Y0141982D01*
X0123456Y0142591D01*
X0116664Y0142591D01*
X0115194Y0141982D01*
X0114069Y0140856D01*
X0113460Y0139386D01*
X0113460Y0137795D01*
X0114069Y0136325D01*
X0115194Y0135200D01*
X0116664Y0134591D01*
X0123456Y0134591D01*
X0124926Y0135200D01*
X0126051Y0136325D01*
X0126161Y0136591D01*
X0192368Y0136591D01*
X0192736Y0135702D01*
X0194171Y0134267D01*
X0195804Y0133591D01*
X0194171Y0132914D01*
X0192736Y0131479D01*
X0192368Y0130591D01*
X0126161Y0130591D01*
X0126051Y0130856D01*
X0124926Y0131982D01*
X0123456Y0132591D01*
X0116664Y0132591D01*
X0115194Y0131982D01*
X0114069Y0130856D01*
X0113460Y0129386D01*
X0113460Y0127795D01*
X0114069Y0126325D01*
X0115194Y0125200D01*
X0116664Y0124591D01*
X0123456Y0124591D01*
X0124926Y0125200D01*
X0126051Y0126325D01*
X0126161Y0126591D01*
X0192368Y0126591D01*
X0192736Y0125702D01*
X0194171Y0124267D01*
X0195804Y0123591D01*
X0194171Y0122914D01*
X0192736Y0121479D01*
X0192368Y0120591D01*
X0126161Y0120591D01*
X0126051Y0120856D01*
X0124926Y0121982D01*
X0123456Y0122591D01*
X0116664Y0122591D01*
X0115194Y0121982D01*
X0114069Y0120856D01*
X0113460Y0119386D01*
X0113460Y0117795D01*
X0114069Y0116325D01*
X0115194Y0115200D01*
X0116664Y0114591D01*
X0123456Y0114591D01*
X0124926Y0115200D01*
X0126051Y0116325D01*
X0126161Y0116591D01*
X0192368Y0116591D01*
X0192736Y0115702D01*
X0194171Y0114267D01*
X0195804Y0113591D01*
X0194171Y0112914D01*
X0192736Y0111479D01*
X0191960Y0109605D01*
X0191960Y0107576D01*
X0192328Y0106687D01*
X0146232Y0060591D01*
X0126161Y0060591D01*
X0126051Y0060856D01*
X0124926Y0061982D01*
X0123456Y0062591D01*
X0116664Y0062591D01*
X0115194Y0061982D01*
X0114069Y0060856D01*
X0113460Y0059386D01*
X0113460Y0057795D01*
X0114069Y0056325D01*
X0115194Y0055200D01*
X0116664Y0054591D01*
X0123456Y0054591D01*
X0124926Y0055200D01*
X0126051Y0056325D01*
X0126161Y0056591D01*
X0147888Y0056591D01*
X0192708Y0101410D01*
X0191960Y0099605D01*
X0191960Y0097576D01*
X0192328Y0096687D01*
X0146232Y0050591D01*
X0126161Y0050591D01*
X0126051Y0050856D01*
X0124926Y0051982D01*
X0123456Y0052591D01*
X0116664Y0052591D01*
X0115194Y0051982D01*
X0114069Y0050856D01*
X0113460Y0049386D01*
X0113460Y0047795D01*
X0114069Y0046325D01*
X0115194Y0045200D01*
X0116664Y0044591D01*
X0123456Y0044591D01*
X0124926Y0045200D01*
X0126051Y0046325D01*
X0126161Y0046591D01*
X0147888Y0046591D01*
X0192708Y0091410D01*
X0191960Y0089605D01*
X0191960Y0087576D01*
X0192328Y0086687D01*
X0146232Y0040591D01*
X0126161Y0040591D01*
X0126051Y0040856D01*
X0124926Y0041982D01*
X0123456Y0042591D01*
X0116664Y0042591D01*
X0115194Y0041982D01*
X0114069Y0040856D01*
X0113460Y0039386D01*
X0113460Y0037795D01*
X0114069Y0036325D01*
X0115194Y0035200D01*
X0116664Y0034591D01*
X0123456Y0034591D01*
X0124926Y0035200D01*
X0124003Y0032364D02*
X0147722Y0032364D01*
X0149320Y0033962D02*
X0070260Y0033962D01*
X0070260Y0034467D02*
X0069868Y0035413D01*
X0083460Y0049005D01*
X0083460Y0047795D01*
X0084069Y0046325D01*
X0085194Y0045200D01*
X0086664Y0044591D01*
X0093456Y0044591D01*
X0094926Y0045200D01*
X0096051Y0046325D01*
X0096660Y0047795D01*
X0096660Y0049386D01*
X0096051Y0050856D01*
X0094926Y0051982D01*
X0093456Y0052591D01*
X0087046Y0052591D01*
X0089046Y0054591D01*
X0093456Y0054591D01*
X0094926Y0055200D01*
X0096051Y0056325D01*
X0096660Y0057795D01*
X0096660Y0059386D01*
X0096051Y0060856D01*
X0094926Y0061982D01*
X0093456Y0062591D01*
X0086664Y0062591D01*
X0085194Y0061982D01*
X0084069Y0060856D01*
X0083460Y0059386D01*
X0083460Y0057795D01*
X0084069Y0056325D01*
X0084596Y0055798D01*
X0067040Y0038241D01*
X0066094Y0038633D01*
X0064026Y0038633D01*
X0063191Y0038288D01*
X0057060Y0044419D01*
X0057060Y0056092D01*
X0057757Y0056789D01*
X0058241Y0057958D01*
X0058241Y0059223D01*
X0057757Y0060392D01*
X0056862Y0061287D01*
X0055693Y0061772D01*
X0054427Y0061772D01*
X0053258Y0061287D01*
X0052363Y0060392D01*
X0051879Y0059223D01*
X0051879Y0057958D01*
X0052363Y0056789D01*
X0053060Y0056092D01*
X0053060Y0042762D01*
X0054232Y0041591D01*
X0060298Y0035524D01*
X0059860Y0034467D01*
X0059860Y0032399D01*
X0060652Y0030487D01*
X0062114Y0029025D01*
X0064026Y0028233D01*
X0066094Y0028233D01*
X0068006Y0029025D01*
X0069468Y0030487D01*
X0070260Y0032399D01*
X0070260Y0034467D01*
X0070016Y0035561D02*
X0084833Y0035561D01*
X0085194Y0035200D02*
X0086664Y0034591D01*
X0093456Y0034591D01*
X0094926Y0035200D01*
X0096051Y0036325D01*
X0096660Y0037795D01*
X0096660Y0039386D01*
X0096051Y0040856D01*
X0094926Y0041982D01*
X0093456Y0042591D01*
X0086664Y0042591D01*
X0085194Y0041982D01*
X0084069Y0040856D01*
X0083460Y0039386D01*
X0083460Y0037795D01*
X0084069Y0036325D01*
X0085194Y0035200D01*
X0083723Y0037159D02*
X0071615Y0037159D01*
X0073213Y0038758D02*
X0083460Y0038758D01*
X0083862Y0040356D02*
X0074812Y0040356D01*
X0076410Y0041955D02*
X0085167Y0041955D01*
X0085309Y0045152D02*
X0079607Y0045152D01*
X0078009Y0043553D02*
X0149194Y0043553D01*
X0147596Y0041955D02*
X0124953Y0041955D01*
X0124811Y0045152D02*
X0150793Y0045152D01*
X0152391Y0046750D02*
X0148048Y0046750D01*
X0149647Y0048349D02*
X0153990Y0048349D01*
X0155588Y0049947D02*
X0151245Y0049947D01*
X0152844Y0051546D02*
X0157187Y0051546D01*
X0158785Y0053144D02*
X0154442Y0053144D01*
X0156041Y0054743D02*
X0160384Y0054743D01*
X0161982Y0056341D02*
X0157639Y0056341D01*
X0159238Y0057940D02*
X0163581Y0057940D01*
X0165179Y0059538D02*
X0160836Y0059538D01*
X0162435Y0061137D02*
X0166778Y0061137D01*
X0168377Y0062735D02*
X0164033Y0062735D01*
X0165632Y0064334D02*
X0169975Y0064334D01*
X0171574Y0065932D02*
X0167230Y0065932D01*
X0168829Y0067531D02*
X0173172Y0067531D01*
X0174771Y0069130D02*
X0170427Y0069130D01*
X0172026Y0070728D02*
X0176369Y0070728D01*
X0177968Y0072327D02*
X0173624Y0072327D01*
X0175223Y0073925D02*
X0179566Y0073925D01*
X0181165Y0075524D02*
X0176821Y0075524D01*
X0178420Y0077122D02*
X0182763Y0077122D01*
X0184362Y0078721D02*
X0180018Y0078721D01*
X0181617Y0080319D02*
X0185960Y0080319D01*
X0187559Y0081918D02*
X0183215Y0081918D01*
X0184814Y0083516D02*
X0189157Y0083516D01*
X0190756Y0085115D02*
X0186412Y0085115D01*
X0188011Y0086713D02*
X0192317Y0086713D01*
X0191960Y0088312D02*
X0189609Y0088312D01*
X0191208Y0089910D02*
X0192086Y0089910D01*
X0188748Y0093107D02*
X0184405Y0093107D01*
X0182807Y0091509D02*
X0187150Y0091509D01*
X0185551Y0089910D02*
X0181208Y0089910D01*
X0179609Y0088312D02*
X0183953Y0088312D01*
X0182354Y0086713D02*
X0178011Y0086713D01*
X0176412Y0085115D02*
X0180756Y0085115D01*
X0179157Y0083516D02*
X0174814Y0083516D01*
X0173215Y0081918D02*
X0177559Y0081918D01*
X0175960Y0080319D02*
X0171617Y0080319D01*
X0170018Y0078721D02*
X0174362Y0078721D01*
X0172763Y0077122D02*
X0168420Y0077122D01*
X0166821Y0075524D02*
X0171165Y0075524D01*
X0169566Y0073925D02*
X0165223Y0073925D01*
X0163624Y0072327D02*
X0167968Y0072327D01*
X0166369Y0070728D02*
X0162026Y0070728D01*
X0160427Y0069130D02*
X0164771Y0069130D01*
X0163172Y0067531D02*
X0158829Y0067531D01*
X0157230Y0065932D02*
X0161574Y0065932D01*
X0159975Y0064334D02*
X0155632Y0064334D01*
X0154033Y0062735D02*
X0158377Y0062735D01*
X0156778Y0061137D02*
X0152435Y0061137D01*
X0150836Y0059538D02*
X0155179Y0059538D01*
X0153581Y0057940D02*
X0149238Y0057940D01*
X0151982Y0056341D02*
X0126058Y0056341D01*
X0123823Y0054743D02*
X0150384Y0054743D01*
X0148785Y0053144D02*
X0087600Y0053144D01*
X0083541Y0054743D02*
X0057060Y0054743D01*
X0057060Y0053144D02*
X0081943Y0053144D01*
X0080344Y0051546D02*
X0057060Y0051546D01*
X0057060Y0049947D02*
X0078746Y0049947D01*
X0077147Y0048349D02*
X0057060Y0048349D01*
X0057060Y0046750D02*
X0075549Y0046750D01*
X0073950Y0045152D02*
X0057060Y0045152D01*
X0057926Y0043553D02*
X0072352Y0043553D01*
X0070753Y0041955D02*
X0059524Y0041955D01*
X0061123Y0040356D02*
X0069155Y0040356D01*
X0067556Y0038758D02*
X0062721Y0038758D01*
X0060261Y0035561D02*
X0039807Y0035561D01*
X0040260Y0033962D02*
X0059860Y0033962D01*
X0059874Y0032364D02*
X0040245Y0032364D01*
X0039583Y0030765D02*
X0060537Y0030765D01*
X0061972Y0029167D02*
X0038148Y0029167D01*
X0031972Y0029167D02*
X0023465Y0029167D01*
X0025063Y0030765D02*
X0030537Y0030765D01*
X0029874Y0032364D02*
X0026662Y0032364D01*
X0028260Y0033962D02*
X0029860Y0033962D01*
X0029859Y0035561D02*
X0030313Y0035561D01*
X0033056Y0038758D02*
X0057064Y0038758D01*
X0055466Y0040356D02*
X0034654Y0040356D01*
X0036253Y0041955D02*
X0053867Y0041955D01*
X0053060Y0043553D02*
X0037851Y0043553D01*
X0039450Y0045152D02*
X0053060Y0045152D01*
X0053060Y0046750D02*
X0041048Y0046750D01*
X0042647Y0048349D02*
X0053060Y0048349D01*
X0053060Y0049947D02*
X0044245Y0049947D01*
X0045844Y0051546D02*
X0053060Y0051546D01*
X0053060Y0053144D02*
X0047060Y0053144D01*
X0047060Y0054743D02*
X0053060Y0054743D01*
X0052810Y0056341D02*
X0047060Y0056341D01*
X0047060Y0057940D02*
X0051886Y0057940D01*
X0052009Y0059538D02*
X0047060Y0059538D01*
X0047060Y0061137D02*
X0053108Y0061137D01*
X0057012Y0061137D02*
X0084350Y0061137D01*
X0083523Y0059538D02*
X0058111Y0059538D01*
X0058234Y0057940D02*
X0083460Y0057940D01*
X0084062Y0056341D02*
X0057310Y0056341D01*
X0047060Y0062735D02*
X0148377Y0062735D01*
X0149975Y0064334D02*
X0123798Y0064334D01*
X0123690Y0064299D02*
X0124349Y0064513D01*
X0124966Y0064827D01*
X0125526Y0065234D01*
X0126016Y0065724D01*
X0126423Y0066284D01*
X0126738Y0066902D01*
X0126952Y0067560D01*
X0127060Y0068244D01*
X0127060Y0068590D01*
X0120060Y0068590D01*
X0120060Y0064191D01*
X0123006Y0064191D01*
X0123690Y0064299D01*
X0126167Y0065932D02*
X0151574Y0065932D01*
X0153172Y0067531D02*
X0126942Y0067531D01*
X0127060Y0068591D02*
X0127060Y0068937D01*
X0126952Y0069621D01*
X0126738Y0070280D01*
X0126423Y0070897D01*
X0126016Y0071457D01*
X0125526Y0071947D01*
X0124966Y0072354D01*
X0124349Y0072668D01*
X0123690Y0072882D01*
X0123006Y0072991D01*
X0120060Y0072991D01*
X0117114Y0072991D01*
X0116430Y0072882D01*
X0115771Y0072668D01*
X0115154Y0072354D01*
X0114594Y0071947D01*
X0114104Y0071457D01*
X0113697Y0070897D01*
X0113382Y0070280D01*
X0113168Y0069621D01*
X0113060Y0068937D01*
X0113060Y0068591D01*
X0120060Y0068591D01*
X0120060Y0072991D01*
X0120060Y0068591D01*
X0120060Y0068591D01*
X0127060Y0068591D01*
X0127029Y0069130D02*
X0154771Y0069130D01*
X0156369Y0070728D02*
X0126509Y0070728D01*
X0125004Y0072327D02*
X0157968Y0072327D01*
X0159566Y0073925D02*
X0048223Y0073925D01*
X0047060Y0072327D02*
X0086027Y0072327D01*
X0086664Y0072591D02*
X0085194Y0071982D01*
X0084069Y0070856D01*
X0083460Y0069386D01*
X0083460Y0067795D01*
X0084069Y0066325D01*
X0085194Y0065200D01*
X0086664Y0064591D01*
X0093456Y0064591D01*
X0094926Y0065200D01*
X0096051Y0066325D01*
X0096660Y0067795D01*
X0096660Y0069386D01*
X0096051Y0070856D01*
X0094926Y0071982D01*
X0093456Y0072591D01*
X0086664Y0072591D01*
X0086664Y0074591D02*
X0093456Y0074591D01*
X0094926Y0075200D01*
X0096051Y0076325D01*
X0096660Y0077795D01*
X0096660Y0079386D01*
X0096051Y0080856D01*
X0094926Y0081982D01*
X0093456Y0082591D01*
X0086664Y0082591D01*
X0085194Y0081982D01*
X0084069Y0080856D01*
X0083460Y0079386D01*
X0083460Y0077795D01*
X0084069Y0076325D01*
X0085194Y0075200D01*
X0086664Y0074591D01*
X0084870Y0075524D02*
X0077281Y0075524D01*
X0077472Y0075651D02*
X0076852Y0075237D01*
X0076164Y0074952D01*
X0075433Y0074806D01*
X0075060Y0074806D01*
X0075060Y0078590D01*
X0075060Y0078590D01*
X0075060Y0074806D01*
X0074687Y0074806D01*
X0073956Y0074952D01*
X0073267Y0075237D01*
X0072648Y0075651D01*
X0072121Y0076178D01*
X0071706Y0076798D01*
X0071421Y0077487D01*
X0071276Y0078218D01*
X0071276Y0078590D01*
X0075060Y0078590D01*
X0075060Y0078591D01*
X0075060Y0082375D01*
X0074687Y0082375D01*
X0073956Y0082229D01*
X0073267Y0081944D01*
X0072648Y0081530D01*
X0072121Y0081003D01*
X0071706Y0080383D01*
X0071421Y0079694D01*
X0071276Y0078963D01*
X0071276Y0078591D01*
X0075060Y0078591D01*
X0075060Y0078591D01*
X0075060Y0082375D01*
X0075433Y0082375D01*
X0076164Y0082229D01*
X0076852Y0081944D01*
X0077472Y0081530D01*
X0077999Y0081003D01*
X0078414Y0080383D01*
X0078699Y0079694D01*
X0078844Y0078963D01*
X0078844Y0078591D01*
X0075060Y0078591D01*
X0075060Y0078590D01*
X0078844Y0078590D01*
X0078844Y0078218D01*
X0078699Y0077487D01*
X0078414Y0076798D01*
X0077999Y0076178D01*
X0077472Y0075651D01*
X0078548Y0077122D02*
X0083739Y0077122D01*
X0083460Y0078721D02*
X0078844Y0078721D01*
X0078440Y0080319D02*
X0083846Y0080319D01*
X0085130Y0081918D02*
X0076892Y0081918D01*
X0075060Y0081918D02*
X0075060Y0081918D01*
X0075060Y0080319D02*
X0075060Y0080319D01*
X0075060Y0078721D02*
X0075060Y0078721D01*
X0075060Y0077122D02*
X0075060Y0077122D01*
X0075060Y0075524D02*
X0075060Y0075524D01*
X0072839Y0075524D02*
X0049821Y0075524D01*
X0051420Y0077122D02*
X0071572Y0077122D01*
X0071276Y0078721D02*
X0053018Y0078721D01*
X0054617Y0080319D02*
X0071680Y0080319D01*
X0073228Y0081918D02*
X0056215Y0081918D01*
X0057814Y0083516D02*
X0137315Y0083516D01*
X0138913Y0085115D02*
X0124721Y0085115D01*
X0124926Y0085200D02*
X0126051Y0086325D01*
X0126161Y0086591D01*
X0135888Y0086591D01*
X0149707Y0100409D01*
X0150693Y0100409D01*
X0151862Y0100894D01*
X0152757Y0101789D01*
X0153241Y0102958D01*
X0153241Y0104223D01*
X0152757Y0105392D01*
X0151862Y0106287D01*
X0151130Y0106591D01*
X0157561Y0106591D01*
X0158258Y0105894D01*
X0159427Y0105409D01*
X0160693Y0105409D01*
X0161862Y0105894D01*
X0162757Y0106789D01*
X0163241Y0107958D01*
X0163241Y0109223D01*
X0162757Y0110392D01*
X0161862Y0111287D01*
X0160693Y0111772D01*
X0159427Y0111772D01*
X0158258Y0111287D01*
X0157561Y0110591D01*
X0129232Y0110591D01*
X0126660Y0108019D01*
X0126660Y0109386D01*
X0126051Y0110856D01*
X0124926Y0111982D01*
X0123456Y0112591D01*
X0116664Y0112591D01*
X0115194Y0111982D01*
X0114069Y0110856D01*
X0113460Y0109386D01*
X0113460Y0107795D01*
X0114069Y0106325D01*
X0115194Y0105200D01*
X0116664Y0104591D01*
X0123232Y0104591D01*
X0121232Y0102591D01*
X0116664Y0102591D01*
X0115194Y0101982D01*
X0114069Y0100856D01*
X0113460Y0099386D01*
X0113460Y0097795D01*
X0114069Y0096325D01*
X0115194Y0095200D01*
X0116664Y0094591D01*
X0123456Y0094591D01*
X0124926Y0095200D01*
X0126051Y0096325D01*
X0126660Y0097795D01*
X0126660Y0099386D01*
X0126051Y0100856D01*
X0125603Y0101305D01*
X0130888Y0106591D01*
X0148990Y0106591D01*
X0148258Y0106287D01*
X0147363Y0105392D01*
X0146879Y0104223D01*
X0146879Y0103238D01*
X0134232Y0090591D01*
X0126161Y0090591D01*
X0126051Y0090856D01*
X0124926Y0091982D01*
X0123456Y0092591D01*
X0116664Y0092591D01*
X0115194Y0091982D01*
X0114069Y0090856D01*
X0113460Y0089386D01*
X0113460Y0087795D01*
X0114069Y0086325D01*
X0115194Y0085200D01*
X0116664Y0084591D01*
X0123456Y0084591D01*
X0124926Y0085200D01*
X0123456Y0082591D02*
X0116664Y0082591D01*
X0115194Y0081982D01*
X0114069Y0080856D01*
X0113460Y0079386D01*
X0113460Y0077795D01*
X0114069Y0076325D01*
X0115194Y0075200D01*
X0116664Y0074591D01*
X0123456Y0074591D01*
X0124926Y0075200D01*
X0126051Y0076325D01*
X0126161Y0076591D01*
X0136046Y0076591D01*
X0154319Y0094864D01*
X0154348Y0094852D01*
X0155772Y0094852D01*
X0157089Y0095397D01*
X0158096Y0096405D01*
X0158641Y0097721D01*
X0158641Y0099145D01*
X0158096Y0100462D01*
X0157089Y0101469D01*
X0155772Y0102014D01*
X0154348Y0102014D01*
X0153031Y0101469D01*
X0152024Y0100462D01*
X0151479Y0099145D01*
X0151479Y0097721D01*
X0151491Y0097692D01*
X0134389Y0080591D01*
X0126161Y0080591D01*
X0126051Y0080856D01*
X0124926Y0081982D01*
X0123456Y0082591D01*
X0124990Y0081918D02*
X0135716Y0081918D01*
X0138176Y0078721D02*
X0151079Y0078721D01*
X0151079Y0078748D02*
X0151079Y0078356D01*
X0151232Y0077587D01*
X0151532Y0076862D01*
X0151968Y0076210D01*
X0152522Y0075656D01*
X0153174Y0075220D01*
X0153899Y0074920D01*
X0154668Y0074767D01*
X0155060Y0074767D01*
X0155452Y0074767D01*
X0156221Y0074920D01*
X0156946Y0075220D01*
X0157598Y0075656D01*
X0158152Y0076210D01*
X0158588Y0076862D01*
X0158888Y0077587D01*
X0159041Y0078356D01*
X0159041Y0078748D01*
X0155060Y0078748D01*
X0155060Y0074767D01*
X0155060Y0078748D01*
X0155060Y0078748D01*
X0155060Y0078748D01*
X0159041Y0078748D01*
X0159041Y0079140D01*
X0158888Y0079909D01*
X0158588Y0080634D01*
X0158152Y0081286D01*
X0157598Y0081840D01*
X0156946Y0082276D01*
X0156221Y0082576D01*
X0155452Y0082729D01*
X0155060Y0082729D01*
X0155060Y0078748D01*
X0151079Y0078748D01*
X0155060Y0078748D01*
X0155060Y0078748D01*
X0155060Y0078748D01*
X0155060Y0082729D01*
X0154668Y0082729D01*
X0153899Y0082576D01*
X0153174Y0082276D01*
X0152522Y0081840D01*
X0151968Y0081286D01*
X0151532Y0080634D01*
X0151232Y0079909D01*
X0151079Y0079140D01*
X0151079Y0078748D01*
X0151402Y0080319D02*
X0139774Y0080319D01*
X0141373Y0081918D02*
X0152638Y0081918D01*
X0155060Y0081918D02*
X0155060Y0081918D01*
X0155060Y0080319D02*
X0155060Y0080319D01*
X0155060Y0078721D02*
X0155060Y0078721D01*
X0155060Y0077122D02*
X0155060Y0077122D01*
X0155060Y0075524D02*
X0155060Y0075524D01*
X0152720Y0075524D02*
X0125250Y0075524D01*
X0120060Y0072327D02*
X0120060Y0072327D01*
X0120060Y0070728D02*
X0120060Y0070728D01*
X0120060Y0069130D02*
X0120060Y0069130D01*
X0120060Y0068591D02*
X0120060Y0068590D01*
X0120060Y0068590D01*
X0120060Y0064191D01*
X0117114Y0064191D01*
X0116430Y0064299D01*
X0115771Y0064513D01*
X0115154Y0064827D01*
X0114594Y0065234D01*
X0114104Y0065724D01*
X0113697Y0066284D01*
X0113382Y0066902D01*
X0113168Y0067560D01*
X0113060Y0068244D01*
X0113060Y0068590D01*
X0120060Y0068590D01*
X0120060Y0068591D01*
X0120060Y0067531D02*
X0120060Y0067531D01*
X0120060Y0065932D02*
X0120060Y0065932D01*
X0120060Y0064334D02*
X0120060Y0064334D01*
X0116322Y0064334D02*
X0047060Y0064334D01*
X0047060Y0065932D02*
X0073089Y0065932D01*
X0073143Y0065879D02*
X0074387Y0065364D01*
X0075733Y0065364D01*
X0076977Y0065879D01*
X0077929Y0066831D01*
X0078444Y0068075D01*
X0078444Y0069421D01*
X0077929Y0070665D01*
X0076977Y0071617D01*
X0075733Y0072132D01*
X0074387Y0072132D01*
X0073143Y0071617D01*
X0072191Y0070665D01*
X0071676Y0069421D01*
X0071676Y0068075D01*
X0072191Y0066831D01*
X0073143Y0065879D01*
X0071901Y0067531D02*
X0047060Y0067531D01*
X0047060Y0069130D02*
X0071676Y0069130D01*
X0072254Y0070728D02*
X0047060Y0070728D01*
X0037362Y0078721D02*
X0033018Y0078721D01*
X0031420Y0077122D02*
X0035763Y0077122D01*
X0034165Y0075524D02*
X0029821Y0075524D01*
X0028223Y0073925D02*
X0033060Y0073925D01*
X0033060Y0074419D02*
X0033060Y0054419D01*
X0015175Y0036534D01*
X0015425Y0037303D01*
X0015560Y0038158D01*
X0015560Y0038391D01*
X0010260Y0038391D01*
X0010260Y0038791D01*
X0015560Y0038791D01*
X0015560Y0039023D01*
X0015425Y0039878D01*
X0015157Y0040702D01*
X0014764Y0041473D01*
X0014255Y0042174D01*
X0013643Y0042786D01*
X0012943Y0043295D01*
X0012171Y0043688D01*
X0011823Y0043801D01*
X0012949Y0044267D01*
X0014384Y0045702D01*
X0015160Y0047576D01*
X0015160Y0049605D01*
X0014792Y0050494D01*
X0015888Y0051591D01*
X0022561Y0051591D01*
X0023258Y0050894D01*
X0024427Y0050409D01*
X0025693Y0050409D01*
X0026862Y0050894D01*
X0027757Y0051789D01*
X0028241Y0052958D01*
X0028241Y0054223D01*
X0027757Y0055392D01*
X0026862Y0056287D01*
X0025693Y0056772D01*
X0024427Y0056772D01*
X0023258Y0056287D01*
X0022561Y0055591D01*
X0014272Y0055591D01*
X0014384Y0055702D01*
X0015160Y0057576D01*
X0015160Y0059605D01*
X0014792Y0060494D01*
X0069707Y0115409D01*
X0070693Y0115409D01*
X0071862Y0115894D01*
X0072757Y0116789D01*
X0073241Y0117958D01*
X0073241Y0119223D01*
X0072757Y0120392D01*
X0071862Y0121287D01*
X0070693Y0121772D01*
X0069427Y0121772D01*
X0068258Y0121287D01*
X0067363Y0120392D01*
X0066879Y0119223D01*
X0066879Y0118238D01*
X0015175Y0066534D01*
X0015425Y0067303D01*
X0015560Y0068158D01*
X0015560Y0068391D01*
X0010260Y0068391D01*
X0010260Y0068791D01*
X0015560Y0068791D01*
X0015560Y0069023D01*
X0015425Y0069878D01*
X0015157Y0070702D01*
X0014764Y0071473D01*
X0014255Y0072174D01*
X0013643Y0072786D01*
X0012943Y0073295D01*
X0012171Y0073688D01*
X0011823Y0073801D01*
X0012949Y0074267D01*
X0014384Y0075702D01*
X0015160Y0077576D01*
X0015160Y0079605D01*
X0014384Y0081479D01*
X0012949Y0082914D01*
X0011316Y0083591D01*
X0012949Y0084267D01*
X0014384Y0085702D01*
X0015160Y0087576D01*
X0015160Y0089605D01*
X0014412Y0091410D01*
X0021879Y0083943D01*
X0021879Y0082958D01*
X0022363Y0081789D01*
X0023258Y0080894D01*
X0024427Y0080409D01*
X0025693Y0080409D01*
X0026862Y0080894D01*
X0027757Y0081789D01*
X0028241Y0082958D01*
X0028241Y0084223D01*
X0027757Y0085392D01*
X0026862Y0086287D01*
X0025693Y0086772D01*
X0024707Y0086772D01*
X0014792Y0096687D01*
X0015160Y0097576D01*
X0015160Y0099605D01*
X0014384Y0101479D01*
X0012949Y0102914D01*
X0011316Y0103591D01*
X0012949Y0104267D01*
X0014384Y0105702D01*
X0014752Y0106591D01*
X0032561Y0106591D01*
X0033258Y0105894D01*
X0034427Y0105409D01*
X0035693Y0105409D01*
X0036862Y0105894D01*
X0037757Y0106789D01*
X0038241Y0107958D01*
X0038241Y0109223D01*
X0037757Y0110392D01*
X0036862Y0111287D01*
X0035693Y0111772D01*
X0034427Y0111772D01*
X0033258Y0111287D01*
X0032561Y0110591D01*
X0014752Y0110591D01*
X0014384Y0111479D01*
X0012949Y0112914D01*
X0011316Y0113591D01*
X0012949Y0114267D01*
X0014384Y0115702D01*
X0014752Y0116591D01*
X0032561Y0116591D01*
X0033258Y0115894D01*
X0034427Y0115409D01*
X0035693Y0115409D01*
X0036862Y0115894D01*
X0037757Y0116789D01*
X0038241Y0117958D01*
X0038241Y0119223D01*
X0037757Y0120392D01*
X0036862Y0121287D01*
X0035693Y0121772D01*
X0034427Y0121772D01*
X0033258Y0121287D01*
X0032561Y0120591D01*
X0014752Y0120591D01*
X0014384Y0121479D01*
X0012949Y0122914D01*
X0011316Y0123591D01*
X0012949Y0124267D01*
X0014384Y0125702D01*
X0014752Y0126591D01*
X0080888Y0126591D01*
X0083460Y0129162D01*
X0083460Y0127795D01*
X0084069Y0126325D01*
X0084517Y0125876D01*
X0033060Y0074419D01*
X0033060Y0072327D02*
X0026624Y0072327D01*
X0025026Y0070728D02*
X0033060Y0070728D01*
X0033060Y0069130D02*
X0023427Y0069130D01*
X0021829Y0067531D02*
X0033060Y0067531D01*
X0033060Y0065932D02*
X0020230Y0065932D01*
X0018632Y0064334D02*
X0033060Y0064334D01*
X0033060Y0062735D02*
X0017033Y0062735D01*
X0015435Y0061137D02*
X0033060Y0061137D01*
X0033060Y0059538D02*
X0015160Y0059538D01*
X0015160Y0057940D02*
X0033060Y0057940D01*
X0033060Y0056341D02*
X0026731Y0056341D01*
X0028026Y0054743D02*
X0033060Y0054743D01*
X0031785Y0053144D02*
X0028241Y0053144D01*
X0027514Y0051546D02*
X0030187Y0051546D01*
X0028588Y0049947D02*
X0015018Y0049947D01*
X0015160Y0048349D02*
X0026990Y0048349D01*
X0025391Y0046750D02*
X0014818Y0046750D01*
X0013834Y0045152D02*
X0023793Y0045152D01*
X0022194Y0043553D02*
X0012435Y0043553D01*
X0014414Y0041955D02*
X0020596Y0041955D01*
X0018997Y0040356D02*
X0015269Y0040356D01*
X0017399Y0038758D02*
X0010260Y0038758D01*
X0015378Y0037159D02*
X0015800Y0037159D01*
X0021866Y0027568D02*
X0083554Y0027568D01*
X0083460Y0027795D02*
X0084069Y0026325D01*
X0085194Y0025200D01*
X0086664Y0024591D01*
X0093456Y0024591D01*
X0094926Y0025200D01*
X0096051Y0026325D01*
X0096660Y0027795D01*
X0096660Y0029386D01*
X0096051Y0030856D01*
X0094926Y0031982D01*
X0093456Y0032591D01*
X0086664Y0032591D01*
X0085194Y0031982D01*
X0084069Y0030856D01*
X0083460Y0029386D01*
X0083460Y0027795D01*
X0083460Y0029167D02*
X0068148Y0029167D01*
X0069583Y0030765D02*
X0084031Y0030765D01*
X0086117Y0032364D02*
X0070245Y0032364D01*
X0058663Y0037159D02*
X0038688Y0037159D01*
X0035501Y0019348D02*
X0035244Y0019348D01*
X0035244Y0013932D01*
X0040660Y0013932D01*
X0040660Y0014189D01*
X0040522Y0015059D01*
X0040250Y0015898D01*
X0039850Y0016683D01*
X0039331Y0017396D01*
X0038708Y0018019D01*
X0037995Y0018538D01*
X0037210Y0018938D01*
X0036371Y0019210D01*
X0035501Y0019348D01*
X0034876Y0019348D02*
X0034619Y0019348D01*
X0033749Y0019210D01*
X0032910Y0018938D01*
X0032125Y0018538D01*
X0031412Y0018019D01*
X0030789Y0017396D01*
X0030270Y0016683D01*
X0029870Y0015898D01*
X0029598Y0015059D01*
X0029460Y0014189D01*
X0029460Y0013932D01*
X0034876Y0013932D01*
X0034876Y0013564D01*
X0035244Y0013564D01*
X0035244Y0013932D01*
X0034876Y0013932D01*
X0034876Y0019348D01*
X0034876Y0017977D02*
X0035244Y0017977D01*
X0035244Y0016379D02*
X0034876Y0016379D01*
X0034876Y0014780D02*
X0035244Y0014780D01*
X0035244Y0013564D02*
X0040660Y0013564D01*
X0040660Y0013307D01*
X0040522Y0012437D01*
X0040250Y0011598D01*
X0039850Y0010813D01*
X0039331Y0010100D01*
X0038708Y0009477D01*
X0037995Y0008958D01*
X0037210Y0008558D01*
X0036371Y0008286D01*
X0035501Y0008148D01*
X0035244Y0008148D01*
X0035244Y0013564D01*
X0034876Y0013564D02*
X0034876Y0008148D01*
X0034619Y0008148D01*
X0033749Y0008286D01*
X0032910Y0008558D01*
X0032125Y0008958D01*
X0031412Y0009477D01*
X0030789Y0010100D01*
X0030270Y0010813D01*
X0029870Y0011598D01*
X0029598Y0012437D01*
X0029460Y0013307D01*
X0029460Y0013564D01*
X0034876Y0013564D01*
X0034876Y0013182D02*
X0035244Y0013182D01*
X0035244Y0011583D02*
X0034876Y0011583D01*
X0034876Y0009985D02*
X0035244Y0009985D01*
X0035244Y0008386D02*
X0034876Y0008386D01*
X0033440Y0008386D02*
X0015160Y0008386D01*
X0015003Y0009985D02*
X0030904Y0009985D01*
X0029878Y0011583D02*
X0014280Y0011583D01*
X0012303Y0013182D02*
X0029480Y0013182D01*
X0029554Y0014780D02*
X0013462Y0014780D01*
X0014664Y0016379D02*
X0030115Y0016379D01*
X0031370Y0017977D02*
X0015160Y0017977D01*
X0015160Y0019576D02*
X0200110Y0019576D01*
X0200110Y0021174D02*
X0015472Y0021174D01*
X0017071Y0022773D02*
X0200110Y0022773D01*
X0200110Y0024371D02*
X0018669Y0024371D01*
X0020268Y0025970D02*
X0084424Y0025970D01*
X0094003Y0032364D02*
X0116117Y0032364D01*
X0114031Y0030765D02*
X0096089Y0030765D01*
X0096660Y0029167D02*
X0113460Y0029167D01*
X0113554Y0027568D02*
X0096566Y0027568D01*
X0095696Y0025970D02*
X0114424Y0025970D01*
X0120060Y0028591D02*
X0147060Y0028591D01*
X0160060Y0028591D01*
X0162384Y0030765D02*
X0200110Y0030765D01*
X0200110Y0029167D02*
X0163241Y0029167D01*
X0163080Y0027568D02*
X0200110Y0027568D01*
X0200110Y0025970D02*
X0161938Y0025970D01*
X0158182Y0025970D02*
X0125696Y0025970D01*
X0114833Y0035561D02*
X0095287Y0035561D01*
X0096397Y0037159D02*
X0113723Y0037159D01*
X0113460Y0038758D02*
X0096660Y0038758D01*
X0096258Y0040356D02*
X0113862Y0040356D01*
X0115167Y0041955D02*
X0094953Y0041955D01*
X0094811Y0045152D02*
X0115309Y0045152D01*
X0113893Y0046750D02*
X0096227Y0046750D01*
X0096660Y0048349D02*
X0113460Y0048349D01*
X0113692Y0049947D02*
X0096428Y0049947D01*
X0095361Y0051546D02*
X0114758Y0051546D01*
X0116296Y0054743D02*
X0093823Y0054743D01*
X0096058Y0056341D02*
X0114062Y0056341D01*
X0113460Y0057940D02*
X0096660Y0057940D01*
X0096597Y0059538D02*
X0113523Y0059538D01*
X0114350Y0061137D02*
X0095770Y0061137D01*
X0095659Y0065932D02*
X0113952Y0065932D01*
X0113178Y0067531D02*
X0096551Y0067531D01*
X0096660Y0069130D02*
X0113091Y0069130D01*
X0113611Y0070728D02*
X0096104Y0070728D01*
X0094093Y0072327D02*
X0115116Y0072327D01*
X0114870Y0075524D02*
X0095250Y0075524D01*
X0096381Y0077122D02*
X0113739Y0077122D01*
X0113460Y0078721D02*
X0096660Y0078721D01*
X0096274Y0080319D02*
X0113846Y0080319D01*
X0115130Y0081918D02*
X0094990Y0081918D01*
X0094349Y0084513D02*
X0094966Y0084827D01*
X0095526Y0085234D01*
X0096016Y0085724D01*
X0096423Y0086284D01*
X0096738Y0086902D01*
X0096952Y0087560D01*
X0097060Y0088244D01*
X0097060Y0088590D01*
X0090060Y0088590D01*
X0090060Y0084191D01*
X0093006Y0084191D01*
X0093690Y0084299D01*
X0094349Y0084513D01*
X0095362Y0085115D02*
X0115399Y0085115D01*
X0113908Y0086713D02*
X0096642Y0086713D01*
X0097060Y0088312D02*
X0113460Y0088312D01*
X0113677Y0089910D02*
X0096858Y0089910D01*
X0096952Y0089621D02*
X0096738Y0090280D01*
X0096423Y0090897D01*
X0096016Y0091457D01*
X0095526Y0091947D01*
X0094966Y0092354D01*
X0094349Y0092668D01*
X0093690Y0092882D01*
X0093006Y0092991D01*
X0090060Y0092991D01*
X0087114Y0092991D01*
X0086430Y0092882D01*
X0085771Y0092668D01*
X0085154Y0092354D01*
X0084594Y0091947D01*
X0084104Y0091457D01*
X0083697Y0090897D01*
X0083382Y0090280D01*
X0083168Y0089621D01*
X0083060Y0088937D01*
X0083060Y0088591D01*
X0090060Y0088591D01*
X0090060Y0092991D01*
X0090060Y0088591D01*
X0090060Y0088591D01*
X0097060Y0088591D01*
X0097060Y0088937D01*
X0096952Y0089621D01*
X0095964Y0091509D02*
X0114721Y0091509D01*
X0116386Y0094706D02*
X0093734Y0094706D01*
X0093456Y0094591D02*
X0094926Y0095200D01*
X0096051Y0096325D01*
X0096660Y0097795D01*
X0096660Y0099386D01*
X0096051Y0100856D01*
X0094926Y0101982D01*
X0093456Y0102591D01*
X0086664Y0102591D01*
X0085194Y0101982D01*
X0084069Y0100856D01*
X0083460Y0099386D01*
X0083460Y0097795D01*
X0084069Y0096325D01*
X0085194Y0095200D01*
X0086664Y0094591D01*
X0093456Y0094591D01*
X0096030Y0096304D02*
X0114089Y0096304D01*
X0113460Y0097903D02*
X0096660Y0097903D01*
X0096612Y0099501D02*
X0113508Y0099501D01*
X0114312Y0101100D02*
X0095808Y0101100D01*
X0095622Y0105895D02*
X0114498Y0105895D01*
X0113585Y0107494D02*
X0096535Y0107494D01*
X0096660Y0109092D02*
X0113460Y0109092D01*
X0114000Y0110691D02*
X0096120Y0110691D01*
X0094183Y0112289D02*
X0115937Y0112289D01*
X0114907Y0115486D02*
X0095213Y0115486D01*
X0096366Y0117085D02*
X0113754Y0117085D01*
X0113460Y0118683D02*
X0096660Y0118683D01*
X0096289Y0120282D02*
X0113831Y0120282D01*
X0115093Y0121880D02*
X0095027Y0121880D01*
X0094631Y0125077D02*
X0115489Y0125077D01*
X0113923Y0126676D02*
X0096196Y0126676D01*
X0096660Y0128274D02*
X0113460Y0128274D01*
X0113662Y0129873D02*
X0096458Y0129873D01*
X0095436Y0131471D02*
X0114684Y0131471D01*
X0116476Y0134668D02*
X0093644Y0134668D01*
X0095993Y0136267D02*
X0114127Y0136267D01*
X0113460Y0137866D02*
X0096660Y0137866D01*
X0096628Y0139464D02*
X0113492Y0139464D01*
X0114275Y0141063D02*
X0095845Y0141063D01*
X0095584Y0145858D02*
X0114007Y0145858D01*
X0114104Y0145724D02*
X0114594Y0145234D01*
X0115154Y0144827D01*
X0115771Y0144513D01*
X0116430Y0144299D01*
X0117114Y0144191D01*
X0120060Y0144191D01*
X0123006Y0144191D01*
X0123690Y0144299D01*
X0124349Y0144513D01*
X0124966Y0144827D01*
X0125526Y0145234D01*
X0126016Y0145724D01*
X0126423Y0146284D01*
X0126738Y0146902D01*
X0126952Y0147560D01*
X0127060Y0148244D01*
X0127060Y0148590D01*
X0120060Y0148590D01*
X0120060Y0144191D01*
X0120060Y0148590D01*
X0120060Y0148590D01*
X0113060Y0148590D01*
X0113060Y0148244D01*
X0113168Y0147560D01*
X0113382Y0146902D01*
X0113697Y0146284D01*
X0114104Y0145724D01*
X0113202Y0147457D02*
X0096520Y0147457D01*
X0096660Y0149055D02*
X0113079Y0149055D01*
X0113060Y0148937D02*
X0113060Y0148591D01*
X0120060Y0148591D01*
X0120060Y0152991D01*
X0117114Y0152991D01*
X0116430Y0152882D01*
X0115771Y0152668D01*
X0115154Y0152354D01*
X0114594Y0151947D01*
X0114104Y0151457D01*
X0113697Y0150897D01*
X0113382Y0150280D01*
X0113168Y0149621D01*
X0113060Y0148937D01*
X0113573Y0150654D02*
X0096135Y0150654D01*
X0094273Y0152252D02*
X0115014Y0152252D01*
X0116664Y0154591D02*
X0115194Y0155200D01*
X0114069Y0156325D01*
X0113460Y0157795D01*
X0113460Y0159386D01*
X0114069Y0160856D01*
X0115194Y0161982D01*
X0116664Y0162591D01*
X0123456Y0162591D01*
X0124926Y0161982D01*
X0126051Y0160856D01*
X0126660Y0159386D01*
X0126660Y0157795D01*
X0126051Y0156325D01*
X0124926Y0155200D01*
X0123456Y0154591D01*
X0116664Y0154591D01*
X0114945Y0155449D02*
X0095175Y0155449D01*
X0094926Y0155200D02*
X0096051Y0156325D01*
X0096660Y0157795D01*
X0096660Y0159386D01*
X0096051Y0160856D01*
X0094926Y0161982D01*
X0093456Y0162591D01*
X0086664Y0162591D01*
X0085194Y0161982D01*
X0084069Y0160856D01*
X0083460Y0159386D01*
X0083460Y0157795D01*
X0084069Y0156325D01*
X0085194Y0155200D01*
X0086664Y0154591D01*
X0093456Y0154591D01*
X0094926Y0155200D01*
X0096350Y0157048D02*
X0113770Y0157048D01*
X0113460Y0158646D02*
X0096660Y0158646D01*
X0096304Y0160245D02*
X0113816Y0160245D01*
X0115056Y0161843D02*
X0095064Y0161843D01*
X0085056Y0161843D02*
X0006860Y0161843D01*
X0006860Y0160245D02*
X0083816Y0160245D01*
X0083460Y0158646D02*
X0006860Y0158646D01*
X0006860Y0157048D02*
X0083770Y0157048D01*
X0084945Y0155449D02*
X0006860Y0155449D01*
X0006860Y0153851D02*
X0173758Y0153851D01*
X0173797Y0153770D02*
X0173344Y0154711D01*
X0172999Y0155697D01*
X0172767Y0156715D01*
X0172681Y0157476D01*
X0181150Y0157476D01*
X0181150Y0159076D01*
X0181150Y0167544D01*
X0180389Y0167459D01*
X0179371Y0167226D01*
X0178385Y0166881D01*
X0177444Y0166428D01*
X0176560Y0165872D01*
X0175743Y0165221D01*
X0175004Y0164482D01*
X0174353Y0163666D01*
X0173797Y0162781D01*
X0173344Y0161840D01*
X0172999Y0160854D01*
X0172767Y0159836D01*
X0172681Y0159076D01*
X0181150Y0159076D01*
X0182750Y0159076D01*
X0182750Y0167544D01*
X0183510Y0167459D01*
X0184528Y0167226D01*
X0185514Y0166881D01*
X0186455Y0166428D01*
X0187340Y0165872D01*
X0188157Y0165221D01*
X0188895Y0164482D01*
X0189546Y0163666D01*
X0190102Y0162781D01*
X0190555Y0161840D01*
X0190900Y0160854D01*
X0191133Y0159836D01*
X0191218Y0159076D01*
X0182750Y0159076D01*
X0182750Y0157476D01*
X0191218Y0157476D01*
X0191133Y0156715D01*
X0190900Y0155697D01*
X0190555Y0154711D01*
X0190102Y0153770D01*
X0189546Y0152885D01*
X0188895Y0152069D01*
X0188157Y0151330D01*
X0187340Y0150679D01*
X0186455Y0150123D01*
X0185514Y0149670D01*
X0184528Y0149325D01*
X0183510Y0149093D01*
X0182750Y0149007D01*
X0182750Y0157476D01*
X0181150Y0157476D01*
X0181150Y0149007D01*
X0180389Y0149093D01*
X0179371Y0149325D01*
X0178385Y0149670D01*
X0177444Y0150123D01*
X0176560Y0150679D01*
X0175743Y0151330D01*
X0175004Y0152069D01*
X0174353Y0152885D01*
X0173797Y0153770D01*
X0173086Y0155449D02*
X0125175Y0155449D01*
X0126350Y0157048D02*
X0172729Y0157048D01*
X0172860Y0160245D02*
X0126304Y0160245D01*
X0126660Y0158646D02*
X0181150Y0158646D01*
X0181150Y0157048D02*
X0182750Y0157048D01*
X0182750Y0158646D02*
X0200110Y0158646D01*
X0200110Y0157048D02*
X0191170Y0157048D01*
X0190814Y0155449D02*
X0200110Y0155449D01*
X0200110Y0153851D02*
X0190141Y0153851D01*
X0189041Y0152252D02*
X0200110Y0152252D01*
X0200110Y0150654D02*
X0187300Y0150654D01*
X0183178Y0149055D02*
X0200110Y0149055D01*
X0200110Y0147457D02*
X0126918Y0147457D01*
X0127060Y0148591D02*
X0127060Y0148937D01*
X0126952Y0149621D01*
X0126738Y0150280D01*
X0126423Y0150897D01*
X0126016Y0151457D01*
X0125526Y0151947D01*
X0124966Y0152354D01*
X0124349Y0152668D01*
X0123690Y0152882D01*
X0123006Y0152991D01*
X0120060Y0152991D01*
X0120060Y0148591D01*
X0120060Y0148591D01*
X0127060Y0148591D01*
X0127041Y0149055D02*
X0180722Y0149055D01*
X0181150Y0149055D02*
X0182750Y0149055D01*
X0182750Y0150654D02*
X0181150Y0150654D01*
X0181150Y0152252D02*
X0182750Y0152252D01*
X0182750Y0153851D02*
X0181150Y0153851D01*
X0181150Y0155449D02*
X0182750Y0155449D01*
X0182750Y0160245D02*
X0181150Y0160245D01*
X0181150Y0161843D02*
X0182750Y0161843D01*
X0182750Y0163442D02*
X0181150Y0163442D01*
X0181150Y0165040D02*
X0182750Y0165040D01*
X0182750Y0166639D02*
X0181150Y0166639D01*
X0177882Y0166639D02*
X0174034Y0166639D01*
X0173688Y0166293D02*
X0174751Y0167356D01*
X0175326Y0168745D01*
X0175326Y0170248D01*
X0174751Y0171636D01*
X0173741Y0172646D01*
X0174751Y0173655D01*
X0175326Y0175044D01*
X0175326Y0176547D01*
X0174751Y0177935D01*
X0173688Y0178998D01*
X0172300Y0179573D01*
X0166041Y0179573D01*
X0165819Y0179481D01*
X0165749Y0179923D01*
X0165546Y0180549D01*
X0165247Y0181135D01*
X0164861Y0181667D01*
X0164396Y0182132D01*
X0163864Y0182518D01*
X0163278Y0182817D01*
X0162652Y0183020D01*
X0162003Y0183123D01*
X0161674Y0183123D01*
X0156589Y0183123D01*
X0155940Y0183020D01*
X0155314Y0182817D01*
X0154729Y0182518D01*
X0154197Y0182132D01*
X0153731Y0181667D01*
X0153345Y0181135D01*
X0153046Y0180549D01*
X0152843Y0179923D01*
X0152740Y0179274D01*
X0152740Y0178945D01*
X0161674Y0178945D01*
X0161674Y0178945D01*
X0161674Y0183123D01*
X0161674Y0178945D01*
X0161674Y0178945D01*
X0152740Y0178945D01*
X0152740Y0178616D01*
X0152843Y0177967D01*
X0153046Y0177341D01*
X0153345Y0176755D01*
X0153731Y0176223D01*
X0154197Y0175758D01*
X0154481Y0175551D01*
X0153715Y0174786D01*
X0153206Y0173556D01*
X0140863Y0185899D01*
X0141304Y0186339D01*
X0141658Y0187194D01*
X0142105Y0186116D01*
X0143333Y0184887D01*
X0144939Y0184222D01*
X0146677Y0184222D01*
X0148283Y0184887D01*
X0149511Y0186116D01*
X0150177Y0187722D01*
X0150177Y0189459D01*
X0149511Y0191065D01*
X0148283Y0192294D01*
X0146677Y0192959D01*
X0144939Y0192959D01*
X0143333Y0192294D01*
X0142105Y0191065D01*
X0141658Y0189987D01*
X0141304Y0190842D01*
X0140186Y0191960D01*
X0138725Y0192565D01*
X0137143Y0192565D01*
X0135682Y0191960D01*
X0134564Y0190842D01*
X0133997Y0189472D01*
X0133430Y0190842D01*
X0132312Y0191960D01*
X0130851Y0192565D01*
X0129269Y0192565D01*
X0127808Y0191960D01*
X0126690Y0190842D01*
X0126123Y0189472D01*
X0125556Y0190842D01*
X0124438Y0191960D01*
X0122977Y0192565D01*
X0121395Y0192565D01*
X0119934Y0191960D01*
X0118816Y0190842D01*
X0118462Y0189987D01*
X0118015Y0191065D01*
X0116787Y0192294D01*
X0115181Y0192959D01*
X0113443Y0192959D01*
X0111837Y0192294D01*
X0110609Y0191065D01*
X0109943Y0189459D01*
X0109943Y0187722D01*
X0110609Y0186116D01*
X0111837Y0184887D01*
X0113443Y0184222D01*
X0115181Y0184222D01*
X0116787Y0184887D01*
X0118015Y0186116D01*
X0118462Y0187194D01*
X0118816Y0186339D01*
X0119934Y0185221D01*
X0121395Y0184616D01*
X0122977Y0184616D01*
X0124438Y0185221D01*
X0125556Y0186339D01*
X0126123Y0187709D01*
X0126690Y0186339D01*
X0127808Y0185221D01*
X0129269Y0184616D01*
X0130851Y0184616D01*
X0132312Y0185221D01*
X0133430Y0186339D01*
X0133997Y0187709D01*
X0134564Y0186339D01*
X0135682Y0185221D01*
X0135734Y0185200D01*
X0135734Y0184805D01*
X0137023Y0183517D01*
X0153228Y0167311D01*
X0153140Y0167098D01*
X0153140Y0165595D01*
X0153715Y0164206D01*
X0154778Y0163144D01*
X0156167Y0162569D01*
X0162426Y0162569D01*
X0163814Y0163144D01*
X0164877Y0164206D01*
X0165452Y0165595D01*
X0165452Y0165962D01*
X0166041Y0165718D01*
X0172300Y0165718D01*
X0173688Y0166293D01*
X0175562Y0165040D02*
X0165222Y0165040D01*
X0164112Y0163442D02*
X0174212Y0163442D01*
X0173346Y0161843D02*
X0125064Y0161843D01*
X0125106Y0152252D02*
X0174858Y0152252D01*
X0176600Y0150654D02*
X0126547Y0150654D01*
X0126113Y0145858D02*
X0200110Y0145858D01*
X0200110Y0144260D02*
X0123442Y0144260D01*
X0120060Y0144260D02*
X0120060Y0144260D01*
X0120060Y0145858D02*
X0120060Y0145858D01*
X0120060Y0147457D02*
X0120060Y0147457D01*
X0120060Y0148590D02*
X0120060Y0148591D01*
X0120060Y0148590D01*
X0120060Y0149055D02*
X0120060Y0149055D01*
X0120060Y0150654D02*
X0120060Y0150654D01*
X0120060Y0152252D02*
X0120060Y0152252D01*
X0116678Y0144260D02*
X0088557Y0144260D01*
X0086959Y0142661D02*
X0193918Y0142661D01*
X0192564Y0141063D02*
X0125845Y0141063D01*
X0125993Y0136267D02*
X0192502Y0136267D01*
X0193770Y0134668D02*
X0123644Y0134668D01*
X0125436Y0131471D02*
X0192733Y0131471D01*
X0194547Y0133070D02*
X0087368Y0133070D01*
X0083460Y0128274D02*
X0082572Y0128274D01*
X0083923Y0126676D02*
X0080974Y0126676D01*
X0083718Y0125077D02*
X0013759Y0125077D01*
X0011585Y0123479D02*
X0082120Y0123479D01*
X0080521Y0121880D02*
X0013983Y0121880D01*
X0014168Y0115486D02*
X0034242Y0115486D01*
X0035878Y0115486D02*
X0064127Y0115486D01*
X0062529Y0113888D02*
X0012034Y0113888D01*
X0013574Y0112289D02*
X0060930Y0112289D01*
X0059332Y0110691D02*
X0037458Y0110691D01*
X0038241Y0109092D02*
X0057733Y0109092D01*
X0056135Y0107494D02*
X0038049Y0107494D01*
X0036863Y0105895D02*
X0054536Y0105895D01*
X0052938Y0104297D02*
X0012979Y0104297D01*
X0013165Y0102698D02*
X0051339Y0102698D01*
X0049741Y0101100D02*
X0014541Y0101100D01*
X0015160Y0099501D02*
X0048142Y0099501D01*
X0046544Y0097903D02*
X0015160Y0097903D01*
X0015175Y0096304D02*
X0044945Y0096304D01*
X0043347Y0094706D02*
X0016773Y0094706D01*
X0018372Y0093107D02*
X0041748Y0093107D01*
X0040150Y0091509D02*
X0019970Y0091509D01*
X0021569Y0089910D02*
X0038551Y0089910D01*
X0036953Y0088312D02*
X0023167Y0088312D01*
X0025834Y0086713D02*
X0035354Y0086713D01*
X0033756Y0085115D02*
X0027872Y0085115D01*
X0028241Y0083516D02*
X0032157Y0083516D01*
X0030559Y0081918D02*
X0027810Y0081918D01*
X0028960Y0080319D02*
X0014864Y0080319D01*
X0015160Y0078721D02*
X0027362Y0078721D01*
X0025763Y0077122D02*
X0014972Y0077122D01*
X0014205Y0075524D02*
X0024165Y0075524D01*
X0022566Y0073925D02*
X0012123Y0073925D01*
X0014102Y0072327D02*
X0020968Y0072327D01*
X0019369Y0070728D02*
X0015144Y0070728D01*
X0015543Y0069130D02*
X0017771Y0069130D01*
X0016172Y0067531D02*
X0015461Y0067531D01*
X0014649Y0056341D02*
X0023389Y0056341D01*
X0022606Y0051546D02*
X0015844Y0051546D01*
X0013945Y0081918D02*
X0022310Y0081918D01*
X0021879Y0083516D02*
X0011496Y0083516D01*
X0013797Y0085115D02*
X0020707Y0085115D01*
X0019109Y0086713D02*
X0014803Y0086713D01*
X0015160Y0088312D02*
X0017510Y0088312D01*
X0015912Y0089910D02*
X0015034Y0089910D01*
X0014464Y0105895D02*
X0033256Y0105895D01*
X0032661Y0110691D02*
X0014710Y0110691D01*
X0037880Y0117085D02*
X0065726Y0117085D01*
X0066879Y0118683D02*
X0038241Y0118683D01*
X0037803Y0120282D02*
X0067317Y0120282D01*
X0072803Y0120282D02*
X0078923Y0120282D01*
X0077324Y0118683D02*
X0073241Y0118683D01*
X0072880Y0117085D02*
X0075726Y0117085D01*
X0074127Y0115486D02*
X0070878Y0115486D01*
X0072529Y0113888D02*
X0068186Y0113888D01*
X0066587Y0112289D02*
X0070930Y0112289D01*
X0069332Y0110691D02*
X0064989Y0110691D01*
X0063390Y0109092D02*
X0067733Y0109092D01*
X0066135Y0107494D02*
X0061792Y0107494D01*
X0060193Y0105895D02*
X0064536Y0105895D01*
X0062938Y0104297D02*
X0058595Y0104297D01*
X0056996Y0102698D02*
X0061339Y0102698D01*
X0059741Y0101100D02*
X0055398Y0101100D01*
X0053799Y0099501D02*
X0058142Y0099501D01*
X0056544Y0097903D02*
X0052201Y0097903D01*
X0050602Y0096304D02*
X0054945Y0096304D01*
X0053347Y0094706D02*
X0049004Y0094706D01*
X0047405Y0093107D02*
X0051748Y0093107D01*
X0050150Y0091509D02*
X0045807Y0091509D01*
X0044208Y0089910D02*
X0048551Y0089910D01*
X0046953Y0088312D02*
X0042609Y0088312D01*
X0041011Y0086713D02*
X0045354Y0086713D01*
X0043756Y0085115D02*
X0039412Y0085115D01*
X0037814Y0083516D02*
X0042157Y0083516D01*
X0040559Y0081918D02*
X0036215Y0081918D01*
X0034617Y0080319D02*
X0038960Y0080319D01*
X0059412Y0085115D02*
X0074228Y0085115D01*
X0074387Y0085049D02*
X0075733Y0085049D01*
X0076977Y0085564D01*
X0077929Y0086516D01*
X0078444Y0087760D01*
X0078444Y0089106D01*
X0077929Y0090350D01*
X0076977Y0091302D01*
X0075733Y0091817D01*
X0074387Y0091817D01*
X0073143Y0091302D01*
X0072191Y0090350D01*
X0071676Y0089106D01*
X0071676Y0087760D01*
X0072191Y0086516D01*
X0073143Y0085564D01*
X0074387Y0085049D01*
X0075892Y0085115D02*
X0084758Y0085115D01*
X0084594Y0085234D02*
X0085154Y0084827D01*
X0085771Y0084513D01*
X0086430Y0084299D01*
X0087114Y0084191D01*
X0090060Y0084191D01*
X0090060Y0088590D01*
X0090060Y0088590D01*
X0083060Y0088590D01*
X0083060Y0088244D01*
X0083168Y0087560D01*
X0083382Y0086902D01*
X0083697Y0086284D01*
X0084104Y0085724D01*
X0084594Y0085234D01*
X0083478Y0086713D02*
X0078011Y0086713D01*
X0078444Y0088312D02*
X0083060Y0088312D01*
X0083262Y0089910D02*
X0078111Y0089910D01*
X0076478Y0091509D02*
X0084156Y0091509D01*
X0086386Y0094706D02*
X0069004Y0094706D01*
X0070602Y0096304D02*
X0084089Y0096304D01*
X0083460Y0097903D02*
X0072201Y0097903D01*
X0073799Y0099501D02*
X0083508Y0099501D01*
X0084312Y0101100D02*
X0075398Y0101100D01*
X0076996Y0102698D02*
X0121339Y0102698D01*
X0122938Y0104297D02*
X0078595Y0104297D01*
X0080193Y0105895D02*
X0084498Y0105895D01*
X0083585Y0107494D02*
X0081792Y0107494D01*
X0083390Y0109092D02*
X0083460Y0109092D01*
X0088186Y0113888D02*
X0195086Y0113888D01*
X0193546Y0112289D02*
X0124183Y0112289D01*
X0126120Y0110691D02*
X0157661Y0110691D01*
X0162458Y0110691D02*
X0192410Y0110691D01*
X0191960Y0109092D02*
X0163241Y0109092D01*
X0163049Y0107494D02*
X0191994Y0107494D01*
X0191536Y0105895D02*
X0161863Y0105895D01*
X0158256Y0105895D02*
X0152254Y0105895D01*
X0153211Y0104297D02*
X0189938Y0104297D01*
X0188339Y0102698D02*
X0153134Y0102698D01*
X0152662Y0101100D02*
X0152068Y0101100D01*
X0151626Y0099501D02*
X0148799Y0099501D01*
X0147201Y0097903D02*
X0151479Y0097903D01*
X0150103Y0096304D02*
X0145602Y0096304D01*
X0144004Y0094706D02*
X0148504Y0094706D01*
X0146906Y0093107D02*
X0142405Y0093107D01*
X0140807Y0091509D02*
X0145307Y0091509D01*
X0143709Y0089910D02*
X0139208Y0089910D01*
X0137610Y0088312D02*
X0142110Y0088312D01*
X0140512Y0086713D02*
X0136011Y0086713D01*
X0135150Y0091509D02*
X0125399Y0091509D01*
X0123734Y0094706D02*
X0138347Y0094706D01*
X0139945Y0096304D02*
X0126030Y0096304D01*
X0126660Y0097903D02*
X0141544Y0097903D01*
X0143142Y0099501D02*
X0126612Y0099501D01*
X0125808Y0101100D02*
X0144741Y0101100D01*
X0146339Y0102698D02*
X0126996Y0102698D01*
X0128595Y0104297D02*
X0146909Y0104297D01*
X0147866Y0105895D02*
X0130193Y0105895D01*
X0127733Y0109092D02*
X0126660Y0109092D01*
X0125213Y0115486D02*
X0192952Y0115486D01*
X0193137Y0121880D02*
X0125027Y0121880D01*
X0124631Y0125077D02*
X0193361Y0125077D01*
X0195535Y0123479D02*
X0087777Y0123479D01*
X0079704Y0141063D02*
X0014556Y0141063D01*
X0013202Y0142661D02*
X0081302Y0142661D01*
X0082901Y0144260D02*
X0006860Y0144260D01*
X0006860Y0145858D02*
X0084499Y0145858D01*
X0083600Y0147457D02*
X0006860Y0147457D01*
X0006860Y0149055D02*
X0083460Y0149055D01*
X0083985Y0150654D02*
X0006860Y0150654D01*
X0006860Y0152252D02*
X0085847Y0152252D01*
X0088403Y0179591D02*
X0091717Y0179591D01*
X0094060Y0181934D01*
X0094060Y0185247D01*
X0091717Y0187591D01*
X0088403Y0187591D01*
X0086060Y0185247D01*
X0086060Y0181934D01*
X0088403Y0179591D01*
X0086968Y0181025D02*
X0006860Y0181025D01*
X0006860Y0179427D02*
X0098001Y0179427D01*
X0098237Y0179191D02*
X0100060Y0179191D01*
X0101883Y0179191D01*
X0104460Y0181768D01*
X0104460Y0183590D01*
X0100060Y0183590D01*
X0100060Y0179191D01*
X0100060Y0183590D01*
X0100060Y0183590D01*
X0100060Y0183591D01*
X0100060Y0187991D01*
X0101883Y0187991D01*
X0104460Y0185413D01*
X0104460Y0183591D01*
X0100060Y0183591D01*
X0100060Y0183591D01*
X0100060Y0187991D01*
X0098237Y0187991D01*
X0095660Y0185413D01*
X0095660Y0183591D01*
X0100060Y0183591D01*
X0100060Y0183590D01*
X0095660Y0183590D01*
X0095660Y0181768D01*
X0098237Y0179191D01*
X0100060Y0179427D02*
X0100060Y0179427D01*
X0100060Y0181025D02*
X0100060Y0181025D01*
X0100060Y0182624D02*
X0100060Y0182624D01*
X0100060Y0184222D02*
X0100060Y0184222D01*
X0100060Y0185821D02*
X0100060Y0185821D01*
X0100060Y0187419D02*
X0100060Y0187419D01*
X0098644Y0189018D02*
X0109943Y0189018D01*
X0110069Y0187419D02*
X0102454Y0187419D01*
X0104052Y0185821D02*
X0110904Y0185821D01*
X0113442Y0184222D02*
X0104460Y0184222D01*
X0104460Y0182624D02*
X0137915Y0182624D01*
X0137023Y0183517D02*
X0137023Y0183517D01*
X0136317Y0184222D02*
X0115182Y0184222D01*
X0117720Y0185821D02*
X0119334Y0185821D01*
X0118723Y0190616D02*
X0118201Y0190616D01*
X0116866Y0192215D02*
X0120549Y0192215D01*
X0123823Y0192215D02*
X0128423Y0192215D01*
X0126597Y0190616D02*
X0125649Y0190616D01*
X0126003Y0187419D02*
X0126243Y0187419D01*
X0127208Y0185821D02*
X0125037Y0185821D01*
X0131697Y0192215D02*
X0136297Y0192215D01*
X0134471Y0190616D02*
X0133523Y0190616D01*
X0133877Y0187419D02*
X0134117Y0187419D01*
X0135082Y0185821D02*
X0132911Y0185821D01*
X0137934Y0185717D02*
X0157304Y0166346D01*
X0161674Y0166346D01*
X0154480Y0163442D02*
X0006860Y0163442D01*
X0006860Y0165040D02*
X0153370Y0165040D01*
X0153140Y0166639D02*
X0006860Y0166639D01*
X0006860Y0168237D02*
X0152302Y0168237D01*
X0150704Y0169836D02*
X0006860Y0169836D01*
X0006860Y0171434D02*
X0047309Y0171434D01*
X0047024Y0171720D02*
X0048031Y0170712D01*
X0049348Y0170167D01*
X0050772Y0170167D01*
X0052089Y0170712D01*
X0053096Y0171720D01*
X0053641Y0173036D01*
X0053641Y0174460D01*
X0053096Y0175777D01*
X0052089Y0176784D01*
X0050772Y0177329D01*
X0049348Y0177329D01*
X0048031Y0176784D01*
X0047024Y0175777D01*
X0046479Y0174460D01*
X0046479Y0173036D01*
X0047024Y0171720D01*
X0046480Y0173033D02*
X0006860Y0173033D01*
X0006860Y0174631D02*
X0046550Y0174631D01*
X0047477Y0176230D02*
X0006860Y0176230D01*
X0006860Y0177828D02*
X0142711Y0177828D01*
X0144309Y0176230D02*
X0052643Y0176230D01*
X0053570Y0174631D02*
X0145908Y0174631D01*
X0147507Y0173033D02*
X0053640Y0173033D01*
X0052811Y0171434D02*
X0149105Y0171434D01*
X0152131Y0174631D02*
X0153652Y0174631D01*
X0153727Y0176230D02*
X0150532Y0176230D01*
X0148934Y0177828D02*
X0152888Y0177828D01*
X0152765Y0179427D02*
X0147335Y0179427D01*
X0145736Y0181025D02*
X0153289Y0181025D01*
X0154936Y0182624D02*
X0144138Y0182624D01*
X0144938Y0184222D02*
X0142539Y0184222D01*
X0142400Y0185821D02*
X0140941Y0185821D01*
X0137934Y0185717D02*
X0137934Y0188591D01*
X0139571Y0192215D02*
X0143254Y0192215D01*
X0141919Y0190616D02*
X0141397Y0190616D01*
X0148362Y0192215D02*
X0174233Y0192215D01*
X0174353Y0192406D02*
X0173797Y0191521D01*
X0173344Y0190580D01*
X0172999Y0189594D01*
X0172767Y0188576D01*
X0172681Y0187816D01*
X0181150Y0187816D01*
X0181150Y0196284D01*
X0180389Y0196199D01*
X0179371Y0195966D01*
X0178385Y0195621D01*
X0177444Y0195168D01*
X0176560Y0194612D01*
X0175743Y0193961D01*
X0175004Y0193223D01*
X0174353Y0192406D01*
X0175595Y0193813D02*
X0097994Y0193813D01*
X0099060Y0192747D02*
X0096717Y0195091D01*
X0093403Y0195091D01*
X0091060Y0192747D01*
X0091060Y0189434D01*
X0093403Y0187091D01*
X0096717Y0187091D01*
X0099060Y0189434D01*
X0099060Y0192747D01*
X0099060Y0192215D02*
X0111758Y0192215D01*
X0110423Y0190616D02*
X0099060Y0190616D01*
X0097666Y0187419D02*
X0097046Y0187419D01*
X0096068Y0185821D02*
X0093487Y0185821D01*
X0093074Y0187419D02*
X0091888Y0187419D01*
X0091476Y0189018D02*
X0006860Y0189018D01*
X0006860Y0190616D02*
X0047247Y0190616D01*
X0047522Y0190341D02*
X0048174Y0189905D01*
X0048899Y0189605D01*
X0049668Y0189452D01*
X0050060Y0189452D01*
X0050452Y0189452D01*
X0051221Y0189605D01*
X0051946Y0189905D01*
X0052598Y0190341D01*
X0053152Y0190895D01*
X0053588Y0191547D01*
X0053888Y0192272D01*
X0054041Y0193041D01*
X0054041Y0193433D01*
X0050060Y0193433D01*
X0050060Y0189452D01*
X0050060Y0193433D01*
X0050060Y0193433D01*
X0050060Y0193433D01*
X0046079Y0193433D01*
X0046079Y0193041D01*
X0046232Y0192272D01*
X0046532Y0191547D01*
X0046968Y0190895D01*
X0047522Y0190341D01*
X0046255Y0192215D02*
X0006860Y0192215D01*
X0006860Y0193813D02*
X0046079Y0193813D01*
X0046079Y0193825D02*
X0046079Y0193433D01*
X0050060Y0193433D01*
X0050060Y0193433D01*
X0054041Y0193433D01*
X0054041Y0193825D01*
X0053888Y0194594D01*
X0053588Y0195319D01*
X0053152Y0195971D01*
X0052598Y0196525D01*
X0051946Y0196961D01*
X0051221Y0197261D01*
X0050452Y0197414D01*
X0050060Y0197414D01*
X0050060Y0193433D01*
X0050060Y0193433D01*
X0050060Y0197414D01*
X0049668Y0197414D01*
X0048899Y0197261D01*
X0048174Y0196961D01*
X0047522Y0196525D01*
X0046968Y0195971D01*
X0046532Y0195319D01*
X0046232Y0194594D01*
X0046079Y0193825D01*
X0046594Y0195412D02*
X0006860Y0195412D01*
X0006860Y0197010D02*
X0048293Y0197010D01*
X0050060Y0197010D02*
X0050060Y0197010D01*
X0050060Y0195412D02*
X0050060Y0195412D01*
X0050060Y0193813D02*
X0050060Y0193813D01*
X0050060Y0192215D02*
X0050060Y0192215D01*
X0050060Y0190616D02*
X0050060Y0190616D01*
X0052873Y0190616D02*
X0091060Y0190616D01*
X0091060Y0192215D02*
X0053865Y0192215D01*
X0054041Y0193813D02*
X0092126Y0193813D01*
X0088232Y0187419D02*
X0006860Y0187419D01*
X0006860Y0185821D02*
X0086633Y0185821D01*
X0086060Y0184222D02*
X0006860Y0184222D01*
X0006860Y0182624D02*
X0086060Y0182624D01*
X0093152Y0181025D02*
X0096403Y0181025D01*
X0095660Y0182624D02*
X0094060Y0182624D01*
X0094060Y0184222D02*
X0095660Y0184222D01*
X0102119Y0179427D02*
X0141112Y0179427D01*
X0139514Y0181025D02*
X0103717Y0181025D01*
X0146678Y0184222D02*
X0173074Y0184222D01*
X0172999Y0184437D02*
X0173344Y0183451D01*
X0173797Y0182510D01*
X0174353Y0181626D01*
X0175004Y0180809D01*
X0175743Y0180070D01*
X0176560Y0179419D01*
X0177444Y0178863D01*
X0178385Y0178410D01*
X0179371Y0178065D01*
X0180389Y0177833D01*
X0181150Y0177747D01*
X0181150Y0186216D01*
X0172681Y0186216D01*
X0172767Y0185455D01*
X0172999Y0184437D01*
X0172726Y0185821D02*
X0149216Y0185821D01*
X0150051Y0187419D02*
X0181150Y0187419D01*
X0181150Y0187816D02*
X0181150Y0186216D01*
X0182750Y0186216D01*
X0182750Y0187816D01*
X0181150Y0187816D01*
X0181150Y0189018D02*
X0182750Y0189018D01*
X0182750Y0187816D02*
X0182750Y0196284D01*
X0183510Y0196199D01*
X0184528Y0195966D01*
X0185514Y0195621D01*
X0186455Y0195168D01*
X0187340Y0194612D01*
X0188157Y0193961D01*
X0188895Y0193223D01*
X0189546Y0192406D01*
X0190102Y0191521D01*
X0190555Y0190580D01*
X0190900Y0189594D01*
X0191133Y0188576D01*
X0191218Y0187816D01*
X0182750Y0187816D01*
X0182750Y0187419D02*
X0200110Y0187419D01*
X0200110Y0185821D02*
X0191174Y0185821D01*
X0191133Y0185455D02*
X0191218Y0186216D01*
X0182750Y0186216D01*
X0182750Y0177747D01*
X0183510Y0177833D01*
X0184528Y0178065D01*
X0185514Y0178410D01*
X0186455Y0178863D01*
X0187340Y0179419D01*
X0188157Y0180070D01*
X0188895Y0180809D01*
X0189546Y0181626D01*
X0190102Y0182510D01*
X0190555Y0183451D01*
X0190900Y0184437D01*
X0191133Y0185455D01*
X0190825Y0184222D02*
X0200110Y0184222D01*
X0200110Y0182624D02*
X0190157Y0182624D01*
X0189068Y0181025D02*
X0200110Y0181025D01*
X0200110Y0179427D02*
X0187350Y0179427D01*
X0183471Y0177828D02*
X0200110Y0177828D01*
X0200110Y0176230D02*
X0175326Y0176230D01*
X0175155Y0174631D02*
X0200110Y0174631D01*
X0200110Y0173033D02*
X0174128Y0173033D01*
X0174835Y0171434D02*
X0200110Y0171434D01*
X0200110Y0169836D02*
X0175326Y0169836D01*
X0175116Y0168237D02*
X0200110Y0168237D01*
X0200110Y0166639D02*
X0186018Y0166639D01*
X0188337Y0165040D02*
X0200110Y0165040D01*
X0200110Y0163442D02*
X0189687Y0163442D01*
X0190554Y0161843D02*
X0200110Y0161843D01*
X0200110Y0160245D02*
X0191039Y0160245D01*
X0182750Y0177828D02*
X0181150Y0177828D01*
X0180429Y0177828D02*
X0174795Y0177828D01*
X0176550Y0179427D02*
X0172653Y0179427D01*
X0174832Y0181025D02*
X0165303Y0181025D01*
X0163657Y0182624D02*
X0173743Y0182624D01*
X0172868Y0189018D02*
X0150177Y0189018D01*
X0149697Y0190616D02*
X0173362Y0190616D01*
X0177950Y0195412D02*
X0053526Y0195412D01*
X0051827Y0197010D02*
X0200110Y0197010D01*
X0200110Y0195412D02*
X0185949Y0195412D01*
X0182750Y0195412D02*
X0181150Y0195412D01*
X0181150Y0193813D02*
X0182750Y0193813D01*
X0182750Y0192215D02*
X0181150Y0192215D01*
X0181150Y0190616D02*
X0182750Y0190616D01*
X0182750Y0185821D02*
X0181150Y0185821D01*
X0181150Y0184222D02*
X0182750Y0184222D01*
X0182750Y0182624D02*
X0181150Y0182624D01*
X0181150Y0181025D02*
X0182750Y0181025D01*
X0182750Y0179427D02*
X0181150Y0179427D01*
X0191032Y0189018D02*
X0200110Y0189018D01*
X0200110Y0190616D02*
X0190538Y0190616D01*
X0189666Y0192215D02*
X0200110Y0192215D01*
X0200110Y0193813D02*
X0188304Y0193813D01*
X0200110Y0198609D02*
X0006860Y0198609D01*
X0006860Y0142661D02*
X0006918Y0142661D01*
X0061011Y0086713D02*
X0072109Y0086713D01*
X0071676Y0088312D02*
X0062609Y0088312D01*
X0064208Y0089910D02*
X0072009Y0089910D01*
X0073642Y0091509D02*
X0065807Y0091509D01*
X0067405Y0093107D02*
X0136748Y0093107D01*
X0144570Y0085115D02*
X0170756Y0085115D01*
X0172354Y0086713D02*
X0146168Y0086713D01*
X0147767Y0088312D02*
X0173953Y0088312D01*
X0175551Y0089910D02*
X0149365Y0089910D01*
X0150964Y0091509D02*
X0177150Y0091509D01*
X0178748Y0093107D02*
X0152563Y0093107D01*
X0154161Y0094706D02*
X0180347Y0094706D01*
X0181945Y0096304D02*
X0157996Y0096304D01*
X0158641Y0097903D02*
X0183544Y0097903D01*
X0185142Y0099501D02*
X0158494Y0099501D01*
X0157458Y0101100D02*
X0186741Y0101100D01*
X0189201Y0097903D02*
X0191960Y0097903D01*
X0191960Y0099501D02*
X0190799Y0099501D01*
X0192398Y0101100D02*
X0192579Y0101100D01*
X0191945Y0096304D02*
X0187602Y0096304D01*
X0186004Y0094706D02*
X0190347Y0094706D01*
X0191617Y0080319D02*
X0192256Y0080319D01*
X0191960Y0078721D02*
X0190018Y0078721D01*
X0188420Y0077122D02*
X0192148Y0077122D01*
X0190882Y0075524D02*
X0186821Y0075524D01*
X0185223Y0073925D02*
X0189283Y0073925D01*
X0187685Y0072327D02*
X0183624Y0072327D01*
X0182026Y0070728D02*
X0186086Y0070728D01*
X0184488Y0069130D02*
X0180427Y0069130D01*
X0178829Y0067531D02*
X0182889Y0067531D01*
X0181291Y0065932D02*
X0177230Y0065932D01*
X0175632Y0064334D02*
X0179692Y0064334D01*
X0178094Y0062735D02*
X0174033Y0062735D01*
X0172435Y0061137D02*
X0176495Y0061137D01*
X0174897Y0059538D02*
X0170836Y0059538D01*
X0169238Y0057940D02*
X0173298Y0057940D01*
X0171700Y0056341D02*
X0167639Y0056341D01*
X0166041Y0054743D02*
X0170101Y0054743D01*
X0168503Y0053144D02*
X0164442Y0053144D01*
X0162844Y0051546D02*
X0166904Y0051546D01*
X0165306Y0049947D02*
X0161245Y0049947D01*
X0159647Y0048349D02*
X0163707Y0048349D01*
X0162109Y0046750D02*
X0158048Y0046750D01*
X0156450Y0045152D02*
X0160510Y0045152D01*
X0158912Y0043553D02*
X0154851Y0043553D01*
X0153253Y0041955D02*
X0157313Y0041955D01*
X0155714Y0040356D02*
X0151654Y0040356D01*
X0150056Y0038758D02*
X0154116Y0038758D01*
X0157141Y0035561D02*
X0200110Y0035561D01*
X0200110Y0037159D02*
X0158740Y0037159D01*
X0160338Y0038758D02*
X0200110Y0038758D01*
X0200110Y0040356D02*
X0161937Y0040356D01*
X0163536Y0041955D02*
X0200110Y0041955D01*
X0200110Y0043553D02*
X0165134Y0043553D01*
X0166733Y0045152D02*
X0200110Y0045152D01*
X0200110Y0046750D02*
X0168331Y0046750D01*
X0169930Y0048349D02*
X0200110Y0048349D01*
X0200110Y0049947D02*
X0171528Y0049947D01*
X0173127Y0051546D02*
X0200110Y0051546D01*
X0200110Y0053144D02*
X0174725Y0053144D01*
X0176324Y0054743D02*
X0200110Y0054743D01*
X0200110Y0056341D02*
X0177922Y0056341D01*
X0179521Y0057940D02*
X0200110Y0057940D01*
X0200110Y0059538D02*
X0181119Y0059538D01*
X0182718Y0061137D02*
X0200110Y0061137D01*
X0200110Y0062735D02*
X0184316Y0062735D01*
X0185915Y0064334D02*
X0193561Y0064334D01*
X0192242Y0065932D02*
X0187513Y0065932D01*
X0189112Y0067531D02*
X0191659Y0067531D01*
X0191577Y0069130D02*
X0190710Y0069130D01*
X0196860Y0067531D02*
X0197260Y0067531D01*
X0197260Y0065932D02*
X0196860Y0065932D01*
X0196860Y0064334D02*
X0197260Y0064334D01*
X0197060Y0078591D02*
X0147060Y0028591D01*
X0153944Y0032364D02*
X0200110Y0032364D01*
X0200110Y0033962D02*
X0155543Y0033962D01*
X0147187Y0051546D02*
X0125361Y0051546D01*
X0125770Y0061137D02*
X0146778Y0061137D01*
X0157400Y0075524D02*
X0161165Y0075524D01*
X0162763Y0077122D02*
X0158696Y0077122D01*
X0159041Y0078721D02*
X0164362Y0078721D01*
X0165960Y0080319D02*
X0158718Y0080319D01*
X0157482Y0081918D02*
X0167559Y0081918D01*
X0169157Y0083516D02*
X0142971Y0083516D01*
X0136577Y0077122D02*
X0151424Y0077122D01*
X0200110Y0017977D02*
X0068750Y0017977D01*
X0068708Y0018019D02*
X0067995Y0018538D01*
X0067210Y0018938D01*
X0066371Y0019210D01*
X0065501Y0019348D01*
X0065244Y0019348D01*
X0065244Y0013932D01*
X0070660Y0013932D01*
X0070660Y0014189D01*
X0070522Y0015059D01*
X0070250Y0015898D01*
X0069850Y0016683D01*
X0069331Y0017396D01*
X0068708Y0018019D01*
X0070005Y0016379D02*
X0200110Y0016379D01*
X0200110Y0014780D02*
X0070566Y0014780D01*
X0070660Y0013564D02*
X0065244Y0013564D01*
X0065244Y0013932D01*
X0064876Y0013932D01*
X0064876Y0013564D01*
X0065244Y0013564D01*
X0065244Y0008148D01*
X0065501Y0008148D01*
X0066371Y0008286D01*
X0067210Y0008558D01*
X0067995Y0008958D01*
X0068708Y0009477D01*
X0069331Y0010100D01*
X0069850Y0010813D01*
X0070250Y0011598D01*
X0070522Y0012437D01*
X0070660Y0013307D01*
X0070660Y0013564D01*
X0070640Y0013182D02*
X0200110Y0013182D01*
X0200110Y0011583D02*
X0070242Y0011583D01*
X0069216Y0009985D02*
X0200110Y0009985D01*
X0200110Y0008386D02*
X0066680Y0008386D01*
X0065244Y0008386D02*
X0064876Y0008386D01*
X0064876Y0008148D02*
X0064876Y0013564D01*
X0059460Y0013564D01*
X0059460Y0013307D01*
X0059598Y0012437D01*
X0059870Y0011598D01*
X0060270Y0010813D01*
X0060789Y0010100D01*
X0061412Y0009477D01*
X0062125Y0008958D01*
X0062910Y0008558D01*
X0063749Y0008286D01*
X0064619Y0008148D01*
X0064876Y0008148D01*
X0063440Y0008386D02*
X0036680Y0008386D01*
X0039216Y0009985D02*
X0060904Y0009985D01*
X0059878Y0011583D02*
X0040242Y0011583D01*
X0040640Y0013182D02*
X0059480Y0013182D01*
X0059460Y0013932D02*
X0064876Y0013932D01*
X0064876Y0019348D01*
X0064619Y0019348D01*
X0063749Y0019210D01*
X0062910Y0018938D01*
X0062125Y0018538D01*
X0061412Y0018019D01*
X0060789Y0017396D01*
X0060270Y0016683D01*
X0059870Y0015898D01*
X0059598Y0015059D01*
X0059460Y0014189D01*
X0059460Y0013932D01*
X0059554Y0014780D02*
X0040566Y0014780D01*
X0040005Y0016379D02*
X0060115Y0016379D01*
X0061370Y0017977D02*
X0038750Y0017977D01*
X0014833Y0006788D02*
X0200110Y0006788D01*
X0090060Y0085115D02*
X0090060Y0085115D01*
X0090060Y0086713D02*
X0090060Y0086713D01*
X0090060Y0088312D02*
X0090060Y0088312D01*
X0090060Y0088590D02*
X0090060Y0088591D01*
X0090060Y0088590D01*
X0090060Y0089910D02*
X0090060Y0089910D01*
X0090060Y0091509D02*
X0090060Y0091509D01*
X0084016Y0070728D02*
X0077866Y0070728D01*
X0078444Y0069130D02*
X0083460Y0069130D01*
X0083569Y0067531D02*
X0078219Y0067531D01*
X0077030Y0065932D02*
X0084461Y0065932D01*
X0083460Y0048349D02*
X0082804Y0048349D01*
X0083893Y0046750D02*
X0081206Y0046750D01*
X0065244Y0017977D02*
X0064876Y0017977D01*
X0064876Y0016379D02*
X0065244Y0016379D01*
X0065244Y0014780D02*
X0064876Y0014780D01*
X0064876Y0013182D02*
X0065244Y0013182D01*
X0065244Y0011583D02*
X0064876Y0011583D01*
X0064876Y0009985D02*
X0065244Y0009985D01*
X0161674Y0179427D02*
X0161674Y0179427D01*
X0161674Y0181025D02*
X0161674Y0181025D01*
X0161674Y0182624D02*
X0161674Y0182624D01*
M02*
