G75*
%MOIN*%
%OFA0B0*%
%FSLAX25Y25*%
%IPPOS*%
%LPD*%
%AMOC8*
5,1,8,0,0,1.08239X$1,22.5*
%
%ADD10C,0.00000*%
%ADD11C,0.00300*%
%ADD12C,0.00500*%
%ADD13C,0.00400*%
%ADD14R,0.00006X0.00000*%
%ADD15R,0.00006X0.00000*%
%ADD16R,0.00006X0.00000*%
%ADD17R,0.00006X0.00000*%
%ADD18R,0.00006X0.00000*%
%ADD19R,0.00000X0.00000*%
%ADD20R,0.00000X0.00000*%
%ADD21R,0.00000X0.00000*%
%ADD22R,0.00006X0.00000*%
%ADD23R,0.00005X0.00000*%
%ADD24R,0.00001X0.00000*%
%ADD25R,0.00001X0.00000*%
%ADD26R,0.00001X0.00000*%
%ADD27R,0.00001X0.00000*%
%ADD28R,0.00001X0.00000*%
%ADD29R,0.00001X0.00000*%
%ADD30R,0.00001X0.00000*%
%ADD31R,0.00002X0.00000*%
%ADD32R,0.00006X0.00000*%
%ADD33R,0.00031X0.00000*%
%ADD34R,0.00007X0.00000*%
%ADD35R,0.00031X0.00000*%
%ADD36R,0.00007X0.00000*%
%ADD37R,0.00031X0.00000*%
%ADD38R,0.00007X0.00000*%
%ADD39R,0.00007X0.00000*%
%ADD40R,0.00007X0.00000*%
%ADD41R,0.00007X0.00000*%
%ADD42R,0.00031X0.00000*%
%ADD43R,0.00008X0.00000*%
%ADD44R,0.00007X0.00000*%
%ADD45R,0.00008X0.00000*%
%ADD46R,0.00008X0.00000*%
%ADD47R,0.00008X0.00000*%
%ADD48R,0.00008X0.00000*%
%ADD49R,0.00008X0.00000*%
%ADD50R,0.00008X0.00000*%
%ADD51R,0.00008X0.00000*%
%ADD52R,0.00008X0.00000*%
%ADD53R,0.00009X0.00000*%
%ADD54R,0.00009X0.00000*%
%ADD55R,0.00009X0.00000*%
%ADD56R,0.00009X0.00000*%
%ADD57R,0.00009X0.00000*%
%ADD58R,0.00009X0.00000*%
%ADD59R,0.00009X0.00000*%
%ADD60R,0.00009X0.00000*%
%ADD61R,0.00010X0.00000*%
%ADD62R,0.00009X0.00000*%
%ADD63R,0.00010X0.00000*%
%ADD64R,0.00010X0.00000*%
%ADD65R,0.00010X0.00000*%
%ADD66R,0.00010X0.00000*%
%ADD67R,0.00010X0.00000*%
%ADD68R,0.00010X0.00000*%
%ADD69R,0.00010X0.00000*%
%ADD70R,0.00010X0.00000*%
%ADD71R,0.00011X0.00000*%
%ADD72R,0.00011X0.00000*%
%ADD73R,0.00011X0.00000*%
%ADD74R,0.00031X0.00000*%
%ADD75R,0.00030X0.00000*%
%ADD76R,0.00011X0.00000*%
%ADD77R,0.00029X0.00000*%
%ADD78R,0.00011X0.00000*%
%ADD79R,0.00029X0.00000*%
%ADD80R,0.00011X0.00000*%
%ADD81R,0.00028X0.00000*%
%ADD82R,0.00011X0.00000*%
%ADD83R,0.00027X0.00000*%
%ADD84R,0.00011X0.00000*%
%ADD85R,0.00027X0.00000*%
%ADD86R,0.00011X0.00000*%
%ADD87R,0.00025X0.00000*%
%ADD88R,0.00012X0.00000*%
%ADD89R,0.00025X0.00000*%
%ADD90R,0.00012X0.00000*%
%ADD91R,0.00024X0.00000*%
%ADD92R,0.00023X0.00000*%
%ADD93R,0.00012X0.00000*%
%ADD94R,0.00023X0.00000*%
%ADD95R,0.00012X0.00000*%
%ADD96R,0.00022X0.00000*%
%ADD97R,0.00021X0.00000*%
%ADD98R,0.00000X0.00000*%
%ADD99R,0.00012X0.00000*%
%ADD100R,0.00020X0.00000*%
%ADD101R,0.00012X0.00000*%
%ADD102R,0.00020X0.00000*%
%ADD103R,0.00012X0.00000*%
%ADD104R,0.00019X0.00000*%
%ADD105R,0.00012X0.00000*%
%ADD106R,0.00018X0.00000*%
%ADD107R,0.00017X0.00000*%
%ADD108R,0.00017X0.00000*%
%ADD109R,0.00013X0.00000*%
%ADD110R,0.00016X0.00000*%
%ADD111R,0.00013X0.00000*%
%ADD112R,0.00015X0.00000*%
%ADD113R,0.00013X0.00000*%
%ADD114R,0.00015X0.00000*%
%ADD115R,0.00013X0.00000*%
%ADD116R,0.00014X0.00000*%
%ADD117R,0.00013X0.00000*%
%ADD118R,0.00013X0.00000*%
%ADD119R,0.00013X0.00000*%
%ADD120R,0.00012X0.00000*%
%ADD121R,0.00013X0.00000*%
%ADD122R,0.00012X0.00000*%
%ADD123R,0.00013X0.00000*%
%ADD124R,0.00011X0.00000*%
%ADD125R,0.00013X0.00000*%
%ADD126R,0.00011X0.00000*%
%ADD127R,0.00013X0.00000*%
%ADD128R,0.00014X0.00000*%
%ADD129R,0.00010X0.00000*%
%ADD130R,0.00014X0.00000*%
%ADD131R,0.00014X0.00000*%
%ADD132R,0.00014X0.00000*%
%ADD133R,0.00014X0.00000*%
%ADD134R,0.00010X0.00000*%
%ADD135R,0.00014X0.00000*%
%ADD136R,0.00014X0.00000*%
%ADD137R,0.00014X0.00000*%
%ADD138R,0.00014X0.00000*%
%ADD139R,0.00014X0.00000*%
%ADD140R,0.00015X0.00000*%
%ADD141R,0.00009X0.00000*%
%ADD142R,0.00015X0.00000*%
%ADD143R,0.00015X0.00000*%
%ADD144R,0.00015X0.00000*%
%ADD145R,0.00009X0.00000*%
%ADD146R,0.00015X0.00000*%
%ADD147R,0.00015X0.00000*%
%ADD148R,0.00015X0.00000*%
%ADD149R,0.00015X0.00000*%
%ADD150R,0.00016X0.00000*%
%ADD151R,0.00015X0.00000*%
%ADD152R,0.00016X0.00000*%
%ADD153R,0.00016X0.00000*%
%ADD154R,0.00016X0.00000*%
%ADD155R,0.00016X0.00000*%
%ADD156R,0.00016X0.00000*%
%ADD157R,0.00016X0.00000*%
%ADD158R,0.00016X0.00000*%
%ADD159R,0.00016X0.00000*%
%ADD160R,0.00016X0.00000*%
%ADD161R,0.00017X0.00000*%
%ADD162R,0.00017X0.00000*%
%ADD163R,0.00017X0.00000*%
%ADD164R,0.00017X0.00000*%
%ADD165R,0.00017X0.00000*%
%ADD166R,0.00017X0.00000*%
%ADD167R,0.00017X0.00000*%
%ADD168R,0.00017X0.00000*%
%ADD169R,0.00018X0.00000*%
%ADD170R,0.00018X0.00000*%
%ADD171R,0.00018X0.00000*%
%ADD172R,0.00018X0.00000*%
%ADD173R,0.00018X0.00000*%
%ADD174R,0.00018X0.00000*%
%ADD175R,0.00018X0.00000*%
%ADD176R,0.00019X0.00000*%
%ADD177R,0.00019X0.00000*%
%ADD178R,0.00019X0.00000*%
%ADD179R,0.00019X0.00000*%
%ADD180R,0.00019X0.00000*%
%ADD181R,0.00019X0.00000*%
%ADD182R,0.00009X0.00000*%
%ADD183R,0.00019X0.00000*%
%ADD184R,0.00019X0.00000*%
%ADD185R,0.00020X0.00000*%
%ADD186R,0.00020X0.00000*%
%ADD187R,0.00020X0.00000*%
%ADD188R,0.00020X0.00000*%
%ADD189R,0.00020X0.00000*%
%ADD190R,0.00020X0.00000*%
%ADD191R,0.00020X0.00000*%
%ADD192R,0.00020X0.00000*%
%ADD193R,0.00021X0.00000*%
%ADD194R,0.00021X0.00000*%
%ADD195R,0.00021X0.00000*%
%ADD196R,0.00021X0.00000*%
%ADD197R,0.00021X0.00000*%
%ADD198R,0.00021X0.00000*%
%ADD199R,0.00021X0.00000*%
%ADD200R,0.00021X0.00000*%
%ADD201R,0.00022X0.00000*%
%ADD202R,0.00022X0.00000*%
%ADD203R,0.00022X0.00000*%
%ADD204R,0.00022X0.00000*%
%ADD205R,0.00022X0.00000*%
%ADD206R,0.00009X0.00000*%
%ADD207R,0.00022X0.00000*%
%ADD208R,0.00022X0.00000*%
%ADD209R,0.00022X0.00000*%
%ADD210R,0.00022X0.00000*%
%ADD211R,0.00023X0.00000*%
%ADD212R,0.00023X0.00000*%
%ADD213R,0.00023X0.00000*%
%ADD214R,0.00023X0.00000*%
%ADD215R,0.00023X0.00000*%
%ADD216R,0.00023X0.00000*%
%ADD217R,0.00023X0.00000*%
%ADD218R,0.00023X0.00000*%
%ADD219R,0.00023X0.00000*%
%ADD220R,0.00023X0.00000*%
%ADD221R,0.00023X0.00000*%
%ADD222R,0.00024X0.00000*%
%ADD223R,0.00024X0.00000*%
%ADD224R,0.00024X0.00000*%
%ADD225R,0.00024X0.00000*%
%ADD226R,0.00024X0.00000*%
%ADD227R,0.00024X0.00000*%
%ADD228R,0.00024X0.00000*%
%ADD229R,0.00024X0.00000*%
%ADD230R,0.00025X0.00000*%
%ADD231R,0.00025X0.00000*%
%ADD232R,0.00025X0.00000*%
%ADD233R,0.00025X0.00000*%
%ADD234R,0.00025X0.00000*%
%ADD235R,0.00025X0.00000*%
%ADD236R,0.00025X0.00000*%
%ADD237R,0.00025X0.00000*%
%ADD238R,0.00026X0.00000*%
%ADD239R,0.00026X0.00000*%
%ADD240R,0.00026X0.00000*%
%ADD241R,0.00026X0.00000*%
%ADD242R,0.00026X0.00000*%
%ADD243R,0.00026X0.00000*%
%ADD244R,0.00026X0.00000*%
%ADD245R,0.00026X0.00000*%
%ADD246R,0.00026X0.00000*%
%ADD247R,0.00026X0.00000*%
%ADD248R,0.00027X0.00000*%
%ADD249R,0.00027X0.00000*%
%ADD250R,0.00027X0.00000*%
%ADD251R,0.00018X0.00000*%
%ADD252R,0.00018X0.00000*%
%ADD253R,0.00009X0.00000*%
%ADD254R,0.00009X0.00000*%
%ADD255R,0.00018X0.00000*%
%ADD256R,0.00009X0.00000*%
%ADD257R,0.00018X0.00000*%
%ADD258R,0.00009X0.00000*%
%ADD259R,0.00018X0.00000*%
%ADD260R,0.00018X0.00000*%
%ADD261R,0.00018X0.00000*%
%ADD262R,0.00018X0.00000*%
%ADD263R,0.00018X0.00000*%
%ADD264R,0.00018X0.00000*%
%ADD265R,0.00018X0.00000*%
%ADD266R,0.00009X0.00000*%
%ADD267R,0.00026X0.00000*%
%ADD268R,0.00026X0.00000*%
%ADD269R,0.00026X0.00000*%
%ADD270R,0.00025X0.00000*%
%ADD271R,0.00025X0.00000*%
%ADD272R,0.00024X0.00000*%
%ADD273R,0.00024X0.00000*%
%ADD274R,0.00024X0.00000*%
%ADD275R,0.00024X0.00000*%
%ADD276R,0.00023X0.00000*%
%ADD277R,0.00023X0.00000*%
%ADD278R,0.00023X0.00000*%
%ADD279R,0.00022X0.00000*%
%ADD280R,0.00021X0.00000*%
%ADD281R,0.00021X0.00000*%
%ADD282R,0.00021X0.00000*%
%ADD283R,0.00020X0.00000*%
%ADD284R,0.00020X0.00000*%
%ADD285R,0.00020X0.00000*%
%ADD286R,0.00020X0.00000*%
%ADD287R,0.00019X0.00000*%
%ADD288R,0.00019X0.00000*%
%ADD289R,0.00019X0.00000*%
%ADD290R,0.00018X0.00000*%
%ADD291R,0.00018X0.00000*%
%ADD292R,0.00018X0.00000*%
%ADD293R,0.00009X0.00000*%
%ADD294R,0.00018X0.00000*%
%ADD295R,0.00010X0.00000*%
%ADD296R,0.00018X0.00000*%
%ADD297R,0.00010X0.00000*%
%ADD298R,0.00010X0.00000*%
%ADD299R,0.00018X0.00000*%
%ADD300R,0.00018X0.00000*%
%ADD301R,0.00011X0.00000*%
%ADD302R,0.00011X0.00000*%
%ADD303R,0.00012X0.00000*%
%ADD304R,0.00014X0.00000*%
%ADD305R,0.00018X0.00000*%
%ADD306R,0.00015X0.00000*%
%ADD307R,0.00017X0.00000*%
%ADD308R,0.00018X0.00000*%
%ADD309R,0.00021X0.00000*%
%ADD310R,0.00022X0.00000*%
%ADD311R,0.00027X0.00000*%
%ADD312R,0.00028X0.00000*%
%ADD313R,0.00028X0.00000*%
%ADD314R,0.00029X0.00000*%
%ADD315R,0.00030X0.00000*%
%ADD316R,0.00030X0.00000*%
%ADD317R,0.00030X0.00000*%
%ADD318R,0.00018X0.00000*%
%ADD319R,0.00031X0.00000*%
%ADD320R,0.00031X0.00000*%
%ADD321R,0.00031X0.00000*%
%ADD322R,0.00031X0.00000*%
%ADD323R,0.00032X0.00000*%
%ADD324R,0.00031X0.00000*%
%ADD325R,0.00031X0.00000*%
%ADD326R,0.00017X0.00000*%
%ADD327R,0.00017X0.00000*%
%ADD328R,0.00032X0.00000*%
%ADD329R,0.00017X0.00000*%
%ADD330R,0.00016X0.00000*%
%ADD331R,0.00016X0.00000*%
%ADD332R,0.00016X0.00000*%
%ADD333R,0.00015X0.00000*%
%ADD334R,0.00015X0.00000*%
%ADD335R,0.00015X0.00000*%
%ADD336R,0.00000X0.00000*%
%ADD337R,0.00002X0.00000*%
%ADD338R,0.00002X0.00000*%
%ADD339R,0.00001X0.00000*%
%ADD340R,0.00001X0.00000*%
%ADD341R,0.00002X0.00000*%
%ADD342R,0.00000X0.00000*%
%ADD343R,0.00001X0.00000*%
%ADD344R,0.00002X0.00000*%
%ADD345R,0.00118X0.00118*%
%ADD346R,0.01535X0.00118*%
%ADD347R,0.07323X0.00118*%
%ADD348R,0.07205X0.00118*%
%ADD349R,0.01654X0.00118*%
%ADD350R,0.07441X0.00118*%
%ADD351R,0.01772X0.00118*%
%ADD352R,0.01890X0.00118*%
%ADD353R,0.02008X0.00118*%
%ADD354R,0.02126X0.00118*%
%ADD355R,0.02244X0.00118*%
%ADD356R,0.02362X0.00118*%
%ADD357R,0.02480X0.00118*%
%ADD358R,0.02598X0.00118*%
%ADD359R,0.06496X0.00118*%
%ADD360R,0.02717X0.00118*%
%ADD361R,0.05551X0.00118*%
%ADD362R,0.04606X0.00118*%
%ADD363R,0.02835X0.00118*%
%ADD364R,0.03780X0.00118*%
%ADD365R,0.02953X0.00118*%
%ADD366R,0.03071X0.00118*%
%ADD367R,0.03189X0.00118*%
%ADD368R,0.03307X0.00118*%
%ADD369R,0.03425X0.00118*%
%ADD370R,0.03543X0.00118*%
%ADD371R,0.03661X0.00118*%
%ADD372R,0.03898X0.00118*%
%ADD373R,0.04016X0.00118*%
%ADD374R,0.04134X0.00118*%
%ADD375R,0.04252X0.00118*%
%ADD376R,0.04370X0.00118*%
%ADD377R,0.04488X0.00118*%
%ADD378R,0.04724X0.00118*%
%ADD379R,0.04961X0.00118*%
%ADD380R,0.05079X0.00118*%
%ADD381R,0.05197X0.00118*%
%ADD382R,0.05315X0.00118*%
%ADD383R,0.05433X0.00118*%
%ADD384R,0.05669X0.00118*%
%ADD385R,0.05787X0.00118*%
%ADD386R,0.05906X0.00118*%
%ADD387R,0.06024X0.00118*%
%ADD388R,0.06142X0.00118*%
%ADD389R,0.06260X0.00118*%
%ADD390R,0.06378X0.00118*%
%ADD391R,0.04843X0.00118*%
%ADD392R,0.06614X0.00118*%
%ADD393C,0.00800*%
%ADD394C,0.00600*%
%ADD395C,0.02400*%
D10*
X0005060Y0003000D02*
X0005218Y0003236D01*
X0005277Y0003236D02*
X0005277Y0003039D01*
X0005317Y0003000D01*
X0005396Y0003000D01*
X0005435Y0003039D01*
X0005435Y0003236D01*
X0005534Y0003158D02*
X0005653Y0003158D01*
X0005713Y0003118D02*
X0005752Y0003158D01*
X0005831Y0003158D01*
X0005870Y0003118D01*
X0005870Y0003079D01*
X0005713Y0003079D01*
X0005713Y0003118D02*
X0005713Y0003039D01*
X0005752Y0003000D01*
X0005831Y0003000D01*
X0005930Y0003000D02*
X0005930Y0003158D01*
X0006009Y0003158D02*
X0006048Y0003158D01*
X0006009Y0003158D02*
X0005930Y0003079D01*
X0006111Y0003118D02*
X0006151Y0003158D01*
X0006269Y0003158D01*
X0006229Y0003079D02*
X0006151Y0003079D01*
X0006111Y0003118D01*
X0006111Y0003000D02*
X0006229Y0003000D01*
X0006269Y0003039D01*
X0006229Y0003079D01*
X0006329Y0003000D02*
X0006486Y0003236D01*
X0006586Y0003158D02*
X0006664Y0003158D01*
X0006704Y0003118D01*
X0006704Y0003000D01*
X0006586Y0003000D01*
X0006546Y0003039D01*
X0006586Y0003079D01*
X0006704Y0003079D01*
X0006764Y0003000D02*
X0006843Y0003000D01*
X0006803Y0003000D02*
X0006803Y0003236D01*
X0006764Y0003236D01*
X0006909Y0003236D02*
X0006948Y0003236D01*
X0006948Y0003000D01*
X0006909Y0003000D02*
X0006988Y0003000D01*
X0007054Y0003039D02*
X0007054Y0003118D01*
X0007093Y0003158D01*
X0007172Y0003158D01*
X0007211Y0003118D01*
X0007211Y0003079D01*
X0007054Y0003079D01*
X0007054Y0003039D02*
X0007093Y0003000D01*
X0007172Y0003000D01*
X0007271Y0003000D02*
X0007271Y0003158D01*
X0007390Y0003158D01*
X0007429Y0003118D01*
X0007429Y0003000D01*
X0007528Y0003039D02*
X0007568Y0003000D01*
X0007528Y0003039D02*
X0007528Y0003197D01*
X0007489Y0003158D02*
X0007568Y0003158D01*
X0007673Y0003158D02*
X0007752Y0003158D01*
X0007791Y0003118D01*
X0007791Y0003000D01*
X0007673Y0003000D01*
X0007634Y0003039D01*
X0007673Y0003079D01*
X0007791Y0003079D01*
X0007851Y0003158D02*
X0007970Y0003158D01*
X0008009Y0003118D01*
X0008009Y0003000D01*
X0008069Y0003039D02*
X0008108Y0003000D01*
X0008226Y0003000D01*
X0008226Y0002961D02*
X0008226Y0003158D01*
X0008108Y0003158D01*
X0008069Y0003118D01*
X0008069Y0003039D01*
X0008148Y0002921D02*
X0008187Y0002921D01*
X0008226Y0002961D01*
X0008286Y0003000D02*
X0008444Y0003000D01*
X0008504Y0003039D02*
X0008543Y0003000D01*
X0008622Y0003000D01*
X0008661Y0003039D01*
X0008661Y0003197D01*
X0008622Y0003236D01*
X0008543Y0003236D01*
X0008504Y0003197D01*
X0008504Y0003158D01*
X0008543Y0003118D01*
X0008661Y0003118D01*
X0008721Y0003158D02*
X0008761Y0003118D01*
X0008879Y0003118D01*
X0008939Y0003118D02*
X0009057Y0003118D01*
X0009096Y0003079D01*
X0009096Y0003039D01*
X0009057Y0003000D01*
X0008978Y0003000D01*
X0008939Y0003039D01*
X0008939Y0003118D01*
X0009018Y0003197D01*
X0009096Y0003236D01*
X0009314Y0003236D02*
X0009156Y0003000D01*
X0009374Y0003000D02*
X0009492Y0003000D01*
X0009531Y0003039D01*
X0009531Y0003197D01*
X0009492Y0003236D01*
X0009374Y0003236D01*
X0009374Y0003000D01*
X0009591Y0003039D02*
X0009631Y0003000D01*
X0009710Y0003000D01*
X0009749Y0003039D01*
X0009749Y0003118D01*
X0009710Y0003158D01*
X0009631Y0003158D01*
X0009591Y0003118D01*
X0009591Y0003039D01*
X0009809Y0003039D02*
X0009848Y0003000D01*
X0009888Y0003039D01*
X0009927Y0003000D01*
X0009966Y0003039D01*
X0009966Y0003158D01*
X0010026Y0003158D02*
X0010145Y0003158D01*
X0010184Y0003118D01*
X0010184Y0003000D01*
X0010244Y0003000D02*
X0010323Y0003000D01*
X0010283Y0003000D02*
X0010283Y0003236D01*
X0010244Y0003236D01*
X0010389Y0003118D02*
X0010389Y0003039D01*
X0010428Y0003000D01*
X0010507Y0003000D01*
X0010547Y0003039D01*
X0010547Y0003118D01*
X0010507Y0003158D01*
X0010428Y0003158D01*
X0010389Y0003118D01*
X0010606Y0003039D02*
X0010646Y0003079D01*
X0010764Y0003079D01*
X0010764Y0003118D02*
X0010764Y0003000D01*
X0010646Y0003000D01*
X0010606Y0003039D01*
X0010646Y0003158D02*
X0010725Y0003158D01*
X0010764Y0003118D01*
X0010824Y0003118D02*
X0010863Y0003158D01*
X0010982Y0003158D01*
X0011041Y0003118D02*
X0011081Y0003158D01*
X0011199Y0003158D01*
X0011160Y0003079D02*
X0011081Y0003079D01*
X0011041Y0003118D01*
X0011041Y0003000D02*
X0011160Y0003000D01*
X0011199Y0003039D01*
X0011160Y0003079D01*
X0011259Y0003000D02*
X0011417Y0003236D01*
X0011476Y0003158D02*
X0011595Y0003158D01*
X0011634Y0003118D01*
X0011634Y0003000D01*
X0011694Y0003039D02*
X0011733Y0003000D01*
X0011812Y0003000D01*
X0011852Y0003039D01*
X0011852Y0003118D01*
X0011812Y0003158D01*
X0011733Y0003158D01*
X0011694Y0003118D01*
X0011694Y0003039D01*
X0011911Y0003000D02*
X0011911Y0003158D01*
X0011911Y0003079D02*
X0011990Y0003158D01*
X0012030Y0003158D01*
X0012093Y0003158D02*
X0012172Y0003158D01*
X0012132Y0003197D02*
X0012132Y0003039D01*
X0012172Y0003000D01*
X0012238Y0003000D02*
X0012238Y0003236D01*
X0012277Y0003158D02*
X0012356Y0003158D01*
X0012395Y0003118D01*
X0012395Y0003000D01*
X0012455Y0003039D02*
X0012495Y0003000D01*
X0012534Y0003039D01*
X0012573Y0003000D01*
X0012613Y0003039D01*
X0012613Y0003158D01*
X0012673Y0003118D02*
X0012712Y0003158D01*
X0012791Y0003158D01*
X0012830Y0003118D01*
X0012830Y0003079D01*
X0012673Y0003079D01*
X0012673Y0003118D02*
X0012673Y0003039D01*
X0012712Y0003000D01*
X0012791Y0003000D01*
X0012890Y0003000D02*
X0013008Y0003000D01*
X0013048Y0003039D01*
X0013008Y0003079D01*
X0012930Y0003079D01*
X0012890Y0003118D01*
X0012930Y0003158D01*
X0013048Y0003158D01*
X0013108Y0003158D02*
X0013187Y0003158D01*
X0013147Y0003197D02*
X0013147Y0003039D01*
X0013187Y0003000D01*
X0013253Y0003039D02*
X0013253Y0003118D01*
X0013292Y0003158D01*
X0013371Y0003158D01*
X0013410Y0003118D01*
X0013410Y0003079D01*
X0013253Y0003079D01*
X0013253Y0003039D02*
X0013292Y0003000D01*
X0013371Y0003000D01*
X0013470Y0003000D02*
X0013470Y0003158D01*
X0013549Y0003158D02*
X0013588Y0003158D01*
X0013549Y0003158D02*
X0013470Y0003079D01*
X0013652Y0003158D02*
X0013770Y0003158D01*
X0013809Y0003118D01*
X0013809Y0003000D01*
X0013869Y0003118D02*
X0014027Y0003118D01*
X0014087Y0003158D02*
X0014087Y0003039D01*
X0014126Y0003000D01*
X0014244Y0003000D01*
X0014244Y0003158D01*
X0014304Y0003158D02*
X0014422Y0003158D01*
X0014462Y0003118D01*
X0014462Y0003000D01*
X0014522Y0003000D02*
X0014600Y0003000D01*
X0014561Y0003000D02*
X0014561Y0003158D01*
X0014522Y0003158D01*
X0014561Y0003236D02*
X0014561Y0003276D01*
X0014667Y0003118D02*
X0014824Y0003118D01*
X0014884Y0003000D02*
X0014963Y0003000D01*
X0014923Y0003000D02*
X0014923Y0003236D01*
X0014884Y0003236D01*
X0015029Y0003118D02*
X0015029Y0003039D01*
X0015068Y0003000D01*
X0015147Y0003000D01*
X0015187Y0003039D01*
X0015187Y0003118D01*
X0015147Y0003158D01*
X0015068Y0003158D01*
X0015029Y0003118D01*
X0015247Y0003118D02*
X0015247Y0003039D01*
X0015286Y0003000D01*
X0015404Y0003000D01*
X0015404Y0002961D02*
X0015404Y0003158D01*
X0015286Y0003158D01*
X0015247Y0003118D01*
X0015325Y0002921D02*
X0015365Y0002921D01*
X0015404Y0002961D01*
X0015464Y0003039D02*
X0015503Y0003000D01*
X0015582Y0003000D01*
X0015622Y0003039D01*
X0015622Y0003118D01*
X0015582Y0003158D01*
X0015503Y0003158D01*
X0015464Y0003118D01*
X0015464Y0003039D01*
X0015682Y0003039D02*
X0015721Y0003039D01*
X0015721Y0003000D01*
X0015682Y0003000D01*
X0015682Y0003039D01*
X0015790Y0003000D02*
X0015909Y0003000D01*
X0015948Y0003039D01*
X0015948Y0003118D01*
X0015909Y0003158D01*
X0015790Y0003158D01*
X0015790Y0003236D02*
X0015790Y0003000D01*
X0016008Y0003000D02*
X0016008Y0003158D01*
X0016047Y0003158D01*
X0016087Y0003118D01*
X0016126Y0003158D01*
X0016165Y0003118D01*
X0016165Y0003000D01*
X0016225Y0003000D02*
X0016344Y0003000D01*
X0016383Y0003039D01*
X0016383Y0003118D01*
X0016344Y0003158D01*
X0016225Y0003158D01*
X0016225Y0002921D01*
X0016087Y0003000D02*
X0016087Y0003118D01*
X0014304Y0003158D02*
X0014304Y0003000D01*
X0013652Y0003000D02*
X0013652Y0003158D01*
X0012455Y0003158D02*
X0012455Y0003039D01*
X0012277Y0003158D02*
X0012238Y0003118D01*
X0011476Y0003158D02*
X0011476Y0003000D01*
X0010982Y0003000D02*
X0010863Y0003000D01*
X0010824Y0003039D01*
X0010824Y0003118D01*
X0010982Y0003236D02*
X0010982Y0003000D01*
X0010026Y0003000D02*
X0010026Y0003158D01*
X0009809Y0003158D02*
X0009809Y0003039D01*
X0008879Y0003039D02*
X0008879Y0003197D01*
X0008840Y0003236D01*
X0008761Y0003236D01*
X0008721Y0003197D01*
X0008721Y0003158D01*
X0008721Y0003039D02*
X0008761Y0003000D01*
X0008840Y0003000D01*
X0008879Y0003039D01*
X0008365Y0003000D02*
X0008365Y0003236D01*
X0008286Y0003158D01*
X0007851Y0003158D02*
X0007851Y0003000D01*
X0005653Y0003039D02*
X0005613Y0003079D01*
X0005534Y0003079D01*
X0005495Y0003118D01*
X0005534Y0003158D01*
X0005495Y0003000D02*
X0005613Y0003000D01*
X0005653Y0003039D01*
X0005075Y0003590D02*
X0005075Y0003590D01*
X0005075Y0003590D01*
X0005075Y0003590D01*
X0005075Y0003590D01*
X0005075Y0003590D01*
X0005075Y0003590D01*
X0005075Y0003590D01*
X0005075Y0003590D01*
X0005075Y0003590D01*
X0005075Y0003590D01*
X0005075Y0003590D01*
X0005075Y0003590D01*
X0005075Y0003590D01*
X0005075Y0003590D01*
X0005075Y0003590D01*
X0005075Y0003590D01*
X0005075Y0003590D01*
X0005075Y0003590D01*
X0005075Y0003590D01*
X0005075Y0003590D01*
X0005075Y0003590D01*
X0005075Y0003590D01*
X0005075Y0003590D01*
X0005075Y0003590D01*
X0005075Y0003590D01*
X0005075Y0003590D01*
X0005075Y0003590D01*
X0005075Y0003590D01*
X0005075Y0003590D01*
X0005075Y0003590D01*
X0005075Y0003590D01*
X0005075Y0003590D01*
X0005075Y0003590D01*
X0005075Y0003590D01*
X0005075Y0003590D01*
X0005075Y0003590D01*
X0005075Y0003590D01*
X0005075Y0003590D01*
X0005075Y0003590D01*
X0005075Y0003590D01*
X0005075Y0003590D01*
X0005075Y0003590D01*
X0005074Y0003590D01*
X0005074Y0003590D01*
X0005074Y0003590D01*
X0005074Y0003590D01*
X0005074Y0003590D01*
X0005074Y0003590D01*
X0005074Y0003590D01*
X0005074Y0003590D01*
X0005074Y0003590D01*
X0005074Y0003590D01*
X0005074Y0003590D01*
X0005074Y0003590D01*
X0005074Y0003590D01*
X0005074Y0003590D01*
X0005074Y0003590D01*
X0005074Y0003590D01*
X0005074Y0003590D01*
X0005074Y0003590D01*
X0005074Y0003590D01*
X0005073Y0003590D01*
X0005073Y0003590D01*
X0005073Y0003590D01*
X0005073Y0003590D01*
X0005073Y0003590D01*
X0005073Y0003590D01*
X0005073Y0003590D01*
X0005073Y0003590D01*
X0005073Y0003590D01*
X0005073Y0003590D01*
X0005073Y0003590D01*
X0005073Y0003590D01*
X0005073Y0003590D01*
X0005073Y0003590D01*
X0005073Y0003590D01*
X0005073Y0003590D01*
X0005073Y0003590D01*
X0005073Y0003590D01*
X0005073Y0003590D01*
X0005073Y0003590D01*
X0005073Y0003590D01*
X0005073Y0003590D01*
X0005073Y0003590D01*
X0005073Y0003590D01*
X0005073Y0003590D01*
X0005073Y0003590D01*
X0005073Y0003590D01*
X0005073Y0003590D01*
X0005073Y0003590D01*
X0005073Y0003590D01*
X0005073Y0003590D01*
X0005073Y0003590D01*
X0005073Y0003590D01*
X0005073Y0003590D01*
X0005073Y0003590D01*
X0005072Y0003590D01*
X0005072Y0003590D01*
X0005072Y0003590D01*
X0005072Y0003590D01*
X0005072Y0003590D01*
X0005072Y0003590D01*
X0005072Y0003590D01*
X0005072Y0003590D01*
X0005072Y0003590D01*
X0005072Y0003590D01*
X0005072Y0003590D01*
X0005072Y0003590D01*
X0005072Y0003590D01*
X0005072Y0003590D01*
X0005072Y0003590D01*
X0005072Y0003590D01*
X0005072Y0003590D01*
X0005072Y0003590D01*
X0005072Y0003590D01*
X0005072Y0003590D01*
X0005072Y0003590D01*
X0005072Y0003590D01*
X0005072Y0003590D01*
X0005072Y0003590D01*
X0005072Y0003590D01*
X0005072Y0003590D01*
X0005072Y0003590D01*
X0005072Y0003590D01*
X0005071Y0003590D01*
X0005071Y0003590D01*
X0005071Y0003590D01*
X0005071Y0003590D01*
X0005071Y0003590D01*
X0005071Y0003590D01*
X0005071Y0003590D01*
X0005071Y0003590D01*
X0005071Y0003590D01*
X0005071Y0003590D01*
X0005071Y0003590D01*
X0005071Y0003590D01*
X0005071Y0003590D01*
X0005071Y0003590D01*
X0005071Y0003590D01*
X0005071Y0003590D01*
X0005071Y0003590D01*
X0005071Y0003590D01*
X0005071Y0003590D01*
X0005071Y0003590D01*
X0005071Y0003590D01*
X0005071Y0003590D01*
X0005071Y0003590D01*
X0005071Y0003590D01*
X0005071Y0003590D01*
X0005071Y0003590D01*
X0005071Y0003590D01*
X0005071Y0003590D01*
X0005071Y0003590D01*
X0005071Y0003590D01*
X0005071Y0003590D01*
X0005070Y0003590D01*
X0005070Y0003590D01*
X0005070Y0003590D01*
X0005070Y0003590D01*
X0005070Y0003590D01*
X0005070Y0003590D01*
X0005070Y0003590D01*
X0005070Y0003590D01*
X0005070Y0003590D01*
X0005070Y0003590D01*
X0005070Y0003590D01*
X0005070Y0003590D01*
X0005070Y0003590D01*
X0005070Y0003590D01*
X0005070Y0003590D01*
X0005070Y0003590D01*
X0005070Y0003590D01*
X0005070Y0003590D01*
X0005070Y0003590D01*
X0005070Y0003590D01*
X0005070Y0003590D01*
X0005070Y0003590D01*
X0005070Y0003590D01*
X0005070Y0003590D01*
X0005070Y0003590D01*
X0005070Y0003590D01*
X0005069Y0003590D02*
X0005069Y0003590D01*
X0005069Y0003590D01*
X0005069Y0003590D01*
X0005069Y0003590D01*
X0005069Y0003590D01*
X0005069Y0003590D01*
X0005069Y0003590D01*
X0005069Y0003590D01*
X0005069Y0003590D01*
X0005069Y0003590D01*
X0005069Y0003590D01*
X0005069Y0003590D01*
X0005069Y0003590D01*
X0005069Y0003590D01*
X0005069Y0003590D01*
X0005069Y0003590D01*
X0005069Y0003590D01*
X0005069Y0003590D01*
X0005069Y0003590D01*
X0005069Y0003590D01*
X0005069Y0003590D01*
X0005069Y0003590D01*
X0005069Y0003590D01*
X0005069Y0003590D01*
X0005069Y0003590D01*
X0005069Y0003590D01*
X0005069Y0003590D01*
X0005069Y0003590D01*
X0005069Y0003590D01*
X0005069Y0003590D01*
X0005069Y0003590D01*
X0005069Y0003590D01*
X0005069Y0003590D01*
X0005069Y0003590D01*
X0005069Y0003590D01*
X0005069Y0003590D01*
X0005069Y0003590D01*
X0005068Y0003590D01*
X0005068Y0003590D01*
X0005068Y0003590D01*
X0005068Y0003590D01*
X0005068Y0003590D01*
X0005068Y0003590D01*
X0005068Y0003590D01*
X0005068Y0003590D01*
X0005068Y0003590D01*
X0005068Y0003590D01*
X0005068Y0003590D01*
X0005068Y0003590D01*
X0005068Y0003590D01*
X0005068Y0003590D01*
X0005068Y0003590D01*
X0005068Y0003590D01*
X0005068Y0003590D01*
X0005068Y0003590D01*
X0005068Y0003590D01*
X0005068Y0003590D01*
X0005068Y0003590D01*
X0005068Y0003590D01*
X0005068Y0003590D01*
X0005068Y0003590D01*
X0005067Y0003590D01*
X0005067Y0003590D01*
X0005067Y0003590D01*
X0005067Y0003590D01*
X0005067Y0003590D01*
X0005067Y0003590D01*
X0005067Y0003590D01*
X0005067Y0003590D01*
X0005067Y0003590D01*
X0005067Y0003590D01*
X0005067Y0003590D01*
X0005067Y0003590D01*
X0005067Y0003590D01*
X0005067Y0003590D01*
X0005067Y0003590D01*
X0005067Y0003590D01*
X0005067Y0003590D01*
X0005067Y0003590D01*
X0005066Y0003590D01*
X0005066Y0003590D01*
X0005066Y0003590D01*
X0005066Y0003590D01*
X0005066Y0003590D01*
X0005066Y0003590D01*
X0005066Y0003590D01*
X0005066Y0003590D01*
X0005066Y0003590D01*
X0005066Y0003590D01*
X0005066Y0003590D01*
X0005066Y0003590D01*
X0005066Y0003590D01*
X0005066Y0003590D01*
X0005066Y0003590D01*
X0005066Y0003590D01*
X0005066Y0003590D01*
X0005066Y0003590D01*
X0005066Y0003590D01*
X0005066Y0003590D01*
X0005066Y0003590D01*
X0005066Y0003590D01*
X0005066Y0003590D01*
X0005066Y0003590D01*
X0005066Y0003590D01*
X0005066Y0003590D01*
X0005066Y0003590D01*
X0005066Y0003590D01*
X0005066Y0003590D01*
X0005066Y0003590D01*
X0005066Y0003590D01*
X0005066Y0003590D01*
X0005066Y0003590D01*
X0005066Y0003590D01*
X0005066Y0003590D01*
X0005066Y0003590D01*
X0005067Y0003590D01*
X0005067Y0003590D01*
X0005067Y0003590D01*
X0005067Y0003590D01*
X0005066Y0003590D01*
X0005065Y0003590D01*
X0005065Y0003590D01*
X0005065Y0003590D01*
X0005065Y0003590D01*
X0005065Y0003590D01*
X0005065Y0003590D01*
X0005065Y0003590D01*
X0005065Y0003590D01*
X0005065Y0003590D01*
X0005065Y0003590D01*
X0005065Y0003590D01*
X0005065Y0003590D01*
X0005065Y0003590D01*
X0005065Y0003590D01*
X0005065Y0003590D01*
X0005065Y0003590D01*
X0005065Y0003590D01*
X0005065Y0003590D01*
X0005065Y0003590D01*
X0005065Y0003590D01*
X0005065Y0003590D01*
X0005065Y0003590D01*
X0005065Y0003590D01*
X0005065Y0003590D01*
X0005065Y0003590D01*
X0005065Y0003590D01*
X0005065Y0003590D01*
X0005064Y0003590D01*
X0005064Y0003590D01*
X0005064Y0003590D01*
X0005064Y0003590D01*
X0005064Y0003590D01*
X0005064Y0003590D01*
X0005064Y0003590D01*
X0005064Y0003590D01*
X0005064Y0003590D01*
X0005064Y0003590D01*
X0005064Y0003590D01*
X0005064Y0003590D01*
X0005064Y0003590D01*
X0005064Y0003590D01*
X0005064Y0003590D01*
X0005064Y0003590D01*
X0005064Y0003590D01*
X0005064Y0003590D01*
X0005064Y0003590D01*
X0005064Y0003590D01*
X0005064Y0003590D01*
X0005064Y0003590D01*
X0005064Y0003590D01*
X0005064Y0003590D01*
X0005064Y0003590D01*
X0005064Y0003590D01*
X0005064Y0003590D01*
X0005064Y0003590D01*
X0005064Y0003590D01*
X0005064Y0003590D01*
X0005064Y0003590D01*
X0005064Y0003590D01*
X0005064Y0003590D01*
X0005064Y0003590D01*
X0005064Y0003590D01*
X0005063Y0003590D01*
X0005063Y0003590D01*
X0005063Y0003590D01*
X0005063Y0003590D01*
X0005063Y0003590D01*
X0005063Y0003590D01*
X0005063Y0003590D01*
X0005063Y0003590D01*
X0005063Y0003590D01*
X0005063Y0003590D01*
X0005063Y0003590D01*
X0005063Y0003590D01*
X0005063Y0003590D01*
X0005063Y0003590D01*
X0005063Y0003590D01*
X0005063Y0003590D01*
X0005063Y0003590D01*
X0005063Y0003590D01*
X0005063Y0003590D01*
X0005063Y0003590D01*
X0005063Y0003590D01*
X0005063Y0003590D01*
X0005063Y0003590D01*
X0005063Y0003590D01*
X0005063Y0003590D01*
X0005063Y0003590D01*
X0005063Y0003590D01*
X0005063Y0003590D01*
X0005063Y0003590D01*
X0005063Y0003590D01*
X0005063Y0003590D01*
X0005063Y0003590D01*
X0005063Y0003590D01*
X0005063Y0003590D01*
X0005063Y0003590D01*
X0005063Y0003590D01*
X0005063Y0003590D01*
X0005062Y0003590D02*
X0005062Y0003590D01*
X0005062Y0003590D01*
X0005062Y0003590D01*
X0005062Y0003590D01*
X0005062Y0003590D01*
X0005062Y0003590D01*
X0005062Y0003590D01*
X0005062Y0003590D01*
X0005062Y0003590D01*
X0005062Y0003590D01*
X0005062Y0003590D01*
X0005062Y0003590D01*
X0005062Y0003590D01*
X0005062Y0003590D01*
X0005062Y0003590D01*
X0005062Y0003590D01*
X0005062Y0003590D01*
X0005062Y0003590D01*
X0005062Y0003590D01*
X0005062Y0003590D01*
X0005062Y0003590D01*
X0005062Y0003590D01*
X0005062Y0003590D01*
X0005062Y0003590D01*
X0005062Y0003590D01*
X0005062Y0003590D01*
X0005062Y0003590D01*
X0005062Y0003590D01*
X0005062Y0003590D01*
X0005062Y0003590D01*
X0005062Y0003590D01*
X0005062Y0003590D01*
X0005062Y0003590D01*
X0005061Y0003590D01*
X0005061Y0003590D01*
X0005061Y0003590D01*
X0005061Y0003590D01*
X0005061Y0003590D01*
X0005061Y0003590D01*
X0005061Y0003590D01*
X0005061Y0003590D01*
X0005061Y0003590D01*
X0005061Y0003590D01*
X0005061Y0003590D01*
X0005061Y0003590D01*
X0005061Y0003590D01*
X0005061Y0003590D01*
X0005061Y0003590D01*
X0005061Y0003590D01*
X0005061Y0003590D01*
X0005061Y0003590D01*
X0005061Y0003590D01*
X0005061Y0003590D01*
X0005061Y0003590D01*
X0005061Y0003590D01*
X0005061Y0003590D01*
X0005061Y0003590D01*
X0005061Y0003590D01*
X0005061Y0003590D01*
X0005061Y0003590D01*
X0005061Y0003590D01*
X0005061Y0003590D01*
X0005061Y0003590D01*
X0005061Y0003590D01*
X0005061Y0003590D01*
X0005060Y0003590D02*
X0005060Y0003590D01*
X0005060Y0003590D01*
X0005060Y0003590D01*
X0005060Y0003590D01*
X0005060Y0003590D01*
X0005060Y0003590D01*
X0005060Y0003590D01*
X0005060Y0003590D01*
X0005060Y0003590D01*
X0005060Y0003590D01*
X0005060Y0003590D01*
X0005060Y0003590D01*
X0005060Y0003590D01*
X0005060Y0003591D02*
X0005060Y0200441D01*
X0201910Y0200441D01*
X0201910Y0003591D01*
X0005060Y0003591D01*
X0005062Y0003590D02*
X0005062Y0003590D01*
X0005063Y0003590D02*
X0005064Y0003590D01*
X0005069Y0003590D02*
X0005069Y0003590D01*
X0005074Y0003590D02*
X0005074Y0003590D01*
X0005075Y0003590D01*
D11*
X0017827Y0066741D02*
X0019062Y0066741D01*
X0019679Y0067358D01*
X0019679Y0068592D01*
X0018444Y0068592D01*
X0017210Y0067358D02*
X0017827Y0066741D01*
X0017210Y0067358D02*
X0017210Y0069827D01*
X0017827Y0070444D01*
X0019062Y0070444D01*
X0019679Y0069827D01*
X0020893Y0070444D02*
X0023362Y0066741D01*
X0023362Y0070444D01*
X0024576Y0070444D02*
X0026428Y0070444D01*
X0027045Y0069827D01*
X0027045Y0067358D01*
X0026428Y0066741D01*
X0024576Y0066741D01*
X0024576Y0070444D01*
X0020893Y0070444D02*
X0020893Y0066741D01*
X0020893Y0076741D02*
X0022745Y0076741D01*
X0023362Y0077358D01*
X0023362Y0079827D01*
X0022745Y0080444D01*
X0020893Y0080444D01*
X0020893Y0076741D01*
X0019679Y0077975D02*
X0019679Y0080444D01*
X0017210Y0080444D02*
X0017210Y0077975D01*
X0018444Y0076741D01*
X0019679Y0077975D01*
X0024576Y0076741D02*
X0026428Y0076741D01*
X0027045Y0077358D01*
X0027045Y0079827D01*
X0026428Y0080444D01*
X0024576Y0080444D01*
X0024576Y0076741D01*
X0022745Y0086741D02*
X0022745Y0090444D01*
X0020893Y0088592D01*
X0023362Y0088592D01*
X0019679Y0088592D02*
X0017210Y0088592D01*
X0017210Y0089209D02*
X0018444Y0090444D01*
X0019679Y0089209D01*
X0019679Y0086741D01*
X0017210Y0086741D02*
X0017210Y0089209D01*
X0017210Y0096741D02*
X0019062Y0096741D01*
X0019679Y0097358D01*
X0019679Y0097975D01*
X0019062Y0098592D01*
X0017210Y0098592D01*
X0017210Y0096741D02*
X0017210Y0100444D01*
X0019062Y0100444D01*
X0019679Y0099827D01*
X0019679Y0099209D01*
X0019062Y0098592D01*
X0020893Y0098592D02*
X0022745Y0100444D01*
X0022745Y0096741D01*
X0023362Y0098592D02*
X0020893Y0098592D01*
X0021510Y0106741D02*
X0020893Y0107358D01*
X0021510Y0106741D02*
X0022745Y0106741D01*
X0023362Y0107358D01*
X0023362Y0107975D01*
X0022745Y0108592D01*
X0022128Y0108592D01*
X0022745Y0108592D02*
X0023362Y0109209D01*
X0023362Y0109827D01*
X0022745Y0110444D01*
X0021510Y0110444D01*
X0020893Y0109827D01*
X0019679Y0109827D02*
X0019679Y0109209D01*
X0019062Y0108592D01*
X0017210Y0108592D01*
X0017210Y0106741D02*
X0019062Y0106741D01*
X0019679Y0107358D01*
X0019679Y0107975D01*
X0019062Y0108592D01*
X0019679Y0109827D02*
X0019062Y0110444D01*
X0017210Y0110444D01*
X0017210Y0106741D01*
X0017210Y0116741D02*
X0019062Y0116741D01*
X0019679Y0117358D01*
X0019679Y0117975D01*
X0019062Y0118592D01*
X0017210Y0118592D01*
X0017210Y0116741D02*
X0017210Y0120444D01*
X0019062Y0120444D01*
X0019679Y0119827D01*
X0019679Y0119209D01*
X0019062Y0118592D01*
X0020893Y0119827D02*
X0021510Y0120444D01*
X0022745Y0120444D01*
X0023362Y0119827D01*
X0023362Y0119209D01*
X0020893Y0116741D01*
X0023362Y0116741D01*
X0023362Y0126741D02*
X0020893Y0126741D01*
X0019679Y0126741D02*
X0019679Y0129209D01*
X0018444Y0130444D01*
X0017210Y0129209D01*
X0017210Y0126741D01*
X0017210Y0128592D02*
X0019679Y0128592D01*
X0020893Y0129209D02*
X0022128Y0130444D01*
X0022128Y0126741D01*
X0022745Y0136741D02*
X0021510Y0136741D01*
X0020893Y0137358D01*
X0023362Y0139827D01*
X0023362Y0137358D01*
X0022745Y0136741D01*
X0020893Y0137358D02*
X0020893Y0139827D01*
X0021510Y0140444D01*
X0022745Y0140444D01*
X0023362Y0139827D01*
X0019679Y0139209D02*
X0019679Y0136741D01*
X0019679Y0138592D02*
X0017210Y0138592D01*
X0017210Y0139209D02*
X0017210Y0136741D01*
X0017210Y0139209D02*
X0018444Y0140444D01*
X0019679Y0139209D01*
X0131210Y0176358D02*
X0131827Y0175741D01*
X0133062Y0175741D01*
X0133679Y0176358D01*
X0133679Y0178827D01*
X0133062Y0179444D01*
X0131827Y0179444D01*
X0131210Y0178827D01*
X0131210Y0176358D01*
X0134893Y0175741D02*
X0134893Y0179444D01*
X0137362Y0175741D01*
X0137362Y0179444D01*
X0180210Y0140444D02*
X0180210Y0136741D01*
X0182062Y0136741D01*
X0182679Y0137358D01*
X0182679Y0137975D01*
X0182062Y0138592D01*
X0180210Y0138592D01*
X0182062Y0138592D02*
X0182679Y0139209D01*
X0182679Y0139827D01*
X0182062Y0140444D01*
X0180210Y0140444D01*
X0183893Y0139209D02*
X0185128Y0140444D01*
X0185128Y0136741D01*
X0186362Y0136741D02*
X0183893Y0136741D01*
X0187576Y0137358D02*
X0188193Y0136741D01*
X0189428Y0136741D01*
X0190045Y0137358D01*
X0190045Y0138592D01*
X0189428Y0139209D01*
X0188811Y0139209D01*
X0187576Y0138592D01*
X0187576Y0140444D01*
X0190045Y0140444D01*
X0189428Y0130444D02*
X0187576Y0128592D01*
X0190045Y0128592D01*
X0189428Y0126741D02*
X0189428Y0130444D01*
X0185128Y0130444D02*
X0185128Y0126741D01*
X0186362Y0126741D02*
X0183893Y0126741D01*
X0182679Y0127358D02*
X0182062Y0126741D01*
X0180210Y0126741D01*
X0180210Y0130444D01*
X0182062Y0130444D01*
X0182679Y0129827D01*
X0182679Y0129209D01*
X0182062Y0128592D01*
X0180210Y0128592D01*
X0182062Y0128592D02*
X0182679Y0127975D01*
X0182679Y0127358D01*
X0183893Y0129209D02*
X0185128Y0130444D01*
X0185128Y0120444D02*
X0185128Y0116741D01*
X0186362Y0116741D02*
X0183893Y0116741D01*
X0182679Y0117358D02*
X0182062Y0116741D01*
X0180210Y0116741D01*
X0180210Y0120444D01*
X0182062Y0120444D01*
X0182679Y0119827D01*
X0182679Y0119209D01*
X0182062Y0118592D01*
X0180210Y0118592D01*
X0182062Y0118592D02*
X0182679Y0117975D01*
X0182679Y0117358D01*
X0183893Y0119209D02*
X0185128Y0120444D01*
X0187576Y0119827D02*
X0188193Y0120444D01*
X0189428Y0120444D01*
X0190045Y0119827D01*
X0190045Y0119209D01*
X0189428Y0118592D01*
X0190045Y0117975D01*
X0190045Y0117358D01*
X0189428Y0116741D01*
X0188193Y0116741D01*
X0187576Y0117358D01*
X0188811Y0118592D02*
X0189428Y0118592D01*
X0185745Y0110444D02*
X0184510Y0110444D01*
X0183893Y0109827D01*
X0183893Y0109209D01*
X0184510Y0108592D01*
X0186362Y0108592D01*
X0186362Y0107358D02*
X0186362Y0109827D01*
X0185745Y0110444D01*
X0182679Y0109827D02*
X0182679Y0109209D01*
X0182062Y0108592D01*
X0180210Y0108592D01*
X0180210Y0106741D02*
X0182062Y0106741D01*
X0182679Y0107358D01*
X0182679Y0107975D01*
X0182062Y0108592D01*
X0182679Y0109827D02*
X0182062Y0110444D01*
X0180210Y0110444D01*
X0180210Y0106741D01*
X0183893Y0107358D02*
X0184510Y0106741D01*
X0185745Y0106741D01*
X0186362Y0107358D01*
X0185745Y0100444D02*
X0186362Y0099827D01*
X0186362Y0099209D01*
X0185745Y0098592D01*
X0184510Y0098592D01*
X0183893Y0099209D01*
X0183893Y0099827D01*
X0184510Y0100444D01*
X0185745Y0100444D01*
X0185745Y0098592D02*
X0186362Y0097975D01*
X0186362Y0097358D01*
X0185745Y0096741D01*
X0184510Y0096741D01*
X0183893Y0097358D01*
X0183893Y0097975D01*
X0184510Y0098592D01*
X0182679Y0097975D02*
X0182679Y0097358D01*
X0182062Y0096741D01*
X0180210Y0096741D01*
X0180210Y0100444D01*
X0182062Y0100444D01*
X0182679Y0099827D01*
X0182679Y0099209D01*
X0182062Y0098592D01*
X0180210Y0098592D01*
X0182062Y0098592D02*
X0182679Y0097975D01*
X0182062Y0090444D02*
X0180210Y0090444D01*
X0180210Y0086741D01*
X0182062Y0086741D01*
X0182679Y0087358D01*
X0182679Y0087975D01*
X0182062Y0088592D01*
X0180210Y0088592D01*
X0182062Y0088592D02*
X0182679Y0089209D01*
X0182679Y0089827D01*
X0182062Y0090444D01*
X0183893Y0090444D02*
X0186362Y0090444D01*
X0186362Y0089827D01*
X0183893Y0087358D01*
X0183893Y0086741D01*
X0183893Y0080444D02*
X0183893Y0077975D01*
X0185128Y0076741D01*
X0186362Y0077975D01*
X0186362Y0080444D01*
X0182679Y0080444D02*
X0180210Y0080444D01*
X0180210Y0078592D01*
X0181444Y0079209D01*
X0182062Y0079209D01*
X0182679Y0078592D01*
X0182679Y0077358D01*
X0182062Y0076741D01*
X0180827Y0076741D01*
X0180210Y0077358D01*
X0180827Y0070444D02*
X0180210Y0069827D01*
X0180210Y0067358D01*
X0180827Y0066741D01*
X0182062Y0066741D01*
X0182679Y0067358D01*
X0182679Y0068592D01*
X0181444Y0068592D01*
X0182679Y0069827D02*
X0182062Y0070444D01*
X0180827Y0070444D01*
X0183893Y0070444D02*
X0186362Y0066741D01*
X0186362Y0070444D01*
X0187576Y0070444D02*
X0189428Y0070444D01*
X0190045Y0069827D01*
X0190045Y0067358D01*
X0189428Y0066741D01*
X0187576Y0066741D01*
X0187576Y0070444D01*
X0183893Y0070444D02*
X0183893Y0066741D01*
D12*
X0189408Y0067001D02*
X0189725Y0067318D01*
X0190042Y0067318D01*
X0190359Y0067001D01*
X0190676Y0067318D01*
X0190993Y0067318D01*
X0191310Y0067001D01*
X0191310Y0066367D01*
X0190993Y0066050D01*
X0190359Y0066684D02*
X0190359Y0067001D01*
X0189408Y0067001D02*
X0189408Y0066367D01*
X0189725Y0066050D01*
X0189408Y0065108D02*
X0189408Y0064474D01*
X0189408Y0064791D02*
X0190993Y0064791D01*
X0191310Y0064474D01*
X0191310Y0064157D01*
X0190993Y0063841D01*
X0155060Y0068591D02*
X0155060Y0073591D01*
X0155060Y0078748D02*
X0155060Y0079811D01*
X0155060Y0103433D02*
X0155060Y0107370D01*
X0157028Y0105402D02*
X0153091Y0105402D01*
X0163643Y0157291D02*
X0163643Y0164378D01*
X0173485Y0157291D02*
X0184115Y0157291D01*
X0199863Y0157291D02*
X0199863Y0188000D01*
X0181753Y0188000D02*
X0173485Y0188000D01*
X0163643Y0188000D02*
X0163643Y0180913D01*
X0146989Y0180126D02*
X0113131Y0180126D01*
X0113131Y0197055D01*
X0122186Y0197055D01*
X0122186Y0208866D01*
X0137934Y0208866D01*
X0137934Y0197055D01*
X0122186Y0197055D01*
X0137934Y0197055D02*
X0146989Y0197055D01*
X0146989Y0180126D01*
X0141493Y0170108D02*
X0141810Y0169791D01*
X0141810Y0169157D01*
X0141493Y0168841D01*
X0141176Y0168841D01*
X0140859Y0169157D01*
X0140859Y0169791D01*
X0141176Y0170108D01*
X0141493Y0170108D01*
X0140859Y0169791D02*
X0140542Y0170108D01*
X0140225Y0170108D01*
X0139908Y0169791D01*
X0139908Y0169157D01*
X0140225Y0168841D01*
X0140542Y0168841D01*
X0140859Y0169157D01*
X0140225Y0167898D02*
X0139908Y0167581D01*
X0139908Y0166948D01*
X0140225Y0166631D01*
X0141493Y0166631D01*
X0141810Y0166948D01*
X0141810Y0167581D01*
X0141493Y0167898D01*
X0126810Y0167581D02*
X0126493Y0167898D01*
X0126810Y0167581D02*
X0126810Y0166948D01*
X0126493Y0166631D01*
X0125225Y0166631D01*
X0124908Y0166948D01*
X0124908Y0167581D01*
X0125225Y0167898D01*
X0125225Y0168841D02*
X0124908Y0169157D01*
X0124908Y0169791D01*
X0125225Y0170108D01*
X0125542Y0170108D01*
X0125859Y0169791D01*
X0126176Y0170108D01*
X0126493Y0170108D01*
X0126810Y0169791D01*
X0126810Y0169157D01*
X0126493Y0168841D01*
X0125859Y0169474D02*
X0125859Y0169791D01*
X0105512Y0182591D02*
X0103933Y0182591D01*
X0103306Y0177091D02*
X0086814Y0177091D01*
X0086187Y0182591D02*
X0084608Y0182591D01*
X0076578Y0180342D02*
X0075310Y0180342D01*
X0075310Y0179391D01*
X0075944Y0179708D01*
X0076261Y0179708D01*
X0076578Y0179391D01*
X0076578Y0178757D01*
X0076261Y0178441D01*
X0075627Y0178441D01*
X0075310Y0178757D01*
X0074368Y0178757D02*
X0074051Y0178441D01*
X0073417Y0178441D01*
X0073100Y0178757D01*
X0073100Y0180025D01*
X0073417Y0180342D01*
X0074051Y0180342D01*
X0074368Y0180025D01*
X0074051Y0188441D02*
X0074368Y0188757D01*
X0074051Y0188441D02*
X0073417Y0188441D01*
X0073100Y0188757D01*
X0073100Y0190025D01*
X0073417Y0190342D01*
X0074051Y0190342D01*
X0074368Y0190025D01*
X0075310Y0189391D02*
X0076578Y0189391D01*
X0076261Y0188441D02*
X0076261Y0190342D01*
X0075310Y0189391D01*
X0093933Y0182591D02*
X0096187Y0182591D01*
X0086814Y0177090D02*
X0086661Y0177289D01*
X0086513Y0177491D01*
X0086370Y0177696D01*
X0086232Y0177905D01*
X0086099Y0178117D01*
X0085971Y0178332D01*
X0085849Y0178550D01*
X0085731Y0178771D01*
X0085619Y0178995D01*
X0085512Y0179221D01*
X0085411Y0179450D01*
X0085315Y0179681D01*
X0085224Y0179915D01*
X0085139Y0180150D01*
X0085060Y0180388D01*
X0084987Y0180627D01*
X0084919Y0180868D01*
X0084857Y0181110D01*
X0084801Y0181354D01*
X0084750Y0181600D01*
X0084706Y0181846D01*
X0084667Y0182093D01*
X0084635Y0182341D01*
X0084608Y0182590D01*
X0098156Y0193623D02*
X0098398Y0193545D01*
X0098638Y0193461D01*
X0098876Y0193372D01*
X0099112Y0193276D01*
X0099346Y0193175D01*
X0099577Y0193069D01*
X0099805Y0192956D01*
X0100031Y0192839D01*
X0100254Y0192716D01*
X0100473Y0192587D01*
X0100690Y0192453D01*
X0100903Y0192314D01*
X0101113Y0192170D01*
X0101319Y0192021D01*
X0101521Y0191867D01*
X0101720Y0191708D01*
X0101915Y0191544D01*
X0102106Y0191375D01*
X0102292Y0191202D01*
X0102475Y0191025D01*
X0102653Y0190843D01*
X0102826Y0190657D01*
X0102995Y0190466D01*
X0103159Y0190272D01*
X0103319Y0190074D01*
X0103474Y0189872D01*
X0103623Y0189666D01*
X0103768Y0189457D01*
X0103908Y0189244D01*
X0104042Y0189028D01*
X0104171Y0188808D01*
X0104295Y0188586D01*
X0104414Y0188361D01*
X0104526Y0188133D01*
X0104634Y0187902D01*
X0104735Y0187669D01*
X0104831Y0187433D01*
X0104922Y0187195D01*
X0105006Y0186955D01*
X0105085Y0186713D01*
X0105158Y0186469D01*
X0105224Y0186223D01*
X0105285Y0185976D01*
X0105340Y0185728D01*
X0105389Y0185478D01*
X0105432Y0185227D01*
X0105468Y0184975D01*
X0105499Y0184723D01*
X0105523Y0184469D01*
X0105541Y0184216D01*
X0105553Y0183961D01*
X0105559Y0183707D01*
X0105559Y0183452D01*
X0105553Y0183198D01*
X0105540Y0182944D01*
X0105521Y0182690D01*
X0105496Y0182437D01*
X0105465Y0182184D01*
X0105428Y0181932D01*
X0105385Y0181682D01*
X0105336Y0181432D01*
X0105281Y0181183D01*
X0105219Y0180936D01*
X0105152Y0180691D01*
X0105079Y0180447D01*
X0105000Y0180205D01*
X0104915Y0179966D01*
X0104824Y0179728D01*
X0104727Y0179492D01*
X0104625Y0179259D01*
X0104517Y0179029D01*
X0104404Y0178801D01*
X0104285Y0178576D01*
X0104161Y0178354D01*
X0104032Y0178135D01*
X0103897Y0177919D01*
X0103757Y0177706D01*
X0103611Y0177497D01*
X0103461Y0177292D01*
X0103306Y0177090D01*
X0084608Y0182591D02*
X0084586Y0182846D01*
X0084571Y0183102D01*
X0084563Y0183358D01*
X0084560Y0183615D01*
X0084564Y0183871D01*
X0084574Y0184127D01*
X0084590Y0184383D01*
X0084612Y0184638D01*
X0084641Y0184893D01*
X0084676Y0185147D01*
X0084717Y0185400D01*
X0084764Y0185652D01*
X0084818Y0185902D01*
X0084877Y0186151D01*
X0084943Y0186399D01*
X0085014Y0186645D01*
X0085092Y0186890D01*
X0085175Y0187132D01*
X0085264Y0187372D01*
X0085360Y0187610D01*
X0085461Y0187846D01*
X0085567Y0188079D01*
X0085680Y0188309D01*
X0085798Y0188537D01*
X0085921Y0188761D01*
X0086050Y0188983D01*
X0086184Y0189201D01*
X0086324Y0189416D01*
X0086469Y0189627D01*
X0086619Y0189835D01*
X0086773Y0190039D01*
X0086933Y0190240D01*
X0087098Y0190436D01*
X0087267Y0190628D01*
X0087442Y0190817D01*
X0087620Y0191000D01*
X0087803Y0191180D01*
X0087991Y0191355D01*
X0088182Y0191525D01*
X0088378Y0191690D01*
X0088578Y0191851D01*
X0088781Y0192007D01*
X0088988Y0192157D01*
X0089199Y0192303D01*
X0089414Y0192444D01*
X0089631Y0192579D01*
X0089852Y0192709D01*
X0090076Y0192833D01*
X0090303Y0192952D01*
X0090533Y0193065D01*
X0090766Y0193173D01*
X0091001Y0193275D01*
X0091239Y0193371D01*
X0091478Y0193461D01*
X0091720Y0193546D01*
X0091964Y0193624D01*
X0071261Y0163742D02*
X0071578Y0163425D01*
X0071578Y0163108D01*
X0071261Y0162791D01*
X0071578Y0162474D01*
X0071578Y0162157D01*
X0071261Y0161841D01*
X0070627Y0161841D01*
X0070310Y0162157D01*
X0070944Y0162791D02*
X0071261Y0162791D01*
X0071261Y0163742D02*
X0070627Y0163742D01*
X0070310Y0163425D01*
X0069368Y0163425D02*
X0069368Y0162791D01*
X0069051Y0162474D01*
X0068100Y0162474D01*
X0068100Y0161841D02*
X0068100Y0163742D01*
X0069051Y0163742D01*
X0069368Y0163425D01*
X0068734Y0162474D02*
X0069368Y0161841D01*
X0052028Y0166780D02*
X0048091Y0166780D01*
X0050060Y0168748D02*
X0050060Y0164811D01*
X0034710Y0180526D02*
X0032808Y0180526D01*
X0032808Y0181477D01*
X0033125Y0181793D01*
X0033759Y0181793D01*
X0034076Y0181477D01*
X0034076Y0180526D01*
X0034710Y0182736D02*
X0032808Y0182736D01*
X0032808Y0184003D02*
X0034710Y0184003D01*
X0034076Y0183369D01*
X0034710Y0182736D01*
X0034710Y0184945D02*
X0032808Y0184945D01*
X0032808Y0185896D01*
X0033125Y0186213D01*
X0033759Y0186213D01*
X0034076Y0185896D01*
X0034076Y0184945D01*
X0034076Y0185579D02*
X0034710Y0186213D01*
X0031935Y0177341D02*
X0028185Y0177341D01*
X0026810Y0170108D02*
X0026810Y0168841D01*
X0025542Y0170108D01*
X0025225Y0170108D01*
X0024908Y0169791D01*
X0024908Y0169157D01*
X0025225Y0168841D01*
X0025225Y0167898D02*
X0025859Y0167898D01*
X0026176Y0167581D01*
X0026176Y0166631D01*
X0026176Y0167265D02*
X0026810Y0167898D01*
X0026810Y0166631D02*
X0024908Y0166631D01*
X0024908Y0167581D01*
X0025225Y0167898D01*
X0011810Y0167898D02*
X0011176Y0167265D01*
X0011176Y0167581D02*
X0011176Y0166631D01*
X0011810Y0166631D02*
X0009908Y0166631D01*
X0009908Y0167581D01*
X0010225Y0167898D01*
X0010859Y0167898D01*
X0011176Y0167581D01*
X0010542Y0168841D02*
X0009908Y0169474D01*
X0011810Y0169474D01*
X0011810Y0168841D02*
X0011810Y0170108D01*
X0011359Y0181631D02*
X0011359Y0182898D01*
X0011042Y0182898D02*
X0012310Y0182898D01*
X0012310Y0181631D02*
X0011042Y0181631D01*
X0010408Y0182265D01*
X0011042Y0182898D01*
X0011359Y0183841D02*
X0011359Y0185108D01*
X0010408Y0184791D02*
X0011359Y0183841D01*
X0012310Y0184791D02*
X0010408Y0184791D01*
X0013185Y0189841D02*
X0016935Y0189841D01*
X0050060Y0192370D02*
X0050060Y0193433D01*
X0050060Y0198591D02*
X0050060Y0203591D01*
X0073879Y0094339D02*
X0076241Y0094339D01*
X0080966Y0083591D02*
X0080966Y0073591D01*
X0076241Y0062843D02*
X0073879Y0062843D01*
X0069154Y0073591D02*
X0069154Y0083591D01*
X0061810Y0055108D02*
X0061810Y0053841D01*
X0060542Y0055108D01*
X0060225Y0055108D01*
X0059908Y0054791D01*
X0059908Y0054157D01*
X0060225Y0053841D01*
X0060225Y0052898D02*
X0059908Y0052581D01*
X0059908Y0051948D01*
X0060225Y0051631D01*
X0061493Y0051631D01*
X0061810Y0051948D01*
X0061810Y0052581D01*
X0061493Y0052898D01*
X0041810Y0052898D02*
X0041176Y0052265D01*
X0041176Y0052581D02*
X0041176Y0051631D01*
X0041810Y0051631D02*
X0039908Y0051631D01*
X0039908Y0052581D01*
X0040225Y0052898D01*
X0040859Y0052898D01*
X0041176Y0052581D01*
X0040859Y0053841D02*
X0040859Y0055108D01*
X0039908Y0054791D02*
X0040859Y0053841D01*
X0041810Y0054791D02*
X0039908Y0054791D01*
X0021060Y0055591D02*
X0017060Y0058591D01*
X0021060Y0061591D01*
X0021060Y0055591D01*
X0021060Y0055934D02*
X0020602Y0055934D01*
X0021060Y0056433D02*
X0019937Y0056433D01*
X0019272Y0056931D02*
X0021060Y0056931D01*
X0021060Y0057430D02*
X0018608Y0057430D01*
X0017943Y0057928D02*
X0021060Y0057928D01*
X0021060Y0058427D02*
X0017278Y0058427D01*
X0017506Y0058925D02*
X0021060Y0058925D01*
X0021060Y0059424D02*
X0018171Y0059424D01*
X0017710Y0059738D02*
X0017710Y0060055D01*
X0017393Y0060372D01*
X0015808Y0060372D01*
X0015808Y0060055D02*
X0015808Y0060689D01*
X0016442Y0061631D02*
X0015808Y0062265D01*
X0017710Y0062265D01*
X0017710Y0062898D02*
X0017710Y0061631D01*
X0017710Y0059738D02*
X0017393Y0059421D01*
X0018836Y0059922D02*
X0021060Y0059922D01*
X0021060Y0060421D02*
X0019500Y0060421D01*
X0020165Y0060919D02*
X0021060Y0060919D01*
X0021060Y0061418D02*
X0020830Y0061418D01*
X0004310Y0064157D02*
X0004310Y0064474D01*
X0003993Y0064791D01*
X0002408Y0064791D01*
X0002408Y0064474D02*
X0002408Y0065108D01*
X0002725Y0066050D02*
X0002408Y0066367D01*
X0002408Y0067001D01*
X0002725Y0067318D01*
X0003042Y0067318D01*
X0004310Y0066050D01*
X0004310Y0067318D01*
X0004310Y0064157D02*
X0003993Y0063841D01*
X0108100Y0015025D02*
X0108100Y0013757D01*
X0108417Y0013441D01*
X0109051Y0013441D01*
X0109368Y0013757D01*
X0110310Y0013441D02*
X0111578Y0013441D01*
X0110944Y0013441D02*
X0110944Y0015342D01*
X0110310Y0014708D01*
X0109368Y0015025D02*
X0109051Y0015342D01*
X0108417Y0015342D01*
X0108100Y0015025D01*
D13*
X0107908Y0010860D02*
X0105606Y0010860D01*
X0105606Y0007791D01*
X0104072Y0009325D02*
X0101002Y0009325D01*
X0101002Y0008558D02*
X0101002Y0010093D01*
X0101770Y0010860D01*
X0103304Y0010860D01*
X0104072Y0010093D01*
X0104072Y0009325D01*
X0103304Y0007791D02*
X0101770Y0007791D01*
X0101002Y0008558D01*
X0099468Y0007791D02*
X0097933Y0007791D01*
X0098701Y0007791D02*
X0098701Y0012394D01*
X0097933Y0012394D01*
X0095631Y0012394D02*
X0095631Y0007791D01*
X0094864Y0007791D02*
X0096399Y0007791D01*
X0093329Y0007791D02*
X0093329Y0010860D01*
X0091795Y0012394D01*
X0090260Y0010860D01*
X0090260Y0007791D01*
X0090260Y0010093D02*
X0093329Y0010093D01*
X0094864Y0012394D02*
X0095631Y0012394D01*
X0107908Y0010860D02*
X0108676Y0010093D01*
X0108676Y0007791D01*
X0114814Y0012394D02*
X0117884Y0012394D01*
X0116349Y0012394D02*
X0116349Y0007791D01*
X0119418Y0008558D02*
X0120185Y0009325D01*
X0122487Y0009325D01*
X0122487Y0010093D02*
X0122487Y0007791D01*
X0120185Y0007791D01*
X0119418Y0008558D01*
X0120185Y0010860D02*
X0121720Y0010860D01*
X0122487Y0010093D01*
X0124022Y0010860D02*
X0124022Y0007791D01*
X0124022Y0010860D02*
X0126324Y0010860D01*
X0127091Y0010093D01*
X0127091Y0007791D01*
X0128626Y0008558D02*
X0129393Y0007791D01*
X0131695Y0007791D01*
X0131695Y0007023D02*
X0131695Y0010860D01*
X0129393Y0010860D01*
X0128626Y0010093D01*
X0128626Y0008558D01*
X0130928Y0006256D02*
X0131695Y0007023D01*
X0130928Y0006256D02*
X0130161Y0006256D01*
X0137834Y0007791D02*
X0137834Y0012394D01*
X0139369Y0010860D01*
X0140903Y0012394D01*
X0140903Y0007791D01*
X0142438Y0007791D02*
X0145507Y0007791D01*
X0143972Y0010093D02*
X0142438Y0010093D01*
X0142438Y0012394D02*
X0142438Y0007791D01*
X0142438Y0012394D02*
X0145507Y0012394D01*
X0151646Y0010093D02*
X0154715Y0010093D01*
X0156250Y0011627D02*
X0157017Y0012394D01*
X0158552Y0012394D01*
X0159319Y0011627D01*
X0159319Y0010860D01*
X0158552Y0010093D01*
X0159319Y0009325D01*
X0159319Y0008558D01*
X0158552Y0007791D01*
X0157017Y0007791D01*
X0156250Y0008558D01*
X0157784Y0010093D02*
X0158552Y0010093D01*
X0160853Y0011627D02*
X0161621Y0012394D01*
X0163155Y0012394D01*
X0163923Y0011627D01*
X0163923Y0010860D01*
X0163155Y0010093D01*
X0163923Y0009325D01*
X0163923Y0008558D01*
X0163155Y0007791D01*
X0161621Y0007791D01*
X0160853Y0008558D01*
X0162388Y0010093D02*
X0163155Y0010093D01*
X0170061Y0009325D02*
X0171596Y0007791D01*
X0173131Y0009325D01*
X0173131Y0012394D01*
X0174665Y0012394D02*
X0174665Y0007791D01*
X0177735Y0007791D01*
X0179269Y0007791D02*
X0179269Y0012394D01*
X0181571Y0012394D01*
X0182338Y0011627D01*
X0182338Y0010093D01*
X0181571Y0009325D01*
X0179269Y0009325D01*
X0180804Y0009325D02*
X0182338Y0007791D01*
X0188477Y0007791D02*
X0191546Y0007791D01*
X0190012Y0007791D02*
X0190012Y0012394D01*
X0188477Y0010860D01*
X0193081Y0008558D02*
X0193081Y0007791D01*
X0193848Y0007791D01*
X0193848Y0008558D01*
X0193081Y0008558D01*
X0195383Y0008558D02*
X0196150Y0007791D01*
X0197685Y0007791D01*
X0198452Y0008558D01*
X0198452Y0011627D01*
X0195383Y0008558D01*
X0195383Y0011627D01*
X0196150Y0012394D01*
X0197685Y0012394D01*
X0198452Y0011627D01*
X0177735Y0012394D02*
X0174665Y0012394D01*
X0174665Y0010093D02*
X0176200Y0010093D01*
X0170061Y0009325D02*
X0170061Y0012394D01*
X0153948Y0012394D02*
X0153948Y0007791D01*
X0151646Y0010093D02*
X0153948Y0012394D01*
X0077141Y0038791D02*
X0075606Y0040325D01*
X0076374Y0040325D02*
X0074072Y0040325D01*
X0074072Y0038791D02*
X0074072Y0043394D01*
X0076374Y0043394D01*
X0077141Y0042627D01*
X0077141Y0041093D01*
X0076374Y0040325D01*
X0072537Y0038791D02*
X0069468Y0038791D01*
X0069468Y0043394D01*
X0072537Y0043394D01*
X0071002Y0041093D02*
X0069468Y0041093D01*
X0067933Y0040325D02*
X0067933Y0039558D01*
X0067166Y0038791D01*
X0065631Y0038791D01*
X0064864Y0039558D01*
X0063329Y0039558D02*
X0063329Y0043394D01*
X0064864Y0042627D02*
X0064864Y0041860D01*
X0065631Y0041093D01*
X0067166Y0041093D01*
X0067933Y0040325D01*
X0067933Y0042627D02*
X0067166Y0043394D01*
X0065631Y0043394D01*
X0064864Y0042627D01*
X0063329Y0039558D02*
X0062562Y0038791D01*
X0061027Y0038791D01*
X0060260Y0039558D01*
X0060260Y0043394D01*
X0051745Y0043394D02*
X0048676Y0043394D01*
X0050210Y0043394D02*
X0050210Y0038791D01*
X0047141Y0038791D02*
X0044072Y0038791D01*
X0044072Y0043394D01*
X0047141Y0043394D01*
X0045606Y0041093D02*
X0044072Y0041093D01*
X0042537Y0040325D02*
X0042537Y0039558D01*
X0041770Y0038791D01*
X0040235Y0038791D01*
X0039468Y0039558D01*
X0040235Y0041093D02*
X0041770Y0041093D01*
X0042537Y0040325D01*
X0042537Y0042627D02*
X0041770Y0043394D01*
X0040235Y0043394D01*
X0039468Y0042627D01*
X0039468Y0041860D01*
X0040235Y0041093D01*
X0037933Y0043394D02*
X0034864Y0043394D01*
X0034864Y0038791D01*
X0037933Y0038791D01*
X0036399Y0041093D02*
X0034864Y0041093D01*
X0033329Y0041093D02*
X0032562Y0040325D01*
X0030260Y0040325D01*
X0030260Y0038791D02*
X0030260Y0043394D01*
X0032562Y0043394D01*
X0033329Y0042627D01*
X0033329Y0041093D01*
X0031795Y0040325D02*
X0033329Y0038791D01*
X0166910Y0094130D02*
X0167677Y0093362D01*
X0170746Y0093362D01*
X0171514Y0094130D01*
X0171514Y0095664D01*
X0170746Y0096431D01*
X0170746Y0097966D02*
X0171514Y0097966D01*
X0170746Y0097966D02*
X0167677Y0101035D01*
X0166910Y0101035D01*
X0166910Y0097966D01*
X0167677Y0096431D02*
X0166910Y0095664D01*
X0166910Y0094130D01*
X0195556Y0168558D02*
X0195556Y0168558D01*
D14*
X0005164Y0003624D03*
D15*
X0005164Y0003624D03*
D16*
X0005164Y0003625D03*
D17*
X0005164Y0003625D03*
D18*
X0005164Y0003625D03*
D19*
X0005123Y0003625D03*
X0005123Y0003625D03*
X0005120Y0003625D03*
X0005120Y0003625D03*
X0005119Y0003625D03*
X0005119Y0003625D03*
X0005118Y0003625D03*
X0005117Y0003625D03*
X0005115Y0003625D03*
X0005115Y0003625D03*
X0005114Y0003625D03*
X0005114Y0003625D03*
X0005113Y0003625D03*
X0005112Y0003625D03*
X0005111Y0003625D03*
X0005110Y0003625D03*
X0005109Y0003625D03*
X0005109Y0003625D03*
X0005108Y0003625D03*
X0005108Y0003625D03*
X0005106Y0003625D03*
X0005105Y0003625D03*
X0005104Y0003625D03*
X0005104Y0003625D03*
X0005103Y0003625D03*
X0005100Y0003625D03*
X0005100Y0003625D03*
X0005099Y0003625D03*
X0005098Y0003625D03*
X0005097Y0003625D03*
X0005096Y0003625D03*
X0005096Y0003625D03*
X0005095Y0003625D03*
X0005094Y0003625D03*
X0005093Y0003625D03*
X0005092Y0003625D03*
X0005095Y0003631D03*
X0005102Y0003633D03*
X0005114Y0003633D03*
X0005115Y0003633D03*
X0005116Y0003632D03*
X0005118Y0003632D03*
X0005120Y0003631D03*
X0005121Y0003631D03*
X0005148Y0003699D03*
X0005151Y0003699D03*
X0005151Y0003699D03*
X0005169Y0003698D03*
X0005175Y0003700D03*
D20*
X0005169Y0003698D03*
X0005150Y0003699D03*
X0005122Y0003625D03*
X0005103Y0003625D03*
X0005101Y0003625D03*
X0005099Y0003625D03*
X0005099Y0003632D03*
X0005095Y0003631D03*
D21*
X0005102Y0003633D03*
X0005102Y0003625D03*
X0005107Y0003625D03*
X0005112Y0003625D03*
X0005116Y0003625D03*
X0005121Y0003625D03*
D22*
X0005164Y0003625D03*
D23*
X0005095Y0003625D03*
D24*
X0005098Y0003625D03*
X0005177Y0003706D03*
D25*
X0005121Y0003625D03*
X0005116Y0003625D03*
X0005111Y0003625D03*
X0005106Y0003625D03*
X0005102Y0003625D03*
X0005099Y0003625D03*
D26*
X0005100Y0003625D03*
D27*
X0005103Y0003625D03*
X0005108Y0003625D03*
X0005112Y0003625D03*
X0005117Y0003625D03*
D28*
X0005118Y0003625D03*
X0005114Y0003625D03*
X0005109Y0003625D03*
X0005104Y0003625D03*
X0005150Y0003706D03*
X0005161Y0003706D03*
D29*
X0005162Y0003706D03*
X0005154Y0003706D03*
X0005151Y0003706D03*
X0005115Y0003625D03*
X0005110Y0003625D03*
X0005105Y0003625D03*
D30*
X0005120Y0003625D03*
X0005156Y0003706D03*
X0005170Y0003706D03*
X0005174Y0003706D03*
D31*
X0005122Y0003625D03*
D32*
X0005164Y0003625D03*
D33*
X0005108Y0003626D03*
X0005108Y0003626D03*
X0005108Y0003626D03*
X0005108Y0003626D03*
X0005108Y0003626D03*
X0005108Y0003627D03*
X0005108Y0003627D03*
X0005108Y0003627D03*
X0005108Y0003627D03*
X0005108Y0003627D03*
X0005108Y0003627D03*
X0005108Y0003628D03*
X0005108Y0003628D03*
X0005108Y0003628D03*
X0005108Y0003628D03*
X0005108Y0003629D03*
X0005108Y0003629D03*
X0005108Y0003629D03*
X0005108Y0003629D03*
X0005108Y0003629D03*
X0005108Y0003630D03*
X0005108Y0003630D03*
X0005108Y0003630D03*
X0005108Y0003630D03*
X0005108Y0003625D03*
X0005108Y0003625D03*
D34*
X0005164Y0003625D03*
D35*
X0005108Y0003626D03*
X0005108Y0003626D03*
X0005108Y0003626D03*
X0005108Y0003626D03*
X0005108Y0003625D03*
X0005108Y0003625D03*
X0005108Y0003627D03*
X0005108Y0003627D03*
X0005108Y0003627D03*
X0005108Y0003628D03*
X0005108Y0003628D03*
X0005108Y0003628D03*
X0005108Y0003628D03*
X0005108Y0003629D03*
X0005108Y0003629D03*
X0005108Y0003629D03*
X0005108Y0003629D03*
X0005108Y0003630D03*
X0005108Y0003630D03*
D36*
X0005164Y0003625D03*
X0005164Y0003625D03*
D37*
X0005108Y0003625D03*
X0005108Y0003627D03*
X0005108Y0003628D03*
X0005108Y0003629D03*
X0005108Y0003630D03*
D38*
X0005164Y0003625D03*
D39*
X0005164Y0003625D03*
X0005163Y0003626D03*
D40*
X0005163Y0003626D03*
X0005163Y0003626D03*
X0005163Y0003626D03*
D41*
X0005163Y0003626D03*
D42*
X0005108Y0003626D03*
X0005108Y0003628D03*
D43*
X0005163Y0003626D03*
D44*
X0005163Y0003626D03*
D45*
X0005163Y0003626D03*
D46*
X0005163Y0003626D03*
X0005163Y0003627D03*
D47*
X0005163Y0003626D03*
D48*
X0005163Y0003627D03*
D49*
X0005163Y0003627D03*
D50*
X0005163Y0003627D03*
D51*
X0005163Y0003627D03*
D52*
X0005163Y0003627D03*
X0005163Y0003627D03*
D53*
X0005163Y0003627D03*
X0005163Y0003627D03*
D54*
X0005163Y0003627D03*
X0005163Y0003628D03*
D55*
X0005163Y0003628D03*
X0005107Y0003635D03*
X0005107Y0003636D03*
X0005107Y0003637D03*
X0005107Y0003638D03*
X0005107Y0003639D03*
X0005107Y0003639D03*
X0005107Y0003641D03*
X0005107Y0003642D03*
X0005107Y0003643D03*
X0005107Y0003644D03*
X0005107Y0003645D03*
X0005107Y0003646D03*
X0005107Y0003646D03*
X0005107Y0003647D03*
X0005107Y0003648D03*
X0005107Y0003649D03*
X0005107Y0003650D03*
X0005107Y0003650D03*
X0005107Y0003653D03*
X0005107Y0003653D03*
X0005107Y0003654D03*
X0005107Y0003655D03*
X0005107Y0003656D03*
X0005107Y0003657D03*
X0005107Y0003658D03*
X0005107Y0003660D03*
X0005107Y0003660D03*
X0005107Y0003661D03*
X0005107Y0003662D03*
X0005107Y0003664D03*
X0005107Y0003665D03*
X0005107Y0003667D03*
X0005107Y0003668D03*
X0005107Y0003669D03*
X0005107Y0003670D03*
X0005107Y0003671D03*
X0005107Y0003671D03*
X0005107Y0003672D03*
X0005107Y0003673D03*
X0005107Y0003674D03*
X0005107Y0003675D03*
X0005107Y0003675D03*
X0005107Y0003676D03*
X0005107Y0003677D03*
X0005107Y0003678D03*
X0005107Y0003678D03*
X0005107Y0003679D03*
X0005107Y0003680D03*
X0005107Y0003681D03*
X0005107Y0003682D03*
D56*
X0005107Y0003682D03*
X0005107Y0003682D03*
X0005107Y0003682D03*
X0005107Y0003682D03*
X0005107Y0003682D03*
X0005107Y0003683D03*
X0005107Y0003683D03*
X0005107Y0003683D03*
X0005107Y0003681D03*
X0005107Y0003681D03*
X0005107Y0003681D03*
X0005107Y0003681D03*
X0005107Y0003681D03*
X0005107Y0003681D03*
X0005107Y0003681D03*
X0005107Y0003680D03*
X0005107Y0003680D03*
X0005107Y0003680D03*
X0005107Y0003680D03*
X0005107Y0003680D03*
X0005107Y0003680D03*
X0005107Y0003680D03*
X0005107Y0003679D03*
X0005107Y0003679D03*
X0005107Y0003679D03*
X0005107Y0003679D03*
X0005107Y0003679D03*
X0005107Y0003679D03*
X0005107Y0003679D03*
X0005107Y0003679D03*
X0005107Y0003678D03*
X0005107Y0003678D03*
X0005107Y0003678D03*
X0005107Y0003678D03*
X0005107Y0003678D03*
X0005107Y0003678D03*
X0005107Y0003677D03*
X0005107Y0003677D03*
X0005107Y0003677D03*
X0005107Y0003677D03*
X0005107Y0003677D03*
X0005107Y0003677D03*
X0005107Y0003677D03*
X0005107Y0003677D03*
X0005107Y0003676D03*
X0005107Y0003676D03*
X0005107Y0003676D03*
X0005107Y0003676D03*
X0005107Y0003676D03*
X0005107Y0003676D03*
X0005107Y0003676D03*
X0005107Y0003675D03*
X0005107Y0003675D03*
X0005107Y0003675D03*
X0005107Y0003675D03*
X0005107Y0003675D03*
X0005107Y0003675D03*
X0005107Y0003675D03*
X0005107Y0003674D03*
X0005107Y0003674D03*
X0005107Y0003674D03*
X0005107Y0003674D03*
X0005107Y0003674D03*
X0005107Y0003674D03*
X0005107Y0003673D03*
X0005107Y0003673D03*
X0005107Y0003673D03*
X0005107Y0003673D03*
X0005107Y0003673D03*
X0005107Y0003673D03*
X0005107Y0003673D03*
X0005107Y0003672D03*
X0005107Y0003672D03*
X0005107Y0003672D03*
X0005107Y0003672D03*
X0005107Y0003672D03*
X0005107Y0003672D03*
X0005107Y0003672D03*
X0005107Y0003672D03*
X0005107Y0003671D03*
X0005107Y0003671D03*
X0005107Y0003671D03*
X0005107Y0003671D03*
X0005107Y0003671D03*
X0005107Y0003671D03*
X0005107Y0003670D03*
X0005107Y0003670D03*
X0005107Y0003670D03*
X0005107Y0003670D03*
X0005107Y0003670D03*
X0005107Y0003670D03*
X0005107Y0003670D03*
X0005107Y0003670D03*
X0005107Y0003670D03*
X0005107Y0003669D03*
X0005107Y0003669D03*
X0005107Y0003669D03*
X0005107Y0003669D03*
X0005107Y0003669D03*
X0005107Y0003669D03*
X0005107Y0003669D03*
X0005107Y0003669D03*
X0005107Y0003668D03*
X0005107Y0003668D03*
X0005107Y0003668D03*
X0005107Y0003668D03*
X0005107Y0003667D03*
X0005107Y0003667D03*
X0005107Y0003667D03*
X0005107Y0003667D03*
X0005107Y0003667D03*
X0005107Y0003667D03*
X0005107Y0003666D03*
X0005107Y0003666D03*
X0005107Y0003666D03*
X0005107Y0003666D03*
X0005107Y0003666D03*
X0005107Y0003666D03*
X0005107Y0003666D03*
X0005107Y0003666D03*
X0005107Y0003666D03*
X0005107Y0003665D03*
X0005107Y0003665D03*
X0005107Y0003665D03*
X0005107Y0003665D03*
X0005107Y0003665D03*
X0005107Y0003665D03*
X0005107Y0003665D03*
X0005107Y0003665D03*
X0005107Y0003665D03*
X0005107Y0003664D03*
X0005107Y0003664D03*
X0005107Y0003664D03*
X0005107Y0003664D03*
X0005107Y0003664D03*
X0005107Y0003664D03*
X0005107Y0003664D03*
X0005107Y0003663D03*
X0005107Y0003663D03*
X0005107Y0003663D03*
X0005107Y0003663D03*
X0005107Y0003663D03*
X0005107Y0003662D03*
X0005107Y0003662D03*
X0005107Y0003662D03*
X0005107Y0003662D03*
X0005107Y0003662D03*
X0005107Y0003662D03*
X0005107Y0003662D03*
X0005107Y0003661D03*
X0005107Y0003661D03*
X0005107Y0003661D03*
X0005107Y0003661D03*
X0005107Y0003661D03*
X0005107Y0003661D03*
X0005107Y0003661D03*
X0005107Y0003661D03*
X0005107Y0003660D03*
X0005107Y0003660D03*
X0005107Y0003660D03*
X0005107Y0003660D03*
X0005107Y0003660D03*
X0005107Y0003660D03*
X0005107Y0003660D03*
X0005107Y0003659D03*
X0005107Y0003659D03*
X0005107Y0003659D03*
X0005107Y0003659D03*
X0005107Y0003659D03*
X0005107Y0003659D03*
X0005107Y0003659D03*
X0005107Y0003658D03*
X0005107Y0003658D03*
X0005107Y0003658D03*
X0005107Y0003658D03*
X0005107Y0003658D03*
X0005107Y0003658D03*
X0005107Y0003658D03*
X0005107Y0003658D03*
X0005107Y0003657D03*
X0005107Y0003657D03*
X0005107Y0003657D03*
X0005107Y0003657D03*
X0005107Y0003657D03*
X0005107Y0003657D03*
X0005107Y0003657D03*
X0005107Y0003656D03*
X0005107Y0003656D03*
X0005107Y0003656D03*
X0005107Y0003656D03*
X0005107Y0003656D03*
X0005107Y0003656D03*
X0005107Y0003656D03*
X0005107Y0003656D03*
X0005107Y0003655D03*
X0005107Y0003655D03*
X0005107Y0003655D03*
X0005107Y0003655D03*
X0005107Y0003655D03*
X0005107Y0003655D03*
X0005107Y0003655D03*
X0005107Y0003654D03*
X0005107Y0003654D03*
X0005107Y0003654D03*
X0005107Y0003654D03*
X0005107Y0003654D03*
X0005107Y0003654D03*
X0005107Y0003654D03*
X0005107Y0003654D03*
X0005107Y0003653D03*
X0005107Y0003653D03*
X0005107Y0003653D03*
X0005107Y0003653D03*
X0005107Y0003653D03*
X0005107Y0003653D03*
X0005107Y0003653D03*
X0005107Y0003653D03*
X0005107Y0003652D03*
X0005107Y0003652D03*
X0005107Y0003652D03*
X0005107Y0003652D03*
X0005107Y0003651D03*
X0005107Y0003651D03*
X0005107Y0003651D03*
X0005107Y0003651D03*
X0005107Y0003651D03*
X0005107Y0003651D03*
X0005107Y0003651D03*
X0005107Y0003651D03*
X0005107Y0003650D03*
X0005107Y0003650D03*
X0005107Y0003650D03*
X0005107Y0003650D03*
X0005107Y0003650D03*
X0005107Y0003650D03*
X0005107Y0003649D03*
X0005107Y0003649D03*
X0005107Y0003649D03*
X0005107Y0003649D03*
X0005107Y0003649D03*
X0005107Y0003649D03*
X0005107Y0003649D03*
X0005107Y0003649D03*
X0005107Y0003648D03*
X0005107Y0003648D03*
X0005107Y0003648D03*
X0005107Y0003648D03*
X0005107Y0003648D03*
X0005107Y0003648D03*
X0005107Y0003648D03*
X0005107Y0003648D03*
X0005107Y0003648D03*
X0005107Y0003647D03*
X0005107Y0003647D03*
X0005107Y0003647D03*
X0005107Y0003647D03*
X0005107Y0003647D03*
X0005107Y0003647D03*
X0005107Y0003646D03*
X0005107Y0003646D03*
X0005107Y0003646D03*
X0005107Y0003646D03*
X0005107Y0003646D03*
X0005107Y0003646D03*
X0005107Y0003646D03*
X0005107Y0003646D03*
X0005107Y0003645D03*
X0005107Y0003645D03*
X0005107Y0003645D03*
X0005107Y0003645D03*
X0005107Y0003645D03*
X0005107Y0003645D03*
X0005107Y0003645D03*
X0005107Y0003644D03*
X0005107Y0003644D03*
X0005107Y0003644D03*
X0005107Y0003644D03*
X0005107Y0003643D03*
X0005107Y0003643D03*
X0005107Y0003643D03*
X0005107Y0003643D03*
X0005107Y0003643D03*
X0005107Y0003643D03*
X0005107Y0003642D03*
X0005107Y0003642D03*
X0005107Y0003642D03*
X0005107Y0003642D03*
X0005107Y0003642D03*
X0005107Y0003642D03*
X0005107Y0003642D03*
X0005107Y0003642D03*
X0005107Y0003641D03*
X0005107Y0003641D03*
X0005107Y0003641D03*
X0005107Y0003641D03*
X0005107Y0003641D03*
X0005107Y0003641D03*
X0005107Y0003641D03*
X0005107Y0003641D03*
X0005107Y0003640D03*
X0005107Y0003640D03*
X0005107Y0003640D03*
X0005107Y0003640D03*
X0005107Y0003640D03*
X0005107Y0003640D03*
X0005107Y0003640D03*
X0005107Y0003639D03*
X0005107Y0003639D03*
X0005107Y0003639D03*
X0005107Y0003639D03*
X0005107Y0003639D03*
X0005107Y0003639D03*
X0005107Y0003639D03*
X0005107Y0003638D03*
X0005107Y0003638D03*
X0005107Y0003638D03*
X0005107Y0003638D03*
X0005107Y0003638D03*
X0005107Y0003638D03*
X0005107Y0003638D03*
X0005107Y0003638D03*
X0005107Y0003638D03*
X0005107Y0003637D03*
X0005107Y0003637D03*
X0005107Y0003637D03*
X0005107Y0003637D03*
X0005107Y0003637D03*
X0005107Y0003637D03*
X0005107Y0003636D03*
X0005107Y0003636D03*
X0005107Y0003636D03*
X0005107Y0003636D03*
X0005107Y0003636D03*
X0005107Y0003636D03*
X0005107Y0003636D03*
X0005107Y0003635D03*
X0005107Y0003635D03*
X0005107Y0003635D03*
X0005163Y0003628D03*
D57*
X0005163Y0003628D03*
X0005163Y0003628D03*
X0005163Y0003650D03*
X0005163Y0003650D03*
X0005163Y0003651D03*
X0005163Y0003651D03*
X0005163Y0003651D03*
X0005163Y0003651D03*
X0005163Y0003652D03*
X0005163Y0003652D03*
X0005163Y0003652D03*
X0005163Y0003653D03*
X0005163Y0003653D03*
X0005163Y0003654D03*
X0005163Y0003654D03*
X0005163Y0003654D03*
X0005163Y0003655D03*
X0005163Y0003655D03*
X0005163Y0003655D03*
X0005163Y0003656D03*
X0005163Y0003656D03*
X0005163Y0003656D03*
X0005163Y0003657D03*
X0005163Y0003657D03*
X0005163Y0003658D03*
X0005163Y0003658D03*
X0005163Y0003658D03*
X0005163Y0003659D03*
X0005163Y0003660D03*
X0005163Y0003660D03*
X0005163Y0003660D03*
X0005163Y0003660D03*
X0005163Y0003661D03*
X0005163Y0003661D03*
X0005163Y0003661D03*
X0005163Y0003662D03*
X0005163Y0003662D03*
X0005163Y0003662D03*
X0005163Y0003663D03*
X0005163Y0003663D03*
X0005163Y0003663D03*
X0005163Y0003664D03*
X0005163Y0003664D03*
X0005163Y0003664D03*
X0005163Y0003665D03*
X0005163Y0003665D03*
X0005163Y0003665D03*
X0005163Y0003665D03*
X0005163Y0003666D03*
X0005163Y0003666D03*
X0005163Y0003667D03*
X0005163Y0003667D03*
X0005163Y0003667D03*
X0005163Y0003668D03*
X0005163Y0003668D03*
X0005163Y0003668D03*
X0005163Y0003669D03*
X0005163Y0003669D03*
X0005163Y0003669D03*
X0005163Y0003669D03*
X0005163Y0003670D03*
X0005163Y0003670D03*
X0005163Y0003670D03*
X0005163Y0003670D03*
X0005163Y0003671D03*
X0005163Y0003671D03*
X0005163Y0003671D03*
X0005163Y0003671D03*
X0005163Y0003672D03*
X0005163Y0003672D03*
X0005163Y0003673D03*
X0005163Y0003673D03*
X0005163Y0003674D03*
X0005163Y0003674D03*
X0005163Y0003674D03*
X0005163Y0003674D03*
X0005163Y0003675D03*
X0005163Y0003675D03*
X0005163Y0003675D03*
X0005163Y0003676D03*
X0005163Y0003676D03*
X0005163Y0003676D03*
X0005163Y0003677D03*
X0005163Y0003677D03*
X0005163Y0003677D03*
X0005163Y0003677D03*
X0005163Y0003678D03*
X0005163Y0003678D03*
X0005163Y0003678D03*
X0005163Y0003679D03*
X0005163Y0003679D03*
X0005163Y0003679D03*
X0005163Y0003680D03*
X0005163Y0003680D03*
X0005163Y0003680D03*
X0005163Y0003681D03*
X0005163Y0003681D03*
X0005163Y0003681D03*
X0005163Y0003682D03*
X0005163Y0003682D03*
X0005163Y0003683D03*
X0005163Y0003683D03*
X0005163Y0003683D03*
X0005163Y0003684D03*
X0005163Y0003684D03*
X0005163Y0003685D03*
X0005163Y0003685D03*
X0005163Y0003686D03*
X0005163Y0003686D03*
X0005163Y0003686D03*
X0005163Y0003687D03*
X0005163Y0003687D03*
X0005163Y0003687D03*
X0005163Y0003688D03*
X0005163Y0003688D03*
X0005163Y0003688D03*
X0005163Y0003688D03*
X0005163Y0003689D03*
X0005163Y0003689D03*
X0005163Y0003690D03*
X0005163Y0003690D03*
X0005163Y0003690D03*
X0005163Y0003691D03*
X0005163Y0003692D03*
X0005163Y0003692D03*
X0005163Y0003692D03*
X0005163Y0003692D03*
X0005163Y0003693D03*
X0005163Y0003693D03*
X0005163Y0003693D03*
X0005163Y0003694D03*
X0005163Y0003694D03*
X0005163Y0003694D03*
X0005163Y0003695D03*
X0005107Y0003680D03*
X0005107Y0003661D03*
X0005107Y0003642D03*
X0005107Y0003635D03*
D58*
X0005107Y0003635D03*
X0005162Y0003628D03*
X0005162Y0003628D03*
X0005162Y0003649D03*
X0005162Y0003650D03*
X0005162Y0003650D03*
X0005162Y0003651D03*
X0005162Y0003651D03*
X0005162Y0003651D03*
X0005162Y0003652D03*
X0005162Y0003652D03*
X0005162Y0003652D03*
X0005162Y0003653D03*
X0005162Y0003653D03*
X0005162Y0003654D03*
X0005162Y0003655D03*
X0005162Y0003655D03*
X0005162Y0003656D03*
X0005162Y0003656D03*
X0005162Y0003657D03*
X0005162Y0003657D03*
X0005162Y0003658D03*
X0005162Y0003658D03*
X0005162Y0003659D03*
X0005162Y0003659D03*
X0005162Y0003659D03*
X0005162Y0003659D03*
X0005162Y0003661D03*
X0005162Y0003662D03*
X0005162Y0003662D03*
X0005162Y0003663D03*
X0005162Y0003663D03*
X0005162Y0003664D03*
X0005162Y0003664D03*
X0005162Y0003664D03*
X0005162Y0003665D03*
X0005162Y0003665D03*
X0005162Y0003666D03*
X0005162Y0003666D03*
X0005162Y0003667D03*
X0005162Y0003667D03*
X0005162Y0003668D03*
X0005162Y0003669D03*
X0005162Y0003670D03*
X0005162Y0003671D03*
X0005162Y0003672D03*
X0005162Y0003672D03*
X0005162Y0003672D03*
X0005162Y0003673D03*
X0005162Y0003673D03*
X0005162Y0003674D03*
X0005162Y0003675D03*
X0005162Y0003675D03*
X0005162Y0003676D03*
X0005162Y0003676D03*
X0005162Y0003676D03*
X0005162Y0003677D03*
X0005162Y0003677D03*
X0005162Y0003678D03*
X0005162Y0003678D03*
X0005162Y0003679D03*
X0005162Y0003680D03*
X0005162Y0003680D03*
X0005162Y0003681D03*
X0005162Y0003681D03*
X0005162Y0003682D03*
X0005162Y0003682D03*
X0005162Y0003683D03*
X0005162Y0003683D03*
X0005162Y0003683D03*
X0005162Y0003684D03*
X0005162Y0003684D03*
X0005162Y0003684D03*
X0005162Y0003685D03*
X0005162Y0003685D03*
X0005162Y0003686D03*
X0005162Y0003687D03*
X0005162Y0003687D03*
X0005162Y0003688D03*
X0005162Y0003688D03*
X0005162Y0003689D03*
X0005162Y0003689D03*
X0005162Y0003690D03*
X0005162Y0003690D03*
X0005162Y0003691D03*
X0005162Y0003691D03*
X0005162Y0003691D03*
X0005162Y0003691D03*
X0005162Y0003692D03*
X0005162Y0003693D03*
X0005162Y0003694D03*
X0005162Y0003694D03*
X0005162Y0003695D03*
X0005162Y0003695D03*
X0005162Y0003695D03*
D59*
X0005162Y0003695D03*
X0005162Y0003696D03*
X0005162Y0003628D03*
X0005162Y0003628D03*
X0005108Y0003634D03*
X0005108Y0003635D03*
D60*
X0005162Y0003628D03*
X0005162Y0003696D03*
D61*
X0005162Y0003629D03*
X0005108Y0003634D03*
D62*
X0005108Y0003634D03*
X0005108Y0003634D03*
X0005162Y0003629D03*
X0005162Y0003696D03*
X0005162Y0003696D03*
D63*
X0005162Y0003696D03*
X0005162Y0003629D03*
X0005108Y0003634D03*
D64*
X0005162Y0003629D03*
X0005162Y0003696D03*
D65*
X0005162Y0003696D03*
X0005162Y0003629D03*
X0005108Y0003634D03*
X0005108Y0003634D03*
D66*
X0005108Y0003634D03*
X0005162Y0003629D03*
X0005162Y0003629D03*
X0005162Y0003696D03*
D67*
X0005162Y0003629D03*
D68*
X0005162Y0003629D03*
X0005162Y0003697D03*
D69*
X0005162Y0003697D03*
X0005162Y0003629D03*
X0005108Y0003633D03*
X0005108Y0003633D03*
D70*
X0005162Y0003630D03*
X0005162Y0003630D03*
X0005162Y0003697D03*
D71*
X0005162Y0003697D03*
X0005162Y0003630D03*
X0005162Y0003630D03*
X0005162Y0003630D03*
D72*
X0005162Y0003630D03*
D73*
X0005162Y0003630D03*
X0005161Y0003630D03*
D74*
X0005108Y0003630D03*
D75*
X0005108Y0003630D03*
D76*
X0005161Y0003630D03*
D77*
X0005108Y0003630D03*
D78*
X0005161Y0003630D03*
D79*
X0005108Y0003631D03*
D80*
X0005161Y0003631D03*
D81*
X0005108Y0003631D03*
D82*
X0005161Y0003631D03*
D83*
X0005108Y0003631D03*
D84*
X0005161Y0003631D03*
D85*
X0005108Y0003631D03*
X0005116Y0003683D03*
D86*
X0005161Y0003631D03*
D87*
X0005108Y0003631D03*
D88*
X0005108Y0003633D03*
X0005161Y0003631D03*
D89*
X0005108Y0003631D03*
X0005115Y0003685D03*
D90*
X0005162Y0003697D03*
X0005161Y0003631D03*
X0005161Y0003631D03*
D91*
X0005108Y0003631D03*
D92*
X0005108Y0003631D03*
D93*
X0005161Y0003631D03*
D94*
X0005108Y0003631D03*
D95*
X0005161Y0003631D03*
X0005161Y0003631D03*
D96*
X0005108Y0003631D03*
D97*
X0005108Y0003632D03*
D98*
X0005100Y0003632D03*
X0005118Y0003632D03*
X0005154Y0003698D03*
X0005169Y0003698D03*
D99*
X0005161Y0003632D03*
D100*
X0005157Y0003641D03*
X0005108Y0003632D03*
D101*
X0005161Y0003632D03*
D102*
X0005108Y0003632D03*
D103*
X0005161Y0003632D03*
D104*
X0005108Y0003632D03*
X0005112Y0003692D03*
D105*
X0005161Y0003632D03*
X0005161Y0003632D03*
X0005161Y0003632D03*
D106*
X0005158Y0003639D03*
X0005108Y0003632D03*
X0005112Y0003693D03*
X0005105Y0003701D03*
X0005105Y0003701D03*
X0005105Y0003702D03*
X0005105Y0003702D03*
D107*
X0005107Y0003632D03*
X0005158Y0003638D03*
D108*
X0005159Y0003637D03*
X0005108Y0003632D03*
D109*
X0005161Y0003632D03*
D110*
X0005108Y0003632D03*
D111*
X0005161Y0003632D03*
D112*
X0005108Y0003632D03*
D113*
X0005161Y0003632D03*
D114*
X0005160Y0003635D03*
X0005108Y0003632D03*
X0005102Y0003706D03*
D115*
X0005161Y0003632D03*
D116*
X0005160Y0003634D03*
X0005107Y0003633D03*
D117*
X0005161Y0003633D03*
D118*
X0005160Y0003633D03*
X0005108Y0003633D03*
D119*
X0005160Y0003633D03*
D120*
X0005107Y0003633D03*
D121*
X0005160Y0003633D03*
D122*
X0005108Y0003633D03*
D123*
X0005160Y0003633D03*
X0005162Y0003698D03*
D124*
X0005162Y0003697D03*
X0005108Y0003633D03*
D125*
X0005160Y0003633D03*
X0005160Y0003633D03*
D126*
X0005108Y0003633D03*
D127*
X0005160Y0003633D03*
D128*
X0005160Y0003633D03*
D129*
X0005108Y0003634D03*
X0005108Y0003633D03*
X0005162Y0003697D03*
D130*
X0005160Y0003633D03*
D131*
X0005160Y0003634D03*
D132*
X0005160Y0003634D03*
D133*
X0005160Y0003634D03*
D134*
X0005108Y0003634D03*
D135*
X0005160Y0003634D03*
D136*
X0005160Y0003634D03*
D137*
X0005160Y0003634D03*
X0005160Y0003634D03*
D138*
X0005160Y0003634D03*
D139*
X0005160Y0003634D03*
X0005162Y0003698D03*
D140*
X0005102Y0003706D03*
X0005160Y0003635D03*
D141*
X0005108Y0003635D03*
D142*
X0005160Y0003635D03*
X0005102Y0003707D03*
D143*
X0005102Y0003706D03*
X0005160Y0003635D03*
D144*
X0005160Y0003635D03*
X0005102Y0003706D03*
D145*
X0005107Y0003683D03*
X0005107Y0003682D03*
X0005107Y0003682D03*
X0005107Y0003681D03*
X0005107Y0003681D03*
X0005107Y0003680D03*
X0005107Y0003679D03*
X0005107Y0003678D03*
X0005107Y0003677D03*
X0005107Y0003676D03*
X0005107Y0003676D03*
X0005107Y0003675D03*
X0005107Y0003674D03*
X0005107Y0003674D03*
X0005107Y0003673D03*
X0005107Y0003673D03*
X0005107Y0003672D03*
X0005107Y0003671D03*
X0005107Y0003671D03*
X0005107Y0003669D03*
X0005107Y0003668D03*
X0005107Y0003668D03*
X0005107Y0003668D03*
X0005107Y0003667D03*
X0005107Y0003667D03*
X0005107Y0003664D03*
X0005107Y0003663D03*
X0005107Y0003663D03*
X0005107Y0003662D03*
X0005107Y0003662D03*
X0005107Y0003660D03*
X0005107Y0003659D03*
X0005107Y0003659D03*
X0005107Y0003658D03*
X0005107Y0003657D03*
X0005107Y0003656D03*
X0005107Y0003655D03*
X0005107Y0003655D03*
X0005107Y0003654D03*
X0005107Y0003652D03*
X0005107Y0003652D03*
X0005107Y0003652D03*
X0005107Y0003652D03*
X0005107Y0003650D03*
X0005107Y0003650D03*
X0005107Y0003649D03*
X0005107Y0003647D03*
X0005107Y0003647D03*
X0005107Y0003647D03*
X0005107Y0003645D03*
X0005107Y0003645D03*
X0005107Y0003644D03*
X0005107Y0003644D03*
X0005107Y0003644D03*
X0005107Y0003644D03*
X0005107Y0003643D03*
X0005107Y0003641D03*
X0005107Y0003640D03*
X0005107Y0003640D03*
X0005107Y0003639D03*
X0005107Y0003637D03*
X0005107Y0003637D03*
X0005107Y0003637D03*
X0005107Y0003636D03*
X0005107Y0003636D03*
X0005107Y0003635D03*
X0005107Y0003635D03*
X0005162Y0003649D03*
X0005162Y0003650D03*
X0005162Y0003650D03*
X0005162Y0003651D03*
X0005162Y0003652D03*
X0005162Y0003652D03*
X0005162Y0003653D03*
X0005162Y0003653D03*
X0005162Y0003654D03*
X0005162Y0003654D03*
X0005162Y0003655D03*
X0005162Y0003655D03*
X0005162Y0003656D03*
X0005162Y0003657D03*
X0005162Y0003658D03*
X0005162Y0003659D03*
X0005162Y0003659D03*
X0005162Y0003659D03*
X0005162Y0003660D03*
X0005162Y0003661D03*
X0005162Y0003662D03*
X0005162Y0003662D03*
X0005162Y0003663D03*
X0005162Y0003666D03*
X0005162Y0003666D03*
X0005162Y0003667D03*
X0005162Y0003668D03*
X0005162Y0003668D03*
X0005162Y0003669D03*
X0005162Y0003670D03*
X0005162Y0003671D03*
X0005162Y0003672D03*
X0005162Y0003672D03*
X0005162Y0003673D03*
X0005162Y0003673D03*
X0005162Y0003674D03*
X0005162Y0003676D03*
X0005162Y0003676D03*
X0005162Y0003677D03*
X0005162Y0003678D03*
X0005162Y0003678D03*
X0005162Y0003679D03*
X0005162Y0003680D03*
X0005162Y0003680D03*
X0005162Y0003681D03*
X0005162Y0003682D03*
X0005162Y0003683D03*
X0005162Y0003684D03*
X0005162Y0003684D03*
X0005162Y0003685D03*
X0005162Y0003685D03*
X0005162Y0003686D03*
X0005162Y0003686D03*
X0005162Y0003687D03*
X0005162Y0003687D03*
X0005162Y0003688D03*
X0005162Y0003689D03*
X0005162Y0003690D03*
X0005162Y0003691D03*
X0005162Y0003691D03*
X0005162Y0003691D03*
X0005162Y0003692D03*
X0005162Y0003694D03*
X0005162Y0003694D03*
X0005162Y0003695D03*
X0005162Y0003695D03*
D146*
X0005159Y0003635D03*
X0005160Y0003635D03*
X0005102Y0003706D03*
D147*
X0005159Y0003635D03*
D148*
X0005159Y0003635D03*
X0005159Y0003636D03*
D149*
X0005159Y0003635D03*
D150*
X0005159Y0003636D03*
X0005103Y0003705D03*
X0005103Y0003705D03*
D151*
X0005103Y0003706D03*
X0005159Y0003636D03*
D152*
X0005159Y0003636D03*
X0005103Y0003705D03*
D153*
X0005159Y0003636D03*
X0005159Y0003636D03*
D154*
X0005159Y0003636D03*
X0005103Y0003705D03*
D155*
X0005159Y0003636D03*
D156*
X0005159Y0003636D03*
X0005162Y0003698D03*
D157*
X0005159Y0003637D03*
X0005159Y0003636D03*
D158*
X0005159Y0003637D03*
X0005103Y0003704D03*
X0005103Y0003705D03*
D159*
X0005103Y0003704D03*
X0005159Y0003637D03*
D160*
X0005159Y0003637D03*
D161*
X0005159Y0003637D03*
X0005103Y0003704D03*
D162*
X0005103Y0003704D03*
X0005159Y0003637D03*
D163*
X0005159Y0003637D03*
X0005162Y0003698D03*
X0005103Y0003704D03*
X0005103Y0003704D03*
D164*
X0005158Y0003637D03*
X0005159Y0003637D03*
D165*
X0005158Y0003638D03*
X0005158Y0003638D03*
X0005104Y0003704D03*
X0005103Y0003704D03*
D166*
X0005158Y0003638D03*
D167*
X0005158Y0003638D03*
D168*
X0005158Y0003638D03*
X0005104Y0003703D03*
X0005104Y0003703D03*
D169*
X0005158Y0003638D03*
X0005158Y0003638D03*
D170*
X0005158Y0003638D03*
X0005158Y0003638D03*
X0005149Y0003649D03*
X0005149Y0003650D03*
X0005148Y0003651D03*
X0005147Y0003651D03*
X0005147Y0003652D03*
X0005146Y0003653D03*
X0005145Y0003654D03*
X0005145Y0003654D03*
X0005144Y0003656D03*
X0005143Y0003656D03*
X0005143Y0003656D03*
X0005143Y0003657D03*
X0005142Y0003657D03*
X0005142Y0003658D03*
X0005142Y0003658D03*
X0005141Y0003658D03*
X0005141Y0003659D03*
X0005141Y0003659D03*
X0005141Y0003659D03*
X0005140Y0003660D03*
X0005140Y0003660D03*
X0005140Y0003660D03*
X0005140Y0003660D03*
X0005140Y0003661D03*
X0005139Y0003661D03*
X0005139Y0003661D03*
X0005139Y0003661D03*
X0005139Y0003661D03*
X0005139Y0003662D03*
X0005139Y0003662D03*
X0005138Y0003662D03*
X0005138Y0003662D03*
X0005138Y0003662D03*
X0005138Y0003663D03*
X0005138Y0003663D03*
X0005138Y0003663D03*
X0005137Y0003663D03*
X0005137Y0003664D03*
X0005137Y0003664D03*
X0005137Y0003664D03*
X0005136Y0003664D03*
X0005136Y0003665D03*
X0005136Y0003665D03*
X0005136Y0003665D03*
X0005136Y0003665D03*
X0005135Y0003666D03*
X0005135Y0003666D03*
X0005135Y0003666D03*
X0005135Y0003666D03*
X0005135Y0003666D03*
X0005135Y0003666D03*
X0005134Y0003667D03*
X0005134Y0003667D03*
X0005134Y0003667D03*
X0005134Y0003668D03*
X0005133Y0003668D03*
X0005133Y0003668D03*
X0005133Y0003668D03*
X0005133Y0003668D03*
X0005133Y0003668D03*
X0005133Y0003668D03*
X0005132Y0003669D03*
X0005132Y0003669D03*
X0005132Y0003669D03*
X0005132Y0003670D03*
X0005132Y0003670D03*
X0005131Y0003670D03*
X0005131Y0003670D03*
X0005131Y0003671D03*
X0005131Y0003671D03*
X0005131Y0003671D03*
X0005130Y0003671D03*
X0005130Y0003672D03*
X0005130Y0003672D03*
X0005130Y0003672D03*
X0005130Y0003672D03*
X0005130Y0003672D03*
X0005130Y0003672D03*
X0005129Y0003673D03*
X0005129Y0003673D03*
X0005129Y0003673D03*
X0005129Y0003673D03*
X0005129Y0003673D03*
X0005129Y0003673D03*
X0005129Y0003673D03*
X0005129Y0003674D03*
X0005128Y0003674D03*
X0005128Y0003674D03*
X0005128Y0003674D03*
X0005128Y0003674D03*
X0005128Y0003675D03*
X0005128Y0003675D03*
X0005127Y0003675D03*
X0005127Y0003675D03*
X0005127Y0003675D03*
X0005127Y0003676D03*
X0005127Y0003676D03*
X0005127Y0003676D03*
X0005126Y0003676D03*
X0005126Y0003677D03*
X0005126Y0003677D03*
X0005126Y0003677D03*
X0005126Y0003677D03*
X0005125Y0003677D03*
X0005125Y0003677D03*
X0005125Y0003678D03*
X0005125Y0003678D03*
X0005125Y0003678D03*
X0005125Y0003678D03*
X0005124Y0003679D03*
X0005124Y0003679D03*
X0005124Y0003679D03*
X0005124Y0003679D03*
X0005124Y0003680D03*
X0005123Y0003680D03*
X0005123Y0003680D03*
X0005123Y0003680D03*
X0005123Y0003680D03*
X0005123Y0003681D03*
X0005122Y0003681D03*
X0005122Y0003681D03*
X0005122Y0003681D03*
X0005122Y0003681D03*
X0005122Y0003682D03*
X0005122Y0003682D03*
X0005121Y0003682D03*
X0005121Y0003683D03*
X0005104Y0003703D03*
D171*
X0005110Y0003695D03*
X0005111Y0003694D03*
X0005112Y0003693D03*
X0005158Y0003639D03*
D172*
X0005158Y0003639D03*
X0005158Y0003639D03*
X0005149Y0003650D03*
X0005148Y0003650D03*
X0005148Y0003650D03*
X0005147Y0003652D03*
X0005112Y0003693D03*
X0005112Y0003693D03*
X0005112Y0003693D03*
X0005112Y0003693D03*
X0005111Y0003694D03*
X0005111Y0003694D03*
X0005111Y0003694D03*
X0005111Y0003694D03*
X0005111Y0003695D03*
X0005111Y0003695D03*
X0005110Y0003695D03*
X0005110Y0003695D03*
X0005110Y0003696D03*
X0005109Y0003696D03*
D173*
X0005109Y0003697D03*
X0005108Y0003698D03*
X0005108Y0003698D03*
X0005107Y0003698D03*
X0005107Y0003698D03*
X0005107Y0003699D03*
X0005107Y0003699D03*
X0005107Y0003699D03*
X0005107Y0003699D03*
X0005106Y0003699D03*
X0005106Y0003700D03*
X0005104Y0003702D03*
X0005162Y0003698D03*
X0005158Y0003639D03*
D174*
X0005158Y0003639D03*
X0005112Y0003693D03*
X0005112Y0003693D03*
X0005107Y0003699D03*
X0005106Y0003700D03*
X0005106Y0003700D03*
X0005106Y0003700D03*
X0005105Y0003701D03*
X0005105Y0003701D03*
X0005105Y0003701D03*
X0005105Y0003701D03*
X0005105Y0003701D03*
X0005104Y0003702D03*
X0005104Y0003702D03*
X0005104Y0003702D03*
D175*
X0005104Y0003702D03*
X0005105Y0003701D03*
X0005106Y0003700D03*
X0005107Y0003699D03*
X0005158Y0003639D03*
D176*
X0005158Y0003639D03*
X0005112Y0003692D03*
D177*
X0005158Y0003639D03*
D178*
X0005158Y0003639D03*
X0005158Y0003640D03*
X0005112Y0003692D03*
X0005112Y0003692D03*
D179*
X0005112Y0003692D03*
X0005112Y0003692D03*
X0005162Y0003698D03*
X0005157Y0003640D03*
X0005158Y0003640D03*
D180*
X0005158Y0003640D03*
X0005157Y0003640D03*
D181*
X0005157Y0003640D03*
X0005113Y0003692D03*
D182*
X0005107Y0003668D03*
X0005107Y0003664D03*
X0005107Y0003663D03*
X0005107Y0003659D03*
X0005107Y0003657D03*
X0005107Y0003652D03*
X0005107Y0003651D03*
X0005107Y0003643D03*
X0005107Y0003640D03*
X0005162Y0003664D03*
X0005162Y0003664D03*
X0005162Y0003665D03*
X0005162Y0003667D03*
X0005162Y0003672D03*
X0005162Y0003675D03*
X0005162Y0003681D03*
X0005162Y0003693D03*
D183*
X0005113Y0003692D03*
X0005157Y0003640D03*
D184*
X0005157Y0003640D03*
X0005113Y0003691D03*
D185*
X0005113Y0003691D03*
X0005157Y0003641D03*
X0005157Y0003640D03*
X0005157Y0003640D03*
D186*
X0005157Y0003641D03*
X0005157Y0003641D03*
X0005113Y0003691D03*
X0005113Y0003691D03*
D187*
X0005157Y0003641D03*
D188*
X0005157Y0003641D03*
D189*
X0005157Y0003641D03*
X0005157Y0003641D03*
X0005113Y0003691D03*
D190*
X0005113Y0003691D03*
X0005113Y0003691D03*
X0005162Y0003699D03*
X0005157Y0003641D03*
X0005157Y0003641D03*
D191*
X0005157Y0003642D03*
X0005157Y0003642D03*
X0005113Y0003690D03*
D192*
X0005113Y0003690D03*
X0005157Y0003642D03*
D193*
X0005157Y0003642D03*
X0005113Y0003690D03*
D194*
X0005113Y0003690D03*
X0005156Y0003642D03*
X0005157Y0003642D03*
D195*
X0005157Y0003642D03*
X0005113Y0003690D03*
D196*
X0005156Y0003642D03*
D197*
X0005156Y0003642D03*
X0005114Y0003689D03*
X0005113Y0003689D03*
D198*
X0005114Y0003689D03*
X0005156Y0003643D03*
D199*
X0005156Y0003643D03*
X0005114Y0003689D03*
X0005114Y0003689D03*
D200*
X0005114Y0003689D03*
X0005156Y0003643D03*
D201*
X0005156Y0003643D03*
D202*
X0005156Y0003643D03*
X0005114Y0003689D03*
D203*
X0005114Y0003689D03*
X0005156Y0003643D03*
D204*
X0005156Y0003643D03*
X0005162Y0003699D03*
X0005114Y0003689D03*
D205*
X0005156Y0003643D03*
D206*
X0005107Y0003644D03*
X0005107Y0003643D03*
X0005107Y0003651D03*
X0005107Y0003652D03*
X0005107Y0003663D03*
X0005107Y0003663D03*
X0005107Y0003667D03*
X0005107Y0003668D03*
X0005107Y0003674D03*
X0005107Y0003682D03*
D207*
X0005114Y0003688D03*
X0005156Y0003643D03*
D208*
X0005156Y0003643D03*
X0005156Y0003644D03*
X0005114Y0003688D03*
X0005114Y0003688D03*
D209*
X0005114Y0003688D03*
X0005156Y0003644D03*
D210*
X0005156Y0003644D03*
X0005156Y0003644D03*
X0005114Y0003688D03*
X0005114Y0003688D03*
D211*
X0005114Y0003688D03*
X0005156Y0003644D03*
D212*
X0005156Y0003644D03*
X0005114Y0003688D03*
D213*
X0005114Y0003688D03*
X0005156Y0003644D03*
X0005156Y0003644D03*
D214*
X0005156Y0003644D03*
X0005114Y0003687D03*
D215*
X0005114Y0003687D03*
X0005114Y0003687D03*
X0005156Y0003644D03*
D216*
X0005156Y0003645D03*
D217*
X0005155Y0003645D03*
D218*
X0005155Y0003645D03*
X0005161Y0003699D03*
X0005115Y0003687D03*
D219*
X0005155Y0003645D03*
D220*
X0005155Y0003645D03*
X0005115Y0003687D03*
D221*
X0005115Y0003687D03*
X0005115Y0003687D03*
X0005155Y0003645D03*
X0005155Y0003645D03*
D222*
X0005155Y0003645D03*
X0005155Y0003645D03*
X0005115Y0003686D03*
X0005115Y0003687D03*
D223*
X0005115Y0003686D03*
X0005155Y0003645D03*
D224*
X0005155Y0003646D03*
X0005162Y0003699D03*
D225*
X0005155Y0003646D03*
D226*
X0005155Y0003646D03*
X0005115Y0003686D03*
D227*
X0005115Y0003686D03*
X0005155Y0003646D03*
X0005155Y0003646D03*
D228*
X0005155Y0003646D03*
X0005155Y0003646D03*
X0005115Y0003686D03*
D229*
X0005115Y0003686D03*
X0005155Y0003646D03*
D230*
X0005155Y0003646D03*
D231*
X0005155Y0003647D03*
D232*
X0005155Y0003647D03*
X0005155Y0003647D03*
X0005161Y0003699D03*
D233*
X0005115Y0003685D03*
X0005115Y0003685D03*
X0005154Y0003647D03*
X0005155Y0003647D03*
D234*
X0005154Y0003647D03*
X0005115Y0003685D03*
D235*
X0005115Y0003685D03*
X0005154Y0003647D03*
D236*
X0005154Y0003647D03*
X0005154Y0003647D03*
X0005116Y0003684D03*
X0005116Y0003685D03*
D237*
X0005116Y0003684D03*
X0005154Y0003647D03*
D238*
X0005154Y0003648D03*
X0005161Y0003699D03*
X0005116Y0003684D03*
D239*
X0005116Y0003684D03*
X0005116Y0003684D03*
X0005154Y0003648D03*
X0005154Y0003648D03*
D240*
X0005154Y0003648D03*
D241*
X0005154Y0003648D03*
D242*
X0005154Y0003648D03*
X0005154Y0003648D03*
D243*
X0005154Y0003648D03*
X0005116Y0003684D03*
D244*
X0005116Y0003684D03*
X0005116Y0003684D03*
X0005161Y0003699D03*
X0005154Y0003648D03*
D245*
X0005154Y0003648D03*
X0005116Y0003683D03*
X0005116Y0003683D03*
D246*
X0005154Y0003649D03*
X0005154Y0003649D03*
D247*
X0005154Y0003649D03*
X0005116Y0003683D03*
D248*
X0005116Y0003683D03*
X0005154Y0003649D03*
X0005154Y0003649D03*
D249*
X0005154Y0003649D03*
X0005154Y0003649D03*
D250*
X0005153Y0003649D03*
D251*
X0005149Y0003649D03*
X0005149Y0003650D03*
X0005148Y0003650D03*
X0005148Y0003650D03*
X0005148Y0003651D03*
X0005148Y0003651D03*
X0005148Y0003651D03*
X0005148Y0003651D03*
X0005147Y0003651D03*
X0005147Y0003651D03*
X0005147Y0003652D03*
X0005147Y0003652D03*
X0005147Y0003652D03*
X0005146Y0003652D03*
X0005146Y0003652D03*
X0005146Y0003652D03*
X0005146Y0003653D03*
X0005146Y0003653D03*
X0005146Y0003653D03*
X0005146Y0003653D03*
X0005146Y0003653D03*
X0005146Y0003653D03*
X0005146Y0003653D03*
X0005145Y0003654D03*
X0005145Y0003654D03*
X0005145Y0003654D03*
X0005145Y0003654D03*
X0005145Y0003654D03*
X0005145Y0003654D03*
X0005145Y0003654D03*
X0005145Y0003655D03*
X0005144Y0003655D03*
X0005144Y0003655D03*
X0005144Y0003655D03*
X0005144Y0003655D03*
X0005144Y0003655D03*
X0005144Y0003655D03*
X0005143Y0003656D03*
X0005143Y0003656D03*
X0005143Y0003656D03*
X0005143Y0003656D03*
X0005143Y0003656D03*
X0005143Y0003657D03*
X0005142Y0003657D03*
X0005142Y0003657D03*
X0005142Y0003657D03*
X0005142Y0003658D03*
X0005142Y0003658D03*
X0005141Y0003658D03*
X0005141Y0003658D03*
X0005141Y0003659D03*
X0005141Y0003659D03*
X0005141Y0003659D03*
X0005141Y0003659D03*
X0005140Y0003660D03*
X0005140Y0003660D03*
X0005140Y0003660D03*
X0005139Y0003661D03*
X0005139Y0003661D03*
X0005139Y0003661D03*
X0005139Y0003662D03*
X0005138Y0003662D03*
X0005138Y0003662D03*
X0005138Y0003663D03*
X0005137Y0003663D03*
X0005137Y0003663D03*
X0005137Y0003663D03*
X0005137Y0003664D03*
X0005136Y0003664D03*
X0005136Y0003664D03*
X0005136Y0003665D03*
X0005135Y0003666D03*
X0005135Y0003666D03*
X0005134Y0003667D03*
X0005134Y0003667D03*
X0005134Y0003667D03*
X0005133Y0003669D03*
X0005133Y0003669D03*
X0005132Y0003669D03*
X0005131Y0003670D03*
X0005131Y0003671D03*
X0005130Y0003672D03*
X0005112Y0003694D03*
X0005111Y0003694D03*
X0005104Y0003703D03*
D252*
X0005138Y0003663D03*
X0005138Y0003662D03*
X0005140Y0003660D03*
X0005140Y0003660D03*
X0005141Y0003659D03*
X0005142Y0003658D03*
X0005143Y0003657D03*
X0005145Y0003654D03*
X0005145Y0003653D03*
X0005147Y0003652D03*
X0005148Y0003650D03*
X0005149Y0003650D03*
D253*
X0005163Y0003650D03*
X0005163Y0003653D03*
X0005163Y0003656D03*
X0005163Y0003657D03*
X0005163Y0003657D03*
X0005163Y0003658D03*
X0005163Y0003659D03*
X0005163Y0003661D03*
X0005163Y0003666D03*
X0005163Y0003673D03*
X0005163Y0003675D03*
X0005163Y0003679D03*
X0005163Y0003682D03*
X0005163Y0003682D03*
X0005163Y0003683D03*
X0005163Y0003684D03*
X0005163Y0003685D03*
X0005163Y0003689D03*
X0005163Y0003689D03*
X0005163Y0003690D03*
X0005163Y0003691D03*
X0005163Y0003693D03*
X0005107Y0003666D03*
D254*
X0005162Y0003667D03*
X0005162Y0003667D03*
X0005162Y0003667D03*
X0005162Y0003666D03*
X0005162Y0003666D03*
X0005162Y0003666D03*
X0005162Y0003665D03*
X0005162Y0003665D03*
X0005162Y0003665D03*
X0005162Y0003664D03*
X0005162Y0003664D03*
X0005162Y0003663D03*
X0005162Y0003663D03*
X0005162Y0003662D03*
X0005162Y0003662D03*
X0005162Y0003661D03*
X0005162Y0003661D03*
X0005162Y0003661D03*
X0005162Y0003660D03*
X0005162Y0003660D03*
X0005162Y0003660D03*
X0005162Y0003659D03*
X0005162Y0003658D03*
X0005162Y0003658D03*
X0005162Y0003658D03*
X0005162Y0003657D03*
X0005162Y0003657D03*
X0005162Y0003657D03*
X0005162Y0003656D03*
X0005162Y0003656D03*
X0005162Y0003656D03*
X0005162Y0003655D03*
X0005162Y0003655D03*
X0005162Y0003654D03*
X0005162Y0003654D03*
X0005162Y0003654D03*
X0005162Y0003653D03*
X0005162Y0003653D03*
X0005162Y0003652D03*
X0005162Y0003651D03*
X0005162Y0003650D03*
X0005162Y0003650D03*
X0005162Y0003668D03*
X0005162Y0003668D03*
X0005162Y0003669D03*
X0005162Y0003669D03*
X0005162Y0003669D03*
X0005162Y0003670D03*
X0005162Y0003670D03*
X0005162Y0003670D03*
X0005162Y0003671D03*
X0005162Y0003671D03*
X0005162Y0003672D03*
X0005162Y0003672D03*
X0005162Y0003673D03*
X0005162Y0003673D03*
X0005162Y0003673D03*
X0005162Y0003674D03*
X0005162Y0003674D03*
X0005162Y0003674D03*
X0005162Y0003675D03*
X0005162Y0003675D03*
X0005162Y0003675D03*
X0005162Y0003676D03*
X0005162Y0003677D03*
X0005162Y0003677D03*
X0005162Y0003678D03*
X0005162Y0003679D03*
X0005162Y0003679D03*
X0005162Y0003679D03*
X0005162Y0003679D03*
X0005162Y0003680D03*
X0005162Y0003680D03*
X0005162Y0003681D03*
X0005162Y0003681D03*
X0005162Y0003681D03*
X0005162Y0003682D03*
X0005162Y0003682D03*
X0005162Y0003682D03*
X0005162Y0003683D03*
X0005162Y0003683D03*
X0005162Y0003684D03*
X0005162Y0003684D03*
X0005162Y0003685D03*
X0005162Y0003685D03*
X0005162Y0003686D03*
X0005162Y0003686D03*
X0005162Y0003686D03*
X0005162Y0003687D03*
X0005162Y0003687D03*
X0005162Y0003688D03*
X0005162Y0003688D03*
X0005162Y0003689D03*
X0005162Y0003689D03*
X0005162Y0003689D03*
X0005162Y0003690D03*
X0005162Y0003690D03*
X0005162Y0003690D03*
X0005162Y0003691D03*
X0005162Y0003692D03*
X0005162Y0003692D03*
X0005162Y0003692D03*
X0005162Y0003693D03*
X0005162Y0003693D03*
X0005162Y0003693D03*
X0005162Y0003693D03*
X0005162Y0003694D03*
X0005162Y0003694D03*
X0005162Y0003695D03*
D255*
X0005134Y0003667D03*
X0005140Y0003660D03*
X0005142Y0003658D03*
X0005142Y0003658D03*
X0005143Y0003657D03*
X0005147Y0003652D03*
X0005147Y0003651D03*
X0005148Y0003650D03*
D256*
X0005162Y0003650D03*
X0005162Y0003654D03*
X0005162Y0003660D03*
X0005162Y0003663D03*
X0005162Y0003668D03*
X0005162Y0003669D03*
X0005162Y0003670D03*
X0005162Y0003671D03*
X0005162Y0003671D03*
X0005162Y0003678D03*
X0005162Y0003686D03*
X0005162Y0003695D03*
D257*
X0005144Y0003656D03*
X0005147Y0003651D03*
D258*
X0005162Y0003651D03*
X0005162Y0003652D03*
X0005162Y0003653D03*
X0005162Y0003655D03*
X0005162Y0003660D03*
X0005162Y0003662D03*
X0005162Y0003668D03*
X0005162Y0003674D03*
X0005162Y0003676D03*
X0005162Y0003677D03*
X0005162Y0003678D03*
X0005162Y0003680D03*
X0005162Y0003685D03*
X0005162Y0003687D03*
X0005162Y0003688D03*
X0005162Y0003692D03*
X0005162Y0003694D03*
D259*
X0005132Y0003670D03*
X0005132Y0003669D03*
X0005133Y0003668D03*
X0005134Y0003668D03*
X0005134Y0003667D03*
X0005136Y0003665D03*
X0005136Y0003664D03*
X0005137Y0003664D03*
X0005142Y0003657D03*
X0005144Y0003655D03*
X0005146Y0003653D03*
X0005130Y0003672D03*
X0005128Y0003674D03*
X0005128Y0003675D03*
X0005127Y0003675D03*
X0005125Y0003678D03*
X0005124Y0003678D03*
X0005122Y0003682D03*
X0005121Y0003682D03*
X0005104Y0003703D03*
D260*
X0005121Y0003683D03*
X0005123Y0003680D03*
X0005124Y0003679D03*
X0005126Y0003677D03*
X0005126Y0003677D03*
X0005126Y0003676D03*
X0005127Y0003675D03*
X0005127Y0003675D03*
X0005128Y0003674D03*
X0005128Y0003674D03*
X0005128Y0003674D03*
X0005129Y0003673D03*
X0005130Y0003672D03*
X0005130Y0003672D03*
X0005131Y0003671D03*
X0005131Y0003670D03*
X0005132Y0003670D03*
X0005132Y0003670D03*
X0005133Y0003669D03*
X0005133Y0003668D03*
X0005134Y0003667D03*
X0005135Y0003666D03*
X0005136Y0003665D03*
X0005136Y0003665D03*
X0005137Y0003664D03*
X0005138Y0003662D03*
X0005139Y0003661D03*
X0005140Y0003659D03*
X0005141Y0003659D03*
X0005143Y0003657D03*
X0005144Y0003656D03*
X0005144Y0003655D03*
X0005144Y0003655D03*
D261*
X0005139Y0003661D03*
X0005135Y0003666D03*
X0005131Y0003671D03*
X0005130Y0003671D03*
X0005126Y0003676D03*
X0005123Y0003681D03*
D262*
X0005123Y0003680D03*
X0005123Y0003680D03*
X0005124Y0003679D03*
X0005124Y0003679D03*
X0005124Y0003679D03*
X0005125Y0003678D03*
X0005125Y0003678D03*
X0005125Y0003677D03*
X0005126Y0003676D03*
X0005127Y0003676D03*
X0005127Y0003676D03*
X0005127Y0003675D03*
X0005128Y0003674D03*
X0005131Y0003671D03*
X0005131Y0003671D03*
X0005132Y0003670D03*
X0005132Y0003669D03*
X0005132Y0003669D03*
X0005134Y0003667D03*
X0005135Y0003665D03*
X0005122Y0003681D03*
X0005122Y0003681D03*
X0005121Y0003682D03*
X0005121Y0003682D03*
X0005121Y0003682D03*
X0005121Y0003683D03*
X0005104Y0003703D03*
D263*
X0005123Y0003680D03*
X0005124Y0003679D03*
X0005126Y0003677D03*
X0005129Y0003673D03*
D264*
X0005129Y0003673D03*
X0005126Y0003676D03*
X0005125Y0003678D03*
X0005125Y0003678D03*
X0005124Y0003679D03*
X0005123Y0003680D03*
X0005123Y0003681D03*
X0005122Y0003682D03*
X0005122Y0003682D03*
X0005121Y0003683D03*
D265*
X0005122Y0003681D03*
X0005104Y0003703D03*
X0005104Y0003703D03*
D266*
X0005107Y0003682D03*
D267*
X0005116Y0003683D03*
D268*
X0005116Y0003684D03*
D269*
X0005116Y0003684D03*
D270*
X0005115Y0003685D03*
D271*
X0005115Y0003685D03*
X0005115Y0003685D03*
D272*
X0005115Y0003685D03*
D273*
X0005115Y0003686D03*
D274*
X0005115Y0003686D03*
D275*
X0005115Y0003686D03*
D276*
X0005114Y0003687D03*
D277*
X0005114Y0003687D03*
D278*
X0005114Y0003688D03*
D279*
X0005114Y0003689D03*
D280*
X0005113Y0003690D03*
D281*
X0005113Y0003690D03*
D282*
X0005113Y0003690D03*
D283*
X0005113Y0003690D03*
X0005113Y0003690D03*
D284*
X0005113Y0003691D03*
D285*
X0005113Y0003691D03*
D286*
X0005113Y0003691D03*
X0005162Y0003699D03*
D287*
X0005113Y0003692D03*
D288*
X0005112Y0003692D03*
D289*
X0005112Y0003693D03*
X0005104Y0003702D03*
D290*
X0005104Y0003702D03*
X0005104Y0003702D03*
X0005108Y0003698D03*
X0005108Y0003697D03*
X0005108Y0003697D03*
X0005109Y0003697D03*
X0005109Y0003697D03*
X0005109Y0003697D03*
X0005109Y0003697D03*
X0005109Y0003696D03*
X0005109Y0003696D03*
X0005110Y0003696D03*
X0005110Y0003696D03*
X0005110Y0003695D03*
X0005110Y0003695D03*
X0005110Y0003695D03*
X0005111Y0003695D03*
X0005111Y0003694D03*
X0005112Y0003693D03*
D291*
X0005112Y0003694D03*
D292*
X0005111Y0003694D03*
X0005109Y0003696D03*
X0005109Y0003696D03*
X0005108Y0003698D03*
D293*
X0005162Y0003695D03*
D294*
X0005110Y0003696D03*
D295*
X0005162Y0003696D03*
D296*
X0005109Y0003696D03*
X0005106Y0003700D03*
D297*
X0005162Y0003696D03*
D298*
X0005162Y0003697D03*
D299*
X0005109Y0003697D03*
X0005108Y0003697D03*
X0005108Y0003698D03*
X0005108Y0003698D03*
X0005107Y0003699D03*
X0005107Y0003699D03*
X0005106Y0003700D03*
X0005106Y0003700D03*
X0005105Y0003701D03*
D300*
X0005108Y0003697D03*
D301*
X0005162Y0003697D03*
D302*
X0005162Y0003697D03*
D303*
X0005162Y0003698D03*
D304*
X0005162Y0003698D03*
D305*
X0005108Y0003698D03*
D306*
X0005162Y0003698D03*
D307*
X0005162Y0003698D03*
X0005104Y0003703D03*
D308*
X0005105Y0003701D03*
X0005106Y0003700D03*
X0005107Y0003699D03*
D309*
X0005162Y0003699D03*
D310*
X0005162Y0003699D03*
D311*
X0005161Y0003700D03*
D312*
X0005161Y0003700D03*
D313*
X0005161Y0003700D03*
D314*
X0005161Y0003700D03*
D315*
X0005161Y0003700D03*
D316*
X0005161Y0003700D03*
D317*
X0005162Y0003700D03*
D318*
X0005106Y0003700D03*
D319*
X0005162Y0003700D03*
D320*
X0005162Y0003700D03*
D321*
X0005162Y0003700D03*
X0005162Y0003701D03*
X0005162Y0003701D03*
X0005162Y0003701D03*
X0005162Y0003701D03*
X0005162Y0003701D03*
X0005162Y0003701D03*
X0005162Y0003702D03*
X0005162Y0003702D03*
X0005162Y0003702D03*
X0005162Y0003702D03*
X0005162Y0003702D03*
X0005162Y0003702D03*
X0005162Y0003703D03*
X0005162Y0003703D03*
X0005162Y0003703D03*
X0005162Y0003703D03*
X0005162Y0003703D03*
X0005162Y0003704D03*
X0005162Y0003704D03*
X0005162Y0003704D03*
X0005162Y0003704D03*
X0005162Y0003704D03*
X0005162Y0003704D03*
X0005162Y0003705D03*
X0005162Y0003705D03*
X0005162Y0003705D03*
X0005162Y0003705D03*
X0005162Y0003705D03*
X0005162Y0003705D03*
X0005162Y0003706D03*
X0005162Y0003706D03*
X0005162Y0003706D03*
D322*
X0005162Y0003705D03*
X0005162Y0003705D03*
X0005162Y0003705D03*
X0005162Y0003704D03*
X0005162Y0003704D03*
X0005162Y0003703D03*
X0005162Y0003703D03*
X0005162Y0003703D03*
X0005162Y0003702D03*
X0005162Y0003702D03*
X0005162Y0003702D03*
X0005162Y0003701D03*
X0005162Y0003701D03*
X0005162Y0003701D03*
D323*
X0005162Y0003701D03*
D324*
X0005162Y0003702D03*
X0005162Y0003704D03*
X0005162Y0003706D03*
D325*
X0005162Y0003705D03*
X0005162Y0003703D03*
X0005162Y0003703D03*
D326*
X0005104Y0003703D03*
D327*
X0005103Y0003704D03*
D328*
X0005162Y0003704D03*
D329*
X0005103Y0003704D03*
D330*
X0005103Y0003705D03*
X0005103Y0003705D03*
X0005103Y0003705D03*
D331*
X0005103Y0003705D03*
D332*
X0005103Y0003705D03*
D333*
X0005103Y0003706D03*
D334*
X0005103Y0003706D03*
D335*
X0005103Y0003706D03*
X0005103Y0003706D03*
D336*
X0005147Y0003706D03*
D337*
X0005148Y0003706D03*
D338*
X0005153Y0003706D03*
X0005160Y0003706D03*
D339*
X0005158Y0003706D03*
X0005157Y0003706D03*
X0005166Y0003706D03*
X0005167Y0003706D03*
X0005168Y0003706D03*
D340*
X0005158Y0003706D03*
D341*
X0005164Y0003706D03*
X0005175Y0003706D03*
D342*
X0005166Y0003706D03*
D343*
X0005169Y0003706D03*
D344*
X0005172Y0003706D03*
D345*
X0139942Y0040323D03*
X0140651Y0040323D03*
X0142068Y0040323D03*
X0143958Y0040323D03*
X0145021Y0040323D03*
X0154115Y0040205D03*
X0154351Y0040205D03*
X0154706Y0040205D03*
X0154942Y0040205D03*
X0155178Y0040205D03*
X0156359Y0057685D03*
X0141241Y0059693D03*
X0140651Y0059693D03*
X0139824Y0059693D03*
X0139233Y0059693D03*
D346*
X0154706Y0040441D03*
X0154706Y0040323D03*
D347*
X0141536Y0041031D03*
X0141536Y0041268D03*
X0141418Y0041386D03*
X0141536Y0041622D03*
X0141418Y0040441D03*
X0154292Y0058394D03*
X0154292Y0058748D03*
X0154292Y0058984D03*
X0154292Y0059339D03*
D348*
X0154233Y0058157D03*
X0141477Y0041504D03*
X0141477Y0041150D03*
X0141477Y0040795D03*
X0141477Y0040559D03*
D349*
X0154647Y0040559D03*
D350*
X0141477Y0040677D03*
X0141477Y0040913D03*
X0154351Y0058276D03*
X0154351Y0058512D03*
X0154351Y0058630D03*
X0154351Y0058866D03*
X0154351Y0059102D03*
X0154351Y0059220D03*
X0154351Y0059457D03*
D351*
X0154588Y0040677D03*
D352*
X0154528Y0040795D03*
D353*
X0154469Y0040913D03*
X0154469Y0049654D03*
X0154469Y0052488D03*
X0154469Y0054378D03*
X0141359Y0053906D03*
X0141359Y0053551D03*
X0141359Y0053433D03*
X0141359Y0053079D03*
X0141359Y0052724D03*
X0141359Y0052370D03*
X0141359Y0052016D03*
X0141359Y0051780D03*
X0141359Y0051425D03*
X0141359Y0051189D03*
X0141359Y0050953D03*
X0141359Y0050717D03*
X0141359Y0050598D03*
X0141359Y0050244D03*
X0141359Y0049890D03*
X0141359Y0049535D03*
X0141359Y0049181D03*
X0141359Y0048945D03*
X0141359Y0048472D03*
X0141359Y0048118D03*
X0141359Y0047882D03*
X0141359Y0047528D03*
X0141359Y0047291D03*
X0141359Y0047055D03*
X0141359Y0046583D03*
X0141359Y0046228D03*
X0141359Y0045992D03*
X0141359Y0045638D03*
X0141359Y0045402D03*
X0141359Y0045165D03*
X0141359Y0044929D03*
X0141359Y0044575D03*
X0141359Y0044220D03*
X0141359Y0043866D03*
X0141359Y0043512D03*
X0141359Y0043276D03*
X0141359Y0042921D03*
D354*
X0141418Y0042803D03*
X0141418Y0042685D03*
X0141418Y0043039D03*
X0141418Y0043157D03*
X0141418Y0043394D03*
X0141418Y0043630D03*
X0141418Y0043748D03*
X0141418Y0043984D03*
X0141418Y0044102D03*
X0141418Y0044339D03*
X0141418Y0044457D03*
X0141418Y0044693D03*
X0141418Y0044811D03*
X0141418Y0045047D03*
X0141418Y0045283D03*
X0141418Y0045520D03*
X0141418Y0045756D03*
X0141418Y0045874D03*
X0141418Y0046110D03*
X0141418Y0046346D03*
X0141418Y0046465D03*
X0141418Y0046701D03*
X0141418Y0046819D03*
X0141418Y0046937D03*
X0141418Y0047173D03*
X0141418Y0047409D03*
X0141418Y0047646D03*
X0141418Y0047764D03*
X0141418Y0048000D03*
X0141418Y0048236D03*
X0141418Y0048354D03*
X0141418Y0048591D03*
X0141418Y0048709D03*
X0141418Y0048827D03*
X0141418Y0049063D03*
X0141418Y0049299D03*
X0141418Y0049417D03*
X0141418Y0049654D03*
X0141418Y0049772D03*
X0141418Y0050008D03*
X0141418Y0050126D03*
X0141418Y0050362D03*
X0141418Y0050480D03*
X0141418Y0050835D03*
X0141418Y0051071D03*
X0141418Y0051307D03*
X0141418Y0051543D03*
X0141418Y0051661D03*
X0141418Y0051898D03*
X0141418Y0052134D03*
X0141418Y0052252D03*
X0141418Y0052488D03*
X0141418Y0052606D03*
X0141418Y0052843D03*
X0141418Y0052961D03*
X0141418Y0053197D03*
X0141418Y0053315D03*
X0141418Y0053669D03*
X0141418Y0053787D03*
X0154410Y0053906D03*
X0154410Y0054024D03*
X0154410Y0054142D03*
X0154410Y0054260D03*
X0154410Y0054496D03*
X0154410Y0054614D03*
X0154410Y0054732D03*
X0154410Y0054850D03*
X0154410Y0054969D03*
X0154410Y0055087D03*
X0154410Y0055205D03*
X0154410Y0055323D03*
X0154410Y0055441D03*
X0154410Y0055559D03*
X0154410Y0055677D03*
X0154410Y0055795D03*
X0154410Y0055913D03*
X0154410Y0056031D03*
X0154410Y0056150D03*
X0154410Y0056268D03*
X0154410Y0056386D03*
X0154410Y0056504D03*
X0154410Y0056622D03*
X0154410Y0056740D03*
X0154410Y0056858D03*
X0154410Y0056976D03*
X0154410Y0053669D03*
X0154410Y0053551D03*
X0154410Y0053433D03*
X0154410Y0053315D03*
X0154410Y0053197D03*
X0154410Y0053079D03*
X0154410Y0052961D03*
X0154410Y0052843D03*
X0154410Y0052724D03*
X0154410Y0052606D03*
X0154410Y0052370D03*
X0154410Y0052252D03*
X0154410Y0052134D03*
X0154410Y0052016D03*
X0154410Y0051780D03*
X0154410Y0051661D03*
X0154410Y0051543D03*
X0154410Y0051425D03*
X0154410Y0051307D03*
X0154410Y0051189D03*
X0154410Y0051071D03*
X0154410Y0050953D03*
X0154410Y0050835D03*
X0154410Y0050717D03*
X0154410Y0050598D03*
X0154410Y0050480D03*
X0154410Y0050362D03*
X0154410Y0050244D03*
X0154410Y0050126D03*
X0154410Y0050008D03*
X0154410Y0049890D03*
X0154410Y0049772D03*
X0154410Y0049535D03*
X0154410Y0049417D03*
X0154410Y0049299D03*
X0154410Y0049181D03*
X0154410Y0049063D03*
X0154410Y0048945D03*
X0154410Y0048827D03*
X0154410Y0048709D03*
X0154410Y0048591D03*
X0154410Y0048472D03*
X0154410Y0048354D03*
X0154410Y0048236D03*
X0154410Y0048118D03*
X0154410Y0048000D03*
X0154410Y0047882D03*
X0154410Y0047764D03*
X0154410Y0047646D03*
X0154410Y0047528D03*
X0154410Y0047409D03*
X0154410Y0047291D03*
X0154410Y0047173D03*
X0154410Y0047055D03*
X0154410Y0046937D03*
X0154410Y0046819D03*
X0154410Y0046701D03*
X0154410Y0046583D03*
X0154410Y0046465D03*
X0154410Y0046346D03*
X0154410Y0041150D03*
X0154410Y0041031D03*
D355*
X0154351Y0041268D03*
X0154469Y0046228D03*
X0154469Y0051898D03*
X0154469Y0053787D03*
X0154351Y0057094D03*
X0141477Y0042567D03*
D356*
X0141536Y0042449D03*
X0154292Y0041386D03*
X0154292Y0057213D03*
D357*
X0154233Y0057331D03*
X0141595Y0042331D03*
X0154233Y0041504D03*
D358*
X0154174Y0041622D03*
X0154292Y0057449D03*
D359*
X0141477Y0041740D03*
D360*
X0154115Y0041740D03*
X0154115Y0041858D03*
D361*
X0152698Y0045165D03*
X0141477Y0041858D03*
X0143131Y0054969D03*
D362*
X0142658Y0056031D03*
X0153170Y0044102D03*
X0153170Y0043984D03*
X0141477Y0041976D03*
D363*
X0154056Y0041976D03*
D364*
X0153584Y0043039D03*
X0141418Y0042094D03*
X0140355Y0059220D03*
D365*
X0141477Y0042213D03*
X0153997Y0042094D03*
D366*
X0153938Y0042213D03*
D367*
X0153879Y0042331D03*
X0154351Y0057567D03*
D368*
X0153820Y0042449D03*
D369*
X0153761Y0042567D03*
X0153761Y0042685D03*
D370*
X0153702Y0042803D03*
X0140237Y0059575D03*
D371*
X0140296Y0059457D03*
X0140296Y0059339D03*
X0153643Y0042921D03*
D372*
X0153525Y0043157D03*
X0153525Y0043276D03*
X0140414Y0059102D03*
D373*
X0140473Y0058984D03*
X0154174Y0057685D03*
X0153466Y0043394D03*
D374*
X0153406Y0043512D03*
X0151162Y0046228D03*
X0151044Y0046346D03*
X0150454Y0047055D03*
X0149981Y0047646D03*
X0149745Y0047882D03*
X0149154Y0048591D03*
X0148682Y0049181D03*
X0148564Y0049299D03*
X0148446Y0049417D03*
X0148091Y0049890D03*
X0147855Y0050126D03*
X0147737Y0050244D03*
X0147501Y0050598D03*
X0147383Y0050717D03*
X0147265Y0050835D03*
X0147147Y0050953D03*
X0146674Y0051543D03*
X0146438Y0051780D03*
X0146084Y0052252D03*
X0145966Y0052370D03*
X0145847Y0052488D03*
X0145493Y0052961D03*
X0145375Y0053079D03*
X0145257Y0053197D03*
X0144903Y0053669D03*
X0144784Y0053787D03*
X0144666Y0053906D03*
X0141950Y0057094D03*
X0140532Y0058866D03*
D375*
X0140591Y0058748D03*
X0140591Y0058630D03*
X0140828Y0058394D03*
X0140946Y0058276D03*
X0141064Y0058157D03*
X0141300Y0057803D03*
X0141418Y0057685D03*
X0141536Y0057567D03*
X0141654Y0057449D03*
X0141773Y0057331D03*
X0142009Y0056976D03*
X0142245Y0056740D03*
X0142363Y0056622D03*
X0142481Y0056504D03*
X0144962Y0053551D03*
X0145080Y0053433D03*
X0145198Y0053315D03*
X0145552Y0052843D03*
X0145670Y0052724D03*
X0145788Y0052606D03*
X0146143Y0052134D03*
X0146261Y0052016D03*
X0146379Y0051898D03*
X0146615Y0051661D03*
X0146733Y0051425D03*
X0146851Y0051307D03*
X0146969Y0051189D03*
X0147088Y0051071D03*
X0147560Y0050480D03*
X0147678Y0050362D03*
X0147914Y0050008D03*
X0148151Y0049772D03*
X0148269Y0049654D03*
X0148387Y0049535D03*
X0148741Y0049063D03*
X0148859Y0048945D03*
X0148977Y0048827D03*
X0149095Y0048709D03*
X0149214Y0048472D03*
X0149332Y0048354D03*
X0149450Y0048236D03*
X0149568Y0048118D03*
X0149686Y0048000D03*
X0149804Y0047764D03*
X0150040Y0047528D03*
X0150158Y0047409D03*
X0150277Y0047291D03*
X0150395Y0047173D03*
X0150513Y0046937D03*
X0150631Y0046819D03*
X0150749Y0046701D03*
X0150867Y0046583D03*
X0150985Y0046465D03*
X0153347Y0043630D03*
D376*
X0153288Y0043748D03*
X0142540Y0056268D03*
X0142540Y0056386D03*
X0142186Y0056858D03*
X0141832Y0057213D03*
X0141241Y0057921D03*
X0141123Y0058039D03*
X0140769Y0058512D03*
D377*
X0142599Y0056150D03*
X0153229Y0043866D03*
D378*
X0153111Y0044220D03*
X0142717Y0055913D03*
D379*
X0142836Y0055677D03*
X0142836Y0055559D03*
X0152993Y0044457D03*
X0153111Y0044339D03*
D380*
X0152934Y0044575D03*
X0154233Y0057803D03*
D381*
X0142954Y0055441D03*
X0142954Y0055323D03*
X0152875Y0044811D03*
X0152875Y0044693D03*
D382*
X0152816Y0044929D03*
X0143013Y0055205D03*
D383*
X0143072Y0055087D03*
X0152757Y0045047D03*
D384*
X0152639Y0045283D03*
X0143190Y0054732D03*
X0143190Y0054850D03*
X0154174Y0057921D03*
D385*
X0143249Y0054614D03*
X0152580Y0045520D03*
X0152580Y0045402D03*
D386*
X0152521Y0045638D03*
X0143308Y0054496D03*
D387*
X0143367Y0054378D03*
X0152462Y0045756D03*
D388*
X0152403Y0045874D03*
X0143426Y0054260D03*
D389*
X0143485Y0054142D03*
X0152343Y0045992D03*
D390*
X0152284Y0046110D03*
X0143544Y0054024D03*
D391*
X0142777Y0055795D03*
D392*
X0154174Y0058039D03*
D393*
X0192060Y0066091D02*
X0194560Y0063591D01*
X0199560Y0063591D01*
X0202060Y0066091D01*
X0202060Y0071091D01*
X0199560Y0073591D01*
X0202060Y0076091D01*
X0202060Y0081091D01*
X0199560Y0083591D01*
X0202060Y0086091D01*
X0202060Y0091091D01*
X0199560Y0093591D01*
X0202060Y0096091D01*
X0202060Y0101091D01*
X0199560Y0103591D01*
X0202060Y0106091D01*
X0202060Y0111091D01*
X0199560Y0113591D01*
X0202060Y0116091D01*
X0202060Y0121091D01*
X0199560Y0123591D01*
X0202060Y0126091D01*
X0202060Y0131091D01*
X0199560Y0133591D01*
X0202060Y0136091D01*
X0202060Y0141091D01*
X0199560Y0143591D01*
X0194560Y0143591D01*
X0192060Y0141091D01*
X0192060Y0136091D01*
X0194560Y0133591D01*
X0192060Y0131091D01*
X0192060Y0126091D01*
X0194560Y0123591D01*
X0192060Y0121091D01*
X0192060Y0116091D01*
X0194560Y0113591D01*
X0192060Y0111091D01*
X0192060Y0106091D01*
X0194560Y0103591D01*
X0192060Y0101091D01*
X0192060Y0096091D01*
X0194560Y0093591D01*
X0192060Y0091091D01*
X0192060Y0086091D01*
X0194560Y0083591D01*
X0192060Y0081091D01*
X0192060Y0076091D01*
X0194560Y0073591D01*
X0192060Y0071091D01*
X0192060Y0066091D01*
X0015060Y0066091D02*
X0015060Y0071091D01*
X0012560Y0073591D01*
X0015060Y0076091D01*
X0015060Y0081091D01*
X0012560Y0083591D01*
X0015060Y0086091D01*
X0015060Y0091091D01*
X0012560Y0093591D01*
X0015060Y0096091D01*
X0015060Y0101091D01*
X0012560Y0103591D01*
X0015060Y0106091D01*
X0015060Y0111091D01*
X0012560Y0113591D01*
X0015060Y0116091D01*
X0015060Y0121091D01*
X0012560Y0123591D01*
X0015060Y0126091D01*
X0015060Y0131091D01*
X0012560Y0133591D01*
X0015060Y0136091D01*
X0015060Y0141091D01*
X0012560Y0143591D01*
X0007560Y0143591D01*
X0005060Y0141091D01*
X0005060Y0136091D01*
X0007560Y0133591D01*
X0005060Y0131091D01*
X0005060Y0126091D01*
X0007560Y0123591D01*
X0005060Y0121091D01*
X0005060Y0116091D01*
X0007560Y0113591D01*
X0005060Y0111091D01*
X0005060Y0106091D01*
X0007560Y0103591D01*
X0005060Y0101091D01*
X0005060Y0096091D01*
X0007560Y0093591D01*
X0005060Y0091091D01*
X0005060Y0086091D01*
X0007560Y0083591D01*
X0005060Y0081091D01*
X0005060Y0076091D01*
X0007560Y0073591D01*
X0005060Y0071091D01*
X0005060Y0066091D01*
X0007560Y0063591D01*
X0012560Y0063591D01*
X0015060Y0066091D01*
X0012560Y0063591D02*
X0015060Y0061091D01*
X0015060Y0056091D01*
X0012560Y0053591D01*
X0015060Y0051091D01*
X0015060Y0046091D01*
X0012560Y0043591D01*
X0015060Y0041091D01*
X0015060Y0036091D01*
X0012560Y0033591D01*
X0015060Y0031091D01*
X0015060Y0026091D01*
X0012560Y0023591D01*
X0015060Y0021091D01*
X0015060Y0016091D01*
X0012560Y0013591D01*
X0015060Y0011091D01*
X0015060Y0006091D01*
X0012560Y0003591D01*
X0007560Y0003591D01*
X0005060Y0006091D01*
X0005060Y0011091D01*
X0007560Y0013591D01*
X0005060Y0016091D01*
X0005060Y0021091D01*
X0007560Y0023591D01*
X0005060Y0026091D01*
X0005060Y0031091D01*
X0007560Y0033591D01*
X0005060Y0036091D01*
X0005060Y0041091D01*
X0007560Y0043591D01*
X0005060Y0046091D01*
X0005060Y0051091D01*
X0007560Y0053591D01*
X0005060Y0056091D01*
X0005060Y0061091D01*
X0007560Y0063591D01*
X0012560Y0063591D01*
D394*
X0093560Y0023591D02*
X0116560Y0023591D01*
X0116560Y0163591D01*
X0109060Y0163591D01*
X0109058Y0163465D01*
X0109052Y0163340D01*
X0109042Y0163215D01*
X0109028Y0163090D01*
X0109011Y0162965D01*
X0108989Y0162841D01*
X0108964Y0162718D01*
X0108934Y0162596D01*
X0108901Y0162475D01*
X0108864Y0162355D01*
X0108824Y0162236D01*
X0108779Y0162119D01*
X0108731Y0162002D01*
X0108679Y0161888D01*
X0108624Y0161775D01*
X0108565Y0161664D01*
X0108503Y0161555D01*
X0108437Y0161448D01*
X0108368Y0161343D01*
X0108296Y0161240D01*
X0108221Y0161139D01*
X0108142Y0161041D01*
X0108060Y0160946D01*
X0107976Y0160853D01*
X0107888Y0160763D01*
X0107798Y0160675D01*
X0107705Y0160591D01*
X0107610Y0160509D01*
X0107512Y0160430D01*
X0107411Y0160355D01*
X0107308Y0160283D01*
X0107203Y0160214D01*
X0107096Y0160148D01*
X0106987Y0160086D01*
X0106876Y0160027D01*
X0106763Y0159972D01*
X0106649Y0159920D01*
X0106532Y0159872D01*
X0106415Y0159827D01*
X0106296Y0159787D01*
X0106176Y0159750D01*
X0106055Y0159717D01*
X0105933Y0159687D01*
X0105810Y0159662D01*
X0105686Y0159640D01*
X0105561Y0159623D01*
X0105436Y0159609D01*
X0105311Y0159599D01*
X0105186Y0159593D01*
X0105060Y0159591D01*
X0104934Y0159593D01*
X0104809Y0159599D01*
X0104684Y0159609D01*
X0104559Y0159623D01*
X0104434Y0159640D01*
X0104310Y0159662D01*
X0104187Y0159687D01*
X0104065Y0159717D01*
X0103944Y0159750D01*
X0103824Y0159787D01*
X0103705Y0159827D01*
X0103588Y0159872D01*
X0103471Y0159920D01*
X0103357Y0159972D01*
X0103244Y0160027D01*
X0103133Y0160086D01*
X0103024Y0160148D01*
X0102917Y0160214D01*
X0102812Y0160283D01*
X0102709Y0160355D01*
X0102608Y0160430D01*
X0102510Y0160509D01*
X0102415Y0160591D01*
X0102322Y0160675D01*
X0102232Y0160763D01*
X0102144Y0160853D01*
X0102060Y0160946D01*
X0101978Y0161041D01*
X0101899Y0161139D01*
X0101824Y0161240D01*
X0101752Y0161343D01*
X0101683Y0161448D01*
X0101617Y0161555D01*
X0101555Y0161664D01*
X0101496Y0161775D01*
X0101441Y0161888D01*
X0101389Y0162002D01*
X0101341Y0162119D01*
X0101296Y0162236D01*
X0101256Y0162355D01*
X0101219Y0162475D01*
X0101186Y0162596D01*
X0101156Y0162718D01*
X0101131Y0162841D01*
X0101109Y0162965D01*
X0101092Y0163090D01*
X0101078Y0163215D01*
X0101068Y0163340D01*
X0101062Y0163465D01*
X0101060Y0163591D01*
X0093560Y0163591D01*
X0093560Y0023591D01*
D395*
X0053249Y0023591D02*
X0053253Y0023881D01*
X0053263Y0024171D01*
X0053281Y0024460D01*
X0053306Y0024749D01*
X0053338Y0025037D01*
X0053377Y0025324D01*
X0053423Y0025610D01*
X0053476Y0025895D01*
X0053536Y0026179D01*
X0053603Y0026461D01*
X0053677Y0026741D01*
X0053758Y0027020D01*
X0053845Y0027296D01*
X0053939Y0027570D01*
X0054040Y0027842D01*
X0054148Y0028111D01*
X0054262Y0028377D01*
X0054383Y0028641D01*
X0054510Y0028901D01*
X0054644Y0029159D01*
X0054783Y0029413D01*
X0054929Y0029663D01*
X0055081Y0029910D01*
X0055240Y0030153D01*
X0055404Y0030392D01*
X0055573Y0030627D01*
X0055749Y0030858D01*
X0055930Y0031084D01*
X0056117Y0031306D01*
X0056309Y0031523D01*
X0056506Y0031735D01*
X0056708Y0031943D01*
X0056916Y0032145D01*
X0057128Y0032342D01*
X0057345Y0032534D01*
X0057567Y0032721D01*
X0057793Y0032902D01*
X0058024Y0033078D01*
X0058259Y0033247D01*
X0058498Y0033411D01*
X0058741Y0033570D01*
X0058988Y0033722D01*
X0059238Y0033868D01*
X0059492Y0034007D01*
X0059750Y0034141D01*
X0060010Y0034268D01*
X0060274Y0034389D01*
X0060540Y0034503D01*
X0060809Y0034611D01*
X0061081Y0034712D01*
X0061355Y0034806D01*
X0061631Y0034893D01*
X0061910Y0034974D01*
X0062190Y0035048D01*
X0062472Y0035115D01*
X0062756Y0035175D01*
X0063041Y0035228D01*
X0063327Y0035274D01*
X0063614Y0035313D01*
X0063902Y0035345D01*
X0064191Y0035370D01*
X0064480Y0035388D01*
X0064770Y0035398D01*
X0065060Y0035402D01*
X0065350Y0035398D01*
X0065640Y0035388D01*
X0065929Y0035370D01*
X0066218Y0035345D01*
X0066506Y0035313D01*
X0066793Y0035274D01*
X0067079Y0035228D01*
X0067364Y0035175D01*
X0067648Y0035115D01*
X0067930Y0035048D01*
X0068210Y0034974D01*
X0068489Y0034893D01*
X0068765Y0034806D01*
X0069039Y0034712D01*
X0069311Y0034611D01*
X0069580Y0034503D01*
X0069846Y0034389D01*
X0070110Y0034268D01*
X0070370Y0034141D01*
X0070628Y0034007D01*
X0070882Y0033868D01*
X0071132Y0033722D01*
X0071379Y0033570D01*
X0071622Y0033411D01*
X0071861Y0033247D01*
X0072096Y0033078D01*
X0072327Y0032902D01*
X0072553Y0032721D01*
X0072775Y0032534D01*
X0072992Y0032342D01*
X0073204Y0032145D01*
X0073412Y0031943D01*
X0073614Y0031735D01*
X0073811Y0031523D01*
X0074003Y0031306D01*
X0074190Y0031084D01*
X0074371Y0030858D01*
X0074547Y0030627D01*
X0074716Y0030392D01*
X0074880Y0030153D01*
X0075039Y0029910D01*
X0075191Y0029663D01*
X0075337Y0029413D01*
X0075476Y0029159D01*
X0075610Y0028901D01*
X0075737Y0028641D01*
X0075858Y0028377D01*
X0075972Y0028111D01*
X0076080Y0027842D01*
X0076181Y0027570D01*
X0076275Y0027296D01*
X0076362Y0027020D01*
X0076443Y0026741D01*
X0076517Y0026461D01*
X0076584Y0026179D01*
X0076644Y0025895D01*
X0076697Y0025610D01*
X0076743Y0025324D01*
X0076782Y0025037D01*
X0076814Y0024749D01*
X0076839Y0024460D01*
X0076857Y0024171D01*
X0076867Y0023881D01*
X0076871Y0023591D01*
X0076867Y0023301D01*
X0076857Y0023011D01*
X0076839Y0022722D01*
X0076814Y0022433D01*
X0076782Y0022145D01*
X0076743Y0021858D01*
X0076697Y0021572D01*
X0076644Y0021287D01*
X0076584Y0021003D01*
X0076517Y0020721D01*
X0076443Y0020441D01*
X0076362Y0020162D01*
X0076275Y0019886D01*
X0076181Y0019612D01*
X0076080Y0019340D01*
X0075972Y0019071D01*
X0075858Y0018805D01*
X0075737Y0018541D01*
X0075610Y0018281D01*
X0075476Y0018023D01*
X0075337Y0017769D01*
X0075191Y0017519D01*
X0075039Y0017272D01*
X0074880Y0017029D01*
X0074716Y0016790D01*
X0074547Y0016555D01*
X0074371Y0016324D01*
X0074190Y0016098D01*
X0074003Y0015876D01*
X0073811Y0015659D01*
X0073614Y0015447D01*
X0073412Y0015239D01*
X0073204Y0015037D01*
X0072992Y0014840D01*
X0072775Y0014648D01*
X0072553Y0014461D01*
X0072327Y0014280D01*
X0072096Y0014104D01*
X0071861Y0013935D01*
X0071622Y0013771D01*
X0071379Y0013612D01*
X0071132Y0013460D01*
X0070882Y0013314D01*
X0070628Y0013175D01*
X0070370Y0013041D01*
X0070110Y0012914D01*
X0069846Y0012793D01*
X0069580Y0012679D01*
X0069311Y0012571D01*
X0069039Y0012470D01*
X0068765Y0012376D01*
X0068489Y0012289D01*
X0068210Y0012208D01*
X0067930Y0012134D01*
X0067648Y0012067D01*
X0067364Y0012007D01*
X0067079Y0011954D01*
X0066793Y0011908D01*
X0066506Y0011869D01*
X0066218Y0011837D01*
X0065929Y0011812D01*
X0065640Y0011794D01*
X0065350Y0011784D01*
X0065060Y0011780D01*
X0064770Y0011784D01*
X0064480Y0011794D01*
X0064191Y0011812D01*
X0063902Y0011837D01*
X0063614Y0011869D01*
X0063327Y0011908D01*
X0063041Y0011954D01*
X0062756Y0012007D01*
X0062472Y0012067D01*
X0062190Y0012134D01*
X0061910Y0012208D01*
X0061631Y0012289D01*
X0061355Y0012376D01*
X0061081Y0012470D01*
X0060809Y0012571D01*
X0060540Y0012679D01*
X0060274Y0012793D01*
X0060010Y0012914D01*
X0059750Y0013041D01*
X0059492Y0013175D01*
X0059238Y0013314D01*
X0058988Y0013460D01*
X0058741Y0013612D01*
X0058498Y0013771D01*
X0058259Y0013935D01*
X0058024Y0014104D01*
X0057793Y0014280D01*
X0057567Y0014461D01*
X0057345Y0014648D01*
X0057128Y0014840D01*
X0056916Y0015037D01*
X0056708Y0015239D01*
X0056506Y0015447D01*
X0056309Y0015659D01*
X0056117Y0015876D01*
X0055930Y0016098D01*
X0055749Y0016324D01*
X0055573Y0016555D01*
X0055404Y0016790D01*
X0055240Y0017029D01*
X0055081Y0017272D01*
X0054929Y0017519D01*
X0054783Y0017769D01*
X0054644Y0018023D01*
X0054510Y0018281D01*
X0054383Y0018541D01*
X0054262Y0018805D01*
X0054148Y0019071D01*
X0054040Y0019340D01*
X0053939Y0019612D01*
X0053845Y0019886D01*
X0053758Y0020162D01*
X0053677Y0020441D01*
X0053603Y0020721D01*
X0053536Y0021003D01*
X0053476Y0021287D01*
X0053423Y0021572D01*
X0053377Y0021858D01*
X0053338Y0022145D01*
X0053306Y0022433D01*
X0053281Y0022722D01*
X0053263Y0023011D01*
X0053253Y0023301D01*
X0053249Y0023591D01*
X0023249Y0023591D02*
X0023253Y0023881D01*
X0023263Y0024171D01*
X0023281Y0024460D01*
X0023306Y0024749D01*
X0023338Y0025037D01*
X0023377Y0025324D01*
X0023423Y0025610D01*
X0023476Y0025895D01*
X0023536Y0026179D01*
X0023603Y0026461D01*
X0023677Y0026741D01*
X0023758Y0027020D01*
X0023845Y0027296D01*
X0023939Y0027570D01*
X0024040Y0027842D01*
X0024148Y0028111D01*
X0024262Y0028377D01*
X0024383Y0028641D01*
X0024510Y0028901D01*
X0024644Y0029159D01*
X0024783Y0029413D01*
X0024929Y0029663D01*
X0025081Y0029910D01*
X0025240Y0030153D01*
X0025404Y0030392D01*
X0025573Y0030627D01*
X0025749Y0030858D01*
X0025930Y0031084D01*
X0026117Y0031306D01*
X0026309Y0031523D01*
X0026506Y0031735D01*
X0026708Y0031943D01*
X0026916Y0032145D01*
X0027128Y0032342D01*
X0027345Y0032534D01*
X0027567Y0032721D01*
X0027793Y0032902D01*
X0028024Y0033078D01*
X0028259Y0033247D01*
X0028498Y0033411D01*
X0028741Y0033570D01*
X0028988Y0033722D01*
X0029238Y0033868D01*
X0029492Y0034007D01*
X0029750Y0034141D01*
X0030010Y0034268D01*
X0030274Y0034389D01*
X0030540Y0034503D01*
X0030809Y0034611D01*
X0031081Y0034712D01*
X0031355Y0034806D01*
X0031631Y0034893D01*
X0031910Y0034974D01*
X0032190Y0035048D01*
X0032472Y0035115D01*
X0032756Y0035175D01*
X0033041Y0035228D01*
X0033327Y0035274D01*
X0033614Y0035313D01*
X0033902Y0035345D01*
X0034191Y0035370D01*
X0034480Y0035388D01*
X0034770Y0035398D01*
X0035060Y0035402D01*
X0035350Y0035398D01*
X0035640Y0035388D01*
X0035929Y0035370D01*
X0036218Y0035345D01*
X0036506Y0035313D01*
X0036793Y0035274D01*
X0037079Y0035228D01*
X0037364Y0035175D01*
X0037648Y0035115D01*
X0037930Y0035048D01*
X0038210Y0034974D01*
X0038489Y0034893D01*
X0038765Y0034806D01*
X0039039Y0034712D01*
X0039311Y0034611D01*
X0039580Y0034503D01*
X0039846Y0034389D01*
X0040110Y0034268D01*
X0040370Y0034141D01*
X0040628Y0034007D01*
X0040882Y0033868D01*
X0041132Y0033722D01*
X0041379Y0033570D01*
X0041622Y0033411D01*
X0041861Y0033247D01*
X0042096Y0033078D01*
X0042327Y0032902D01*
X0042553Y0032721D01*
X0042775Y0032534D01*
X0042992Y0032342D01*
X0043204Y0032145D01*
X0043412Y0031943D01*
X0043614Y0031735D01*
X0043811Y0031523D01*
X0044003Y0031306D01*
X0044190Y0031084D01*
X0044371Y0030858D01*
X0044547Y0030627D01*
X0044716Y0030392D01*
X0044880Y0030153D01*
X0045039Y0029910D01*
X0045191Y0029663D01*
X0045337Y0029413D01*
X0045476Y0029159D01*
X0045610Y0028901D01*
X0045737Y0028641D01*
X0045858Y0028377D01*
X0045972Y0028111D01*
X0046080Y0027842D01*
X0046181Y0027570D01*
X0046275Y0027296D01*
X0046362Y0027020D01*
X0046443Y0026741D01*
X0046517Y0026461D01*
X0046584Y0026179D01*
X0046644Y0025895D01*
X0046697Y0025610D01*
X0046743Y0025324D01*
X0046782Y0025037D01*
X0046814Y0024749D01*
X0046839Y0024460D01*
X0046857Y0024171D01*
X0046867Y0023881D01*
X0046871Y0023591D01*
X0046867Y0023301D01*
X0046857Y0023011D01*
X0046839Y0022722D01*
X0046814Y0022433D01*
X0046782Y0022145D01*
X0046743Y0021858D01*
X0046697Y0021572D01*
X0046644Y0021287D01*
X0046584Y0021003D01*
X0046517Y0020721D01*
X0046443Y0020441D01*
X0046362Y0020162D01*
X0046275Y0019886D01*
X0046181Y0019612D01*
X0046080Y0019340D01*
X0045972Y0019071D01*
X0045858Y0018805D01*
X0045737Y0018541D01*
X0045610Y0018281D01*
X0045476Y0018023D01*
X0045337Y0017769D01*
X0045191Y0017519D01*
X0045039Y0017272D01*
X0044880Y0017029D01*
X0044716Y0016790D01*
X0044547Y0016555D01*
X0044371Y0016324D01*
X0044190Y0016098D01*
X0044003Y0015876D01*
X0043811Y0015659D01*
X0043614Y0015447D01*
X0043412Y0015239D01*
X0043204Y0015037D01*
X0042992Y0014840D01*
X0042775Y0014648D01*
X0042553Y0014461D01*
X0042327Y0014280D01*
X0042096Y0014104D01*
X0041861Y0013935D01*
X0041622Y0013771D01*
X0041379Y0013612D01*
X0041132Y0013460D01*
X0040882Y0013314D01*
X0040628Y0013175D01*
X0040370Y0013041D01*
X0040110Y0012914D01*
X0039846Y0012793D01*
X0039580Y0012679D01*
X0039311Y0012571D01*
X0039039Y0012470D01*
X0038765Y0012376D01*
X0038489Y0012289D01*
X0038210Y0012208D01*
X0037930Y0012134D01*
X0037648Y0012067D01*
X0037364Y0012007D01*
X0037079Y0011954D01*
X0036793Y0011908D01*
X0036506Y0011869D01*
X0036218Y0011837D01*
X0035929Y0011812D01*
X0035640Y0011794D01*
X0035350Y0011784D01*
X0035060Y0011780D01*
X0034770Y0011784D01*
X0034480Y0011794D01*
X0034191Y0011812D01*
X0033902Y0011837D01*
X0033614Y0011869D01*
X0033327Y0011908D01*
X0033041Y0011954D01*
X0032756Y0012007D01*
X0032472Y0012067D01*
X0032190Y0012134D01*
X0031910Y0012208D01*
X0031631Y0012289D01*
X0031355Y0012376D01*
X0031081Y0012470D01*
X0030809Y0012571D01*
X0030540Y0012679D01*
X0030274Y0012793D01*
X0030010Y0012914D01*
X0029750Y0013041D01*
X0029492Y0013175D01*
X0029238Y0013314D01*
X0028988Y0013460D01*
X0028741Y0013612D01*
X0028498Y0013771D01*
X0028259Y0013935D01*
X0028024Y0014104D01*
X0027793Y0014280D01*
X0027567Y0014461D01*
X0027345Y0014648D01*
X0027128Y0014840D01*
X0026916Y0015037D01*
X0026708Y0015239D01*
X0026506Y0015447D01*
X0026309Y0015659D01*
X0026117Y0015876D01*
X0025930Y0016098D01*
X0025749Y0016324D01*
X0025573Y0016555D01*
X0025404Y0016790D01*
X0025240Y0017029D01*
X0025081Y0017272D01*
X0024929Y0017519D01*
X0024783Y0017769D01*
X0024644Y0018023D01*
X0024510Y0018281D01*
X0024383Y0018541D01*
X0024262Y0018805D01*
X0024148Y0019071D01*
X0024040Y0019340D01*
X0023939Y0019612D01*
X0023845Y0019886D01*
X0023758Y0020162D01*
X0023677Y0020441D01*
X0023603Y0020721D01*
X0023536Y0021003D01*
X0023476Y0021287D01*
X0023423Y0021572D01*
X0023377Y0021858D01*
X0023338Y0022145D01*
X0023306Y0022433D01*
X0023281Y0022722D01*
X0023263Y0023011D01*
X0023253Y0023301D01*
X0023249Y0023591D01*
X0146202Y0088591D02*
X0146205Y0088808D01*
X0146213Y0089026D01*
X0146226Y0089243D01*
X0146245Y0089459D01*
X0146269Y0089675D01*
X0146298Y0089891D01*
X0146332Y0090105D01*
X0146372Y0090319D01*
X0146417Y0090532D01*
X0146467Y0090743D01*
X0146523Y0090954D01*
X0146583Y0091162D01*
X0146649Y0091370D01*
X0146720Y0091575D01*
X0146796Y0091779D01*
X0146876Y0091981D01*
X0146962Y0092181D01*
X0147052Y0092378D01*
X0147148Y0092574D01*
X0147248Y0092767D01*
X0147353Y0092957D01*
X0147462Y0093145D01*
X0147576Y0093330D01*
X0147695Y0093512D01*
X0147818Y0093692D01*
X0147945Y0093868D01*
X0148077Y0094041D01*
X0148213Y0094210D01*
X0148353Y0094377D01*
X0148497Y0094540D01*
X0148645Y0094699D01*
X0148796Y0094855D01*
X0148952Y0095006D01*
X0149111Y0095154D01*
X0149274Y0095298D01*
X0149441Y0095438D01*
X0149610Y0095574D01*
X0149783Y0095706D01*
X0149959Y0095833D01*
X0150139Y0095956D01*
X0150321Y0096075D01*
X0150506Y0096189D01*
X0150694Y0096298D01*
X0150884Y0096403D01*
X0151077Y0096503D01*
X0151273Y0096599D01*
X0151470Y0096689D01*
X0151670Y0096775D01*
X0151872Y0096855D01*
X0152076Y0096931D01*
X0152281Y0097002D01*
X0152489Y0097068D01*
X0152697Y0097128D01*
X0152908Y0097184D01*
X0153119Y0097234D01*
X0153332Y0097279D01*
X0153546Y0097319D01*
X0153760Y0097353D01*
X0153976Y0097382D01*
X0154192Y0097406D01*
X0154408Y0097425D01*
X0154625Y0097438D01*
X0154843Y0097446D01*
X0155060Y0097449D01*
X0155277Y0097446D01*
X0155495Y0097438D01*
X0155712Y0097425D01*
X0155928Y0097406D01*
X0156144Y0097382D01*
X0156360Y0097353D01*
X0156574Y0097319D01*
X0156788Y0097279D01*
X0157001Y0097234D01*
X0157212Y0097184D01*
X0157423Y0097128D01*
X0157631Y0097068D01*
X0157839Y0097002D01*
X0158044Y0096931D01*
X0158248Y0096855D01*
X0158450Y0096775D01*
X0158650Y0096689D01*
X0158847Y0096599D01*
X0159043Y0096503D01*
X0159236Y0096403D01*
X0159426Y0096298D01*
X0159614Y0096189D01*
X0159799Y0096075D01*
X0159981Y0095956D01*
X0160161Y0095833D01*
X0160337Y0095706D01*
X0160510Y0095574D01*
X0160679Y0095438D01*
X0160846Y0095298D01*
X0161009Y0095154D01*
X0161168Y0095006D01*
X0161324Y0094855D01*
X0161475Y0094699D01*
X0161623Y0094540D01*
X0161767Y0094377D01*
X0161907Y0094210D01*
X0162043Y0094041D01*
X0162175Y0093868D01*
X0162302Y0093692D01*
X0162425Y0093512D01*
X0162544Y0093330D01*
X0162658Y0093145D01*
X0162767Y0092957D01*
X0162872Y0092767D01*
X0162972Y0092574D01*
X0163068Y0092378D01*
X0163158Y0092181D01*
X0163244Y0091981D01*
X0163324Y0091779D01*
X0163400Y0091575D01*
X0163471Y0091370D01*
X0163537Y0091162D01*
X0163597Y0090954D01*
X0163653Y0090743D01*
X0163703Y0090532D01*
X0163748Y0090319D01*
X0163788Y0090105D01*
X0163822Y0089891D01*
X0163851Y0089675D01*
X0163875Y0089459D01*
X0163894Y0089243D01*
X0163907Y0089026D01*
X0163915Y0088808D01*
X0163918Y0088591D01*
X0163915Y0088374D01*
X0163907Y0088156D01*
X0163894Y0087939D01*
X0163875Y0087723D01*
X0163851Y0087507D01*
X0163822Y0087291D01*
X0163788Y0087077D01*
X0163748Y0086863D01*
X0163703Y0086650D01*
X0163653Y0086439D01*
X0163597Y0086228D01*
X0163537Y0086020D01*
X0163471Y0085812D01*
X0163400Y0085607D01*
X0163324Y0085403D01*
X0163244Y0085201D01*
X0163158Y0085001D01*
X0163068Y0084804D01*
X0162972Y0084608D01*
X0162872Y0084415D01*
X0162767Y0084225D01*
X0162658Y0084037D01*
X0162544Y0083852D01*
X0162425Y0083670D01*
X0162302Y0083490D01*
X0162175Y0083314D01*
X0162043Y0083141D01*
X0161907Y0082972D01*
X0161767Y0082805D01*
X0161623Y0082642D01*
X0161475Y0082483D01*
X0161324Y0082327D01*
X0161168Y0082176D01*
X0161009Y0082028D01*
X0160846Y0081884D01*
X0160679Y0081744D01*
X0160510Y0081608D01*
X0160337Y0081476D01*
X0160161Y0081349D01*
X0159981Y0081226D01*
X0159799Y0081107D01*
X0159614Y0080993D01*
X0159426Y0080884D01*
X0159236Y0080779D01*
X0159043Y0080679D01*
X0158847Y0080583D01*
X0158650Y0080493D01*
X0158450Y0080407D01*
X0158248Y0080327D01*
X0158044Y0080251D01*
X0157839Y0080180D01*
X0157631Y0080114D01*
X0157423Y0080054D01*
X0157212Y0079998D01*
X0157001Y0079948D01*
X0156788Y0079903D01*
X0156574Y0079863D01*
X0156360Y0079829D01*
X0156144Y0079800D01*
X0155928Y0079776D01*
X0155712Y0079757D01*
X0155495Y0079744D01*
X0155277Y0079736D01*
X0155060Y0079733D01*
X0154843Y0079736D01*
X0154625Y0079744D01*
X0154408Y0079757D01*
X0154192Y0079776D01*
X0153976Y0079800D01*
X0153760Y0079829D01*
X0153546Y0079863D01*
X0153332Y0079903D01*
X0153119Y0079948D01*
X0152908Y0079998D01*
X0152697Y0080054D01*
X0152489Y0080114D01*
X0152281Y0080180D01*
X0152076Y0080251D01*
X0151872Y0080327D01*
X0151670Y0080407D01*
X0151470Y0080493D01*
X0151273Y0080583D01*
X0151077Y0080679D01*
X0150884Y0080779D01*
X0150694Y0080884D01*
X0150506Y0080993D01*
X0150321Y0081107D01*
X0150139Y0081226D01*
X0149959Y0081349D01*
X0149783Y0081476D01*
X0149610Y0081608D01*
X0149441Y0081744D01*
X0149274Y0081884D01*
X0149111Y0082028D01*
X0148952Y0082176D01*
X0148796Y0082327D01*
X0148645Y0082483D01*
X0148497Y0082642D01*
X0148353Y0082805D01*
X0148213Y0082972D01*
X0148077Y0083141D01*
X0147945Y0083314D01*
X0147818Y0083490D01*
X0147695Y0083670D01*
X0147576Y0083852D01*
X0147462Y0084037D01*
X0147353Y0084225D01*
X0147248Y0084415D01*
X0147148Y0084608D01*
X0147052Y0084804D01*
X0146962Y0085001D01*
X0146876Y0085201D01*
X0146796Y0085403D01*
X0146720Y0085607D01*
X0146649Y0085812D01*
X0146583Y0086020D01*
X0146523Y0086228D01*
X0146467Y0086439D01*
X0146417Y0086650D01*
X0146372Y0086863D01*
X0146332Y0087077D01*
X0146298Y0087291D01*
X0146269Y0087507D01*
X0146245Y0087723D01*
X0146226Y0087939D01*
X0146213Y0088156D01*
X0146205Y0088374D01*
X0146202Y0088591D01*
X0041202Y0183591D02*
X0041205Y0183808D01*
X0041213Y0184026D01*
X0041226Y0184243D01*
X0041245Y0184459D01*
X0041269Y0184675D01*
X0041298Y0184891D01*
X0041332Y0185105D01*
X0041372Y0185319D01*
X0041417Y0185532D01*
X0041467Y0185743D01*
X0041523Y0185954D01*
X0041583Y0186162D01*
X0041649Y0186370D01*
X0041720Y0186575D01*
X0041796Y0186779D01*
X0041876Y0186981D01*
X0041962Y0187181D01*
X0042052Y0187378D01*
X0042148Y0187574D01*
X0042248Y0187767D01*
X0042353Y0187957D01*
X0042462Y0188145D01*
X0042576Y0188330D01*
X0042695Y0188512D01*
X0042818Y0188692D01*
X0042945Y0188868D01*
X0043077Y0189041D01*
X0043213Y0189210D01*
X0043353Y0189377D01*
X0043497Y0189540D01*
X0043645Y0189699D01*
X0043796Y0189855D01*
X0043952Y0190006D01*
X0044111Y0190154D01*
X0044274Y0190298D01*
X0044441Y0190438D01*
X0044610Y0190574D01*
X0044783Y0190706D01*
X0044959Y0190833D01*
X0045139Y0190956D01*
X0045321Y0191075D01*
X0045506Y0191189D01*
X0045694Y0191298D01*
X0045884Y0191403D01*
X0046077Y0191503D01*
X0046273Y0191599D01*
X0046470Y0191689D01*
X0046670Y0191775D01*
X0046872Y0191855D01*
X0047076Y0191931D01*
X0047281Y0192002D01*
X0047489Y0192068D01*
X0047697Y0192128D01*
X0047908Y0192184D01*
X0048119Y0192234D01*
X0048332Y0192279D01*
X0048546Y0192319D01*
X0048760Y0192353D01*
X0048976Y0192382D01*
X0049192Y0192406D01*
X0049408Y0192425D01*
X0049625Y0192438D01*
X0049843Y0192446D01*
X0050060Y0192449D01*
X0050277Y0192446D01*
X0050495Y0192438D01*
X0050712Y0192425D01*
X0050928Y0192406D01*
X0051144Y0192382D01*
X0051360Y0192353D01*
X0051574Y0192319D01*
X0051788Y0192279D01*
X0052001Y0192234D01*
X0052212Y0192184D01*
X0052423Y0192128D01*
X0052631Y0192068D01*
X0052839Y0192002D01*
X0053044Y0191931D01*
X0053248Y0191855D01*
X0053450Y0191775D01*
X0053650Y0191689D01*
X0053847Y0191599D01*
X0054043Y0191503D01*
X0054236Y0191403D01*
X0054426Y0191298D01*
X0054614Y0191189D01*
X0054799Y0191075D01*
X0054981Y0190956D01*
X0055161Y0190833D01*
X0055337Y0190706D01*
X0055510Y0190574D01*
X0055679Y0190438D01*
X0055846Y0190298D01*
X0056009Y0190154D01*
X0056168Y0190006D01*
X0056324Y0189855D01*
X0056475Y0189699D01*
X0056623Y0189540D01*
X0056767Y0189377D01*
X0056907Y0189210D01*
X0057043Y0189041D01*
X0057175Y0188868D01*
X0057302Y0188692D01*
X0057425Y0188512D01*
X0057544Y0188330D01*
X0057658Y0188145D01*
X0057767Y0187957D01*
X0057872Y0187767D01*
X0057972Y0187574D01*
X0058068Y0187378D01*
X0058158Y0187181D01*
X0058244Y0186981D01*
X0058324Y0186779D01*
X0058400Y0186575D01*
X0058471Y0186370D01*
X0058537Y0186162D01*
X0058597Y0185954D01*
X0058653Y0185743D01*
X0058703Y0185532D01*
X0058748Y0185319D01*
X0058788Y0185105D01*
X0058822Y0184891D01*
X0058851Y0184675D01*
X0058875Y0184459D01*
X0058894Y0184243D01*
X0058907Y0184026D01*
X0058915Y0183808D01*
X0058918Y0183591D01*
X0058915Y0183374D01*
X0058907Y0183156D01*
X0058894Y0182939D01*
X0058875Y0182723D01*
X0058851Y0182507D01*
X0058822Y0182291D01*
X0058788Y0182077D01*
X0058748Y0181863D01*
X0058703Y0181650D01*
X0058653Y0181439D01*
X0058597Y0181228D01*
X0058537Y0181020D01*
X0058471Y0180812D01*
X0058400Y0180607D01*
X0058324Y0180403D01*
X0058244Y0180201D01*
X0058158Y0180001D01*
X0058068Y0179804D01*
X0057972Y0179608D01*
X0057872Y0179415D01*
X0057767Y0179225D01*
X0057658Y0179037D01*
X0057544Y0178852D01*
X0057425Y0178670D01*
X0057302Y0178490D01*
X0057175Y0178314D01*
X0057043Y0178141D01*
X0056907Y0177972D01*
X0056767Y0177805D01*
X0056623Y0177642D01*
X0056475Y0177483D01*
X0056324Y0177327D01*
X0056168Y0177176D01*
X0056009Y0177028D01*
X0055846Y0176884D01*
X0055679Y0176744D01*
X0055510Y0176608D01*
X0055337Y0176476D01*
X0055161Y0176349D01*
X0054981Y0176226D01*
X0054799Y0176107D01*
X0054614Y0175993D01*
X0054426Y0175884D01*
X0054236Y0175779D01*
X0054043Y0175679D01*
X0053847Y0175583D01*
X0053650Y0175493D01*
X0053450Y0175407D01*
X0053248Y0175327D01*
X0053044Y0175251D01*
X0052839Y0175180D01*
X0052631Y0175114D01*
X0052423Y0175054D01*
X0052212Y0174998D01*
X0052001Y0174948D01*
X0051788Y0174903D01*
X0051574Y0174863D01*
X0051360Y0174829D01*
X0051144Y0174800D01*
X0050928Y0174776D01*
X0050712Y0174757D01*
X0050495Y0174744D01*
X0050277Y0174736D01*
X0050060Y0174733D01*
X0049843Y0174736D01*
X0049625Y0174744D01*
X0049408Y0174757D01*
X0049192Y0174776D01*
X0048976Y0174800D01*
X0048760Y0174829D01*
X0048546Y0174863D01*
X0048332Y0174903D01*
X0048119Y0174948D01*
X0047908Y0174998D01*
X0047697Y0175054D01*
X0047489Y0175114D01*
X0047281Y0175180D01*
X0047076Y0175251D01*
X0046872Y0175327D01*
X0046670Y0175407D01*
X0046470Y0175493D01*
X0046273Y0175583D01*
X0046077Y0175679D01*
X0045884Y0175779D01*
X0045694Y0175884D01*
X0045506Y0175993D01*
X0045321Y0176107D01*
X0045139Y0176226D01*
X0044959Y0176349D01*
X0044783Y0176476D01*
X0044610Y0176608D01*
X0044441Y0176744D01*
X0044274Y0176884D01*
X0044111Y0177028D01*
X0043952Y0177176D01*
X0043796Y0177327D01*
X0043645Y0177483D01*
X0043497Y0177642D01*
X0043353Y0177805D01*
X0043213Y0177972D01*
X0043077Y0178141D01*
X0042945Y0178314D01*
X0042818Y0178490D01*
X0042695Y0178670D01*
X0042576Y0178852D01*
X0042462Y0179037D01*
X0042353Y0179225D01*
X0042248Y0179415D01*
X0042148Y0179608D01*
X0042052Y0179804D01*
X0041962Y0180001D01*
X0041876Y0180201D01*
X0041796Y0180403D01*
X0041720Y0180607D01*
X0041649Y0180812D01*
X0041583Y0181020D01*
X0041523Y0181228D01*
X0041467Y0181439D01*
X0041417Y0181650D01*
X0041372Y0181863D01*
X0041332Y0182077D01*
X0041298Y0182291D01*
X0041269Y0182507D01*
X0041245Y0182723D01*
X0041226Y0182939D01*
X0041213Y0183156D01*
X0041205Y0183374D01*
X0041202Y0183591D01*
M02*
