%
M48
M72
T01C0.01969
T02C0.02362
T03C0.02756
T04C0.03150
T05C0.03200
T06C0.03937
T07C0.04000
T08C0.07874
%
T01
X75060Y68748
X75060Y78591
X75060Y88433
T02
X25060Y53591
X25060Y83591
X35060Y108591
X35060Y118591
X70060Y118591
X50060Y173748
X50060Y193433
X150060Y103591
X155060Y98433
X160060Y108591
X155060Y78748
X160060Y28591
X55060Y58591
T03
X161674Y166346
X166792Y169496
X161674Y172646
X166792Y175795
X161674Y178945
T04
X122186Y188591
X130060Y188591
X137934Y188591
T05
X90060Y183591
X95060Y191091
X100060Y183591
X90060Y158591
X90060Y148591
X90060Y138591
X90060Y128591
X90060Y118591
X90060Y108591
X90060Y98591
X90060Y88591
X90060Y78591
X90060Y68591
X90060Y58591
X90060Y48591
X90060Y38591
X90060Y28591
X120060Y28591
X120060Y38591
X120060Y48591
X120060Y58591
X120060Y68591
X120060Y78591
X120060Y88591
X120060Y98591
X120060Y108591
X120060Y118591
X120060Y128591
X120060Y138591
X120060Y148591
X120060Y158591
T06
X114312Y188591
X145808Y188591
X65060Y33433
X65060Y13748
X35060Y13748
X35060Y33433
T07
X10060Y8591
X10060Y18591
X10060Y28591
X10060Y38591
X10060Y48591
X10060Y58591
X10060Y68591
X10060Y78591
X10060Y88591
X10060Y98591
X10060Y108591
X10060Y118591
X10060Y128591
X10060Y138591
X197060Y138591
X197060Y128591
X197060Y118591
X197060Y108591
X197060Y98591
X197060Y88591
X197060Y78591
X197060Y68591
T08
X181950Y158276
X181950Y187016
M30
